G04 #@! TF.GenerationSoftware,KiCad,Pcbnew,(5.0.0)*
G04 #@! TF.CreationDate,2018-08-28T13:44:09+03:00*
G04 #@! TF.ProjectId,LCF05,4C434630352E6B696361645F70636200,rev?*
G04 #@! TF.SameCoordinates,Original*
G04 #@! TF.FileFunction,Legend,Top*
G04 #@! TF.FilePolarity,Positive*
%FSLAX46Y46*%
G04 Gerber Fmt 4.6, Leading zero omitted, Abs format (unit mm)*
G04 Created by KiCad (PCBNEW (5.0.0)) date 08/28/18 13:44:09*
%MOMM*%
%LPD*%
G01*
G04 APERTURE LIST*
%ADD10C,0.300000*%
%ADD11C,0.200000*%
%ADD12C,0.150000*%
%ADD13C,0.381000*%
%ADD14C,0.010000*%
%ADD15C,0.304800*%
G04 APERTURE END LIST*
D10*
X162742857Y-90848571D02*
X162028571Y-90848571D01*
X162028571Y-89348571D01*
X164100000Y-90705714D02*
X164028571Y-90777142D01*
X163814285Y-90848571D01*
X163671428Y-90848571D01*
X163457142Y-90777142D01*
X163314285Y-90634285D01*
X163242857Y-90491428D01*
X163171428Y-90205714D01*
X163171428Y-89991428D01*
X163242857Y-89705714D01*
X163314285Y-89562857D01*
X163457142Y-89420000D01*
X163671428Y-89348571D01*
X163814285Y-89348571D01*
X164028571Y-89420000D01*
X164100000Y-89491428D01*
X165242857Y-90062857D02*
X164742857Y-90062857D01*
X164742857Y-90848571D02*
X164742857Y-89348571D01*
X165457142Y-89348571D01*
X166314285Y-89348571D02*
X166457142Y-89348571D01*
X166600000Y-89420000D01*
X166671428Y-89491428D01*
X166742857Y-89634285D01*
X166814285Y-89920000D01*
X166814285Y-90277142D01*
X166742857Y-90562857D01*
X166671428Y-90705714D01*
X166600000Y-90777142D01*
X166457142Y-90848571D01*
X166314285Y-90848571D01*
X166171428Y-90777142D01*
X166100000Y-90705714D01*
X166028571Y-90562857D01*
X165957142Y-90277142D01*
X165957142Y-89920000D01*
X166028571Y-89634285D01*
X166100000Y-89491428D01*
X166171428Y-89420000D01*
X166314285Y-89348571D01*
X168171428Y-89348571D02*
X167457142Y-89348571D01*
X167385714Y-90062857D01*
X167457142Y-89991428D01*
X167600000Y-89920000D01*
X167957142Y-89920000D01*
X168100000Y-89991428D01*
X168171428Y-90062857D01*
X168242857Y-90205714D01*
X168242857Y-90562857D01*
X168171428Y-90705714D01*
X168100000Y-90777142D01*
X167957142Y-90848571D01*
X167600000Y-90848571D01*
X167457142Y-90777142D01*
X167385714Y-90705714D01*
D11*
X170180000Y-72390000D02*
X170180000Y-76835000D01*
X170180000Y-55245000D02*
X170180000Y-59690000D01*
X124460000Y-67945000D02*
X124460000Y-76835000D01*
X124460000Y-55245000D02*
X124460000Y-64135000D01*
D10*
X129020000Y-64897142D02*
X129091428Y-64754285D01*
X129091428Y-64540000D01*
X129020000Y-64325714D01*
X128877142Y-64182857D01*
X128734285Y-64111428D01*
X128448571Y-64040000D01*
X128234285Y-64040000D01*
X127948571Y-64111428D01*
X127805714Y-64182857D01*
X127662857Y-64325714D01*
X127591428Y-64540000D01*
X127591428Y-64682857D01*
X127662857Y-64897142D01*
X127734285Y-64968571D01*
X128234285Y-64968571D01*
X128234285Y-64682857D01*
X127591428Y-65611428D02*
X129091428Y-65611428D01*
X127591428Y-66468571D01*
X129091428Y-66468571D01*
X127591428Y-67182857D02*
X129091428Y-67182857D01*
X129091428Y-67540000D01*
X129020000Y-67754285D01*
X128877142Y-67897142D01*
X128734285Y-67968571D01*
X128448571Y-68040000D01*
X128234285Y-68040000D01*
X127948571Y-67968571D01*
X127805714Y-67897142D01*
X127662857Y-67754285D01*
X127591428Y-67540000D01*
X127591428Y-67182857D01*
X169430000Y-67182857D02*
X169358571Y-67325714D01*
X169358571Y-67540000D01*
X169430000Y-67754285D01*
X169572857Y-67897142D01*
X169715714Y-67968571D01*
X170001428Y-68040000D01*
X170215714Y-68040000D01*
X170501428Y-67968571D01*
X170644285Y-67897142D01*
X170787142Y-67754285D01*
X170858571Y-67540000D01*
X170858571Y-67397142D01*
X170787142Y-67182857D01*
X170715714Y-67111428D01*
X170215714Y-67111428D01*
X170215714Y-67397142D01*
X170858571Y-66468571D02*
X169358571Y-66468571D01*
X170858571Y-65611428D01*
X169358571Y-65611428D01*
X170858571Y-64897142D02*
X169358571Y-64897142D01*
X169358571Y-64540000D01*
X169430000Y-64325714D01*
X169572857Y-64182857D01*
X169715714Y-64111428D01*
X170001428Y-64040000D01*
X170215714Y-64040000D01*
X170501428Y-64111428D01*
X170644285Y-64182857D01*
X170787142Y-64325714D01*
X170858571Y-64540000D01*
X170858571Y-64897142D01*
D12*
X168807380Y-85843809D02*
X168807380Y-85653333D01*
X168855000Y-85558095D01*
X168950238Y-85462857D01*
X169140714Y-85415238D01*
X169474047Y-85415238D01*
X169664523Y-85462857D01*
X169759761Y-85558095D01*
X169807380Y-85653333D01*
X169807380Y-85843809D01*
X169759761Y-85939047D01*
X169664523Y-86034285D01*
X169474047Y-86081904D01*
X169140714Y-86081904D01*
X168950238Y-86034285D01*
X168855000Y-85939047D01*
X168807380Y-85843809D01*
X169140714Y-84558095D02*
X169807380Y-84558095D01*
X169140714Y-84986666D02*
X169664523Y-84986666D01*
X169759761Y-84939047D01*
X169807380Y-84843809D01*
X169807380Y-84700952D01*
X169759761Y-84605714D01*
X169712142Y-84558095D01*
X169140714Y-84224761D02*
X169140714Y-83843809D01*
X168807380Y-84081904D02*
X169664523Y-84081904D01*
X169759761Y-84034285D01*
X169807380Y-83939047D01*
X169807380Y-83843809D01*
X169140714Y-83510476D02*
X170140714Y-83510476D01*
X169188333Y-83510476D02*
X169140714Y-83415238D01*
X169140714Y-83224761D01*
X169188333Y-83129523D01*
X169235952Y-83081904D01*
X169331190Y-83034285D01*
X169616904Y-83034285D01*
X169712142Y-83081904D01*
X169759761Y-83129523D01*
X169807380Y-83224761D01*
X169807380Y-83415238D01*
X169759761Y-83510476D01*
X169140714Y-82177142D02*
X169807380Y-82177142D01*
X169140714Y-82605714D02*
X169664523Y-82605714D01*
X169759761Y-82558095D01*
X169807380Y-82462857D01*
X169807380Y-82320000D01*
X169759761Y-82224761D01*
X169712142Y-82177142D01*
X169140714Y-81843809D02*
X169140714Y-81462857D01*
X168807380Y-81700952D02*
X169664523Y-81700952D01*
X169759761Y-81653333D01*
X169807380Y-81558095D01*
X169807380Y-81462857D01*
X171409761Y-86748571D02*
X171457380Y-86653333D01*
X171457380Y-86462857D01*
X171409761Y-86367619D01*
X171314523Y-86320000D01*
X171266904Y-86320000D01*
X171171666Y-86367619D01*
X171124047Y-86462857D01*
X171124047Y-86605714D01*
X171076428Y-86700952D01*
X170981190Y-86748571D01*
X170933571Y-86748571D01*
X170838333Y-86700952D01*
X170790714Y-86605714D01*
X170790714Y-86462857D01*
X170838333Y-86367619D01*
X171457380Y-85891428D02*
X170790714Y-85891428D01*
X170457380Y-85891428D02*
X170505000Y-85939047D01*
X170552619Y-85891428D01*
X170505000Y-85843809D01*
X170457380Y-85891428D01*
X170552619Y-85891428D01*
X170790714Y-84986666D02*
X171600238Y-84986666D01*
X171695476Y-85034285D01*
X171743095Y-85081904D01*
X171790714Y-85177142D01*
X171790714Y-85320000D01*
X171743095Y-85415238D01*
X171409761Y-84986666D02*
X171457380Y-85081904D01*
X171457380Y-85272380D01*
X171409761Y-85367619D01*
X171362142Y-85415238D01*
X171266904Y-85462857D01*
X170981190Y-85462857D01*
X170885952Y-85415238D01*
X170838333Y-85367619D01*
X170790714Y-85272380D01*
X170790714Y-85081904D01*
X170838333Y-84986666D01*
X170790714Y-84510476D02*
X171457380Y-84510476D01*
X170885952Y-84510476D02*
X170838333Y-84462857D01*
X170790714Y-84367619D01*
X170790714Y-84224761D01*
X170838333Y-84129523D01*
X170933571Y-84081904D01*
X171457380Y-84081904D01*
X171457380Y-83177142D02*
X170933571Y-83177142D01*
X170838333Y-83224761D01*
X170790714Y-83320000D01*
X170790714Y-83510476D01*
X170838333Y-83605714D01*
X171409761Y-83177142D02*
X171457380Y-83272380D01*
X171457380Y-83510476D01*
X171409761Y-83605714D01*
X171314523Y-83653333D01*
X171219285Y-83653333D01*
X171124047Y-83605714D01*
X171076428Y-83510476D01*
X171076428Y-83272380D01*
X171028809Y-83177142D01*
X171457380Y-82558095D02*
X171409761Y-82653333D01*
X171314523Y-82700952D01*
X170457380Y-82700952D01*
X170552619Y-81462857D02*
X170505000Y-81415238D01*
X170457380Y-81320000D01*
X170457380Y-81081904D01*
X170505000Y-80986666D01*
X170552619Y-80939047D01*
X170647857Y-80891428D01*
X170743095Y-80891428D01*
X170885952Y-80939047D01*
X171457380Y-81510476D01*
X171457380Y-80891428D01*
X124832619Y-81796190D02*
X125832619Y-81796190D01*
X125499285Y-82272380D02*
X124832619Y-82272380D01*
X125404047Y-82272380D02*
X125451666Y-82320000D01*
X125499285Y-82415238D01*
X125499285Y-82558095D01*
X125451666Y-82653333D01*
X125356428Y-82700952D01*
X124832619Y-82700952D01*
X125499285Y-83177142D02*
X124499285Y-83177142D01*
X125451666Y-83177142D02*
X125499285Y-83272380D01*
X125499285Y-83462857D01*
X125451666Y-83558095D01*
X125404047Y-83605714D01*
X125308809Y-83653333D01*
X125023095Y-83653333D01*
X124927857Y-83605714D01*
X124880238Y-83558095D01*
X124832619Y-83462857D01*
X124832619Y-83272380D01*
X124880238Y-83177142D01*
X125499285Y-84510476D02*
X124832619Y-84510476D01*
X125499285Y-84081904D02*
X124975476Y-84081904D01*
X124880238Y-84129523D01*
X124832619Y-84224761D01*
X124832619Y-84367619D01*
X124880238Y-84462857D01*
X124927857Y-84510476D01*
X125499285Y-84843809D02*
X125499285Y-85224761D01*
X125832619Y-84986666D02*
X124975476Y-84986666D01*
X124880238Y-85034285D01*
X124832619Y-85129523D01*
X124832619Y-85224761D01*
X123230238Y-80891428D02*
X123182619Y-80986666D01*
X123182619Y-81177142D01*
X123230238Y-81272380D01*
X123325476Y-81320000D01*
X123373095Y-81320000D01*
X123468333Y-81272380D01*
X123515952Y-81177142D01*
X123515952Y-81034285D01*
X123563571Y-80939047D01*
X123658809Y-80891428D01*
X123706428Y-80891428D01*
X123801666Y-80939047D01*
X123849285Y-81034285D01*
X123849285Y-81177142D01*
X123801666Y-81272380D01*
X123182619Y-81748571D02*
X123849285Y-81748571D01*
X124182619Y-81748571D02*
X124135000Y-81700952D01*
X124087380Y-81748571D01*
X124135000Y-81796190D01*
X124182619Y-81748571D01*
X124087380Y-81748571D01*
X123849285Y-82653333D02*
X123039761Y-82653333D01*
X122944523Y-82605714D01*
X122896904Y-82558095D01*
X122849285Y-82462857D01*
X122849285Y-82320000D01*
X122896904Y-82224761D01*
X123230238Y-82653333D02*
X123182619Y-82558095D01*
X123182619Y-82367619D01*
X123230238Y-82272380D01*
X123277857Y-82224761D01*
X123373095Y-82177142D01*
X123658809Y-82177142D01*
X123754047Y-82224761D01*
X123801666Y-82272380D01*
X123849285Y-82367619D01*
X123849285Y-82558095D01*
X123801666Y-82653333D01*
X123849285Y-83129523D02*
X123182619Y-83129523D01*
X123754047Y-83129523D02*
X123801666Y-83177142D01*
X123849285Y-83272380D01*
X123849285Y-83415238D01*
X123801666Y-83510476D01*
X123706428Y-83558095D01*
X123182619Y-83558095D01*
X123182619Y-84462857D02*
X123706428Y-84462857D01*
X123801666Y-84415238D01*
X123849285Y-84320000D01*
X123849285Y-84129523D01*
X123801666Y-84034285D01*
X123230238Y-84462857D02*
X123182619Y-84367619D01*
X123182619Y-84129523D01*
X123230238Y-84034285D01*
X123325476Y-83986666D01*
X123420714Y-83986666D01*
X123515952Y-84034285D01*
X123563571Y-84129523D01*
X123563571Y-84367619D01*
X123611190Y-84462857D01*
X123182619Y-85081904D02*
X123230238Y-84986666D01*
X123325476Y-84939047D01*
X124182619Y-84939047D01*
X124087380Y-86177142D02*
X124135000Y-86224761D01*
X124182619Y-86320000D01*
X124182619Y-86558095D01*
X124135000Y-86653333D01*
X124087380Y-86700952D01*
X123992142Y-86748571D01*
X123896904Y-86748571D01*
X123754047Y-86700952D01*
X123182619Y-86129523D01*
X123182619Y-86748571D01*
X125467619Y-46236190D02*
X126467619Y-46236190D01*
X126134285Y-46712380D02*
X125467619Y-46712380D01*
X126039047Y-46712380D02*
X126086666Y-46760000D01*
X126134285Y-46855238D01*
X126134285Y-46998095D01*
X126086666Y-47093333D01*
X125991428Y-47140952D01*
X125467619Y-47140952D01*
X126134285Y-47617142D02*
X125134285Y-47617142D01*
X126086666Y-47617142D02*
X126134285Y-47712380D01*
X126134285Y-47902857D01*
X126086666Y-47998095D01*
X126039047Y-48045714D01*
X125943809Y-48093333D01*
X125658095Y-48093333D01*
X125562857Y-48045714D01*
X125515238Y-47998095D01*
X125467619Y-47902857D01*
X125467619Y-47712380D01*
X125515238Y-47617142D01*
X126134285Y-48950476D02*
X125467619Y-48950476D01*
X126134285Y-48521904D02*
X125610476Y-48521904D01*
X125515238Y-48569523D01*
X125467619Y-48664761D01*
X125467619Y-48807619D01*
X125515238Y-48902857D01*
X125562857Y-48950476D01*
X126134285Y-49283809D02*
X126134285Y-49664761D01*
X126467619Y-49426666D02*
X125610476Y-49426666D01*
X125515238Y-49474285D01*
X125467619Y-49569523D01*
X125467619Y-49664761D01*
X123865238Y-45331428D02*
X123817619Y-45426666D01*
X123817619Y-45617142D01*
X123865238Y-45712380D01*
X123960476Y-45760000D01*
X124008095Y-45760000D01*
X124103333Y-45712380D01*
X124150952Y-45617142D01*
X124150952Y-45474285D01*
X124198571Y-45379047D01*
X124293809Y-45331428D01*
X124341428Y-45331428D01*
X124436666Y-45379047D01*
X124484285Y-45474285D01*
X124484285Y-45617142D01*
X124436666Y-45712380D01*
X123817619Y-46188571D02*
X124484285Y-46188571D01*
X124817619Y-46188571D02*
X124770000Y-46140952D01*
X124722380Y-46188571D01*
X124770000Y-46236190D01*
X124817619Y-46188571D01*
X124722380Y-46188571D01*
X124484285Y-47093333D02*
X123674761Y-47093333D01*
X123579523Y-47045714D01*
X123531904Y-46998095D01*
X123484285Y-46902857D01*
X123484285Y-46760000D01*
X123531904Y-46664761D01*
X123865238Y-47093333D02*
X123817619Y-46998095D01*
X123817619Y-46807619D01*
X123865238Y-46712380D01*
X123912857Y-46664761D01*
X124008095Y-46617142D01*
X124293809Y-46617142D01*
X124389047Y-46664761D01*
X124436666Y-46712380D01*
X124484285Y-46807619D01*
X124484285Y-46998095D01*
X124436666Y-47093333D01*
X124484285Y-47569523D02*
X123817619Y-47569523D01*
X124389047Y-47569523D02*
X124436666Y-47617142D01*
X124484285Y-47712380D01*
X124484285Y-47855238D01*
X124436666Y-47950476D01*
X124341428Y-47998095D01*
X123817619Y-47998095D01*
X123817619Y-48902857D02*
X124341428Y-48902857D01*
X124436666Y-48855238D01*
X124484285Y-48760000D01*
X124484285Y-48569523D01*
X124436666Y-48474285D01*
X123865238Y-48902857D02*
X123817619Y-48807619D01*
X123817619Y-48569523D01*
X123865238Y-48474285D01*
X123960476Y-48426666D01*
X124055714Y-48426666D01*
X124150952Y-48474285D01*
X124198571Y-48569523D01*
X124198571Y-48807619D01*
X124246190Y-48902857D01*
X123817619Y-49521904D02*
X123865238Y-49426666D01*
X123960476Y-49379047D01*
X124817619Y-49379047D01*
X123817619Y-51188571D02*
X123817619Y-50617142D01*
X123817619Y-50902857D02*
X124817619Y-50902857D01*
X124674761Y-50807619D01*
X124579523Y-50712380D01*
X124531904Y-50617142D01*
X168807380Y-50283809D02*
X168807380Y-50093333D01*
X168855000Y-49998095D01*
X168950238Y-49902857D01*
X169140714Y-49855238D01*
X169474047Y-49855238D01*
X169664523Y-49902857D01*
X169759761Y-49998095D01*
X169807380Y-50093333D01*
X169807380Y-50283809D01*
X169759761Y-50379047D01*
X169664523Y-50474285D01*
X169474047Y-50521904D01*
X169140714Y-50521904D01*
X168950238Y-50474285D01*
X168855000Y-50379047D01*
X168807380Y-50283809D01*
X169140714Y-48998095D02*
X169807380Y-48998095D01*
X169140714Y-49426666D02*
X169664523Y-49426666D01*
X169759761Y-49379047D01*
X169807380Y-49283809D01*
X169807380Y-49140952D01*
X169759761Y-49045714D01*
X169712142Y-48998095D01*
X169140714Y-48664761D02*
X169140714Y-48283809D01*
X168807380Y-48521904D02*
X169664523Y-48521904D01*
X169759761Y-48474285D01*
X169807380Y-48379047D01*
X169807380Y-48283809D01*
X169140714Y-47950476D02*
X170140714Y-47950476D01*
X169188333Y-47950476D02*
X169140714Y-47855238D01*
X169140714Y-47664761D01*
X169188333Y-47569523D01*
X169235952Y-47521904D01*
X169331190Y-47474285D01*
X169616904Y-47474285D01*
X169712142Y-47521904D01*
X169759761Y-47569523D01*
X169807380Y-47664761D01*
X169807380Y-47855238D01*
X169759761Y-47950476D01*
X169140714Y-46617142D02*
X169807380Y-46617142D01*
X169140714Y-47045714D02*
X169664523Y-47045714D01*
X169759761Y-46998095D01*
X169807380Y-46902857D01*
X169807380Y-46760000D01*
X169759761Y-46664761D01*
X169712142Y-46617142D01*
X169140714Y-46283809D02*
X169140714Y-45902857D01*
X168807380Y-46140952D02*
X169664523Y-46140952D01*
X169759761Y-46093333D01*
X169807380Y-45998095D01*
X169807380Y-45902857D01*
X171409761Y-51188571D02*
X171457380Y-51093333D01*
X171457380Y-50902857D01*
X171409761Y-50807619D01*
X171314523Y-50760000D01*
X171266904Y-50760000D01*
X171171666Y-50807619D01*
X171124047Y-50902857D01*
X171124047Y-51045714D01*
X171076428Y-51140952D01*
X170981190Y-51188571D01*
X170933571Y-51188571D01*
X170838333Y-51140952D01*
X170790714Y-51045714D01*
X170790714Y-50902857D01*
X170838333Y-50807619D01*
X171457380Y-50331428D02*
X170790714Y-50331428D01*
X170457380Y-50331428D02*
X170505000Y-50379047D01*
X170552619Y-50331428D01*
X170505000Y-50283809D01*
X170457380Y-50331428D01*
X170552619Y-50331428D01*
X170790714Y-49426666D02*
X171600238Y-49426666D01*
X171695476Y-49474285D01*
X171743095Y-49521904D01*
X171790714Y-49617142D01*
X171790714Y-49760000D01*
X171743095Y-49855238D01*
X171409761Y-49426666D02*
X171457380Y-49521904D01*
X171457380Y-49712380D01*
X171409761Y-49807619D01*
X171362142Y-49855238D01*
X171266904Y-49902857D01*
X170981190Y-49902857D01*
X170885952Y-49855238D01*
X170838333Y-49807619D01*
X170790714Y-49712380D01*
X170790714Y-49521904D01*
X170838333Y-49426666D01*
X170790714Y-48950476D02*
X171457380Y-48950476D01*
X170885952Y-48950476D02*
X170838333Y-48902857D01*
X170790714Y-48807619D01*
X170790714Y-48664761D01*
X170838333Y-48569523D01*
X170933571Y-48521904D01*
X171457380Y-48521904D01*
X171457380Y-47617142D02*
X170933571Y-47617142D01*
X170838333Y-47664761D01*
X170790714Y-47760000D01*
X170790714Y-47950476D01*
X170838333Y-48045714D01*
X171409761Y-47617142D02*
X171457380Y-47712380D01*
X171457380Y-47950476D01*
X171409761Y-48045714D01*
X171314523Y-48093333D01*
X171219285Y-48093333D01*
X171124047Y-48045714D01*
X171076428Y-47950476D01*
X171076428Y-47712380D01*
X171028809Y-47617142D01*
X171457380Y-46998095D02*
X171409761Y-47093333D01*
X171314523Y-47140952D01*
X170457380Y-47140952D01*
X171457380Y-45331428D02*
X171457380Y-45902857D01*
X171457380Y-45617142D02*
X170457380Y-45617142D01*
X170600238Y-45712380D01*
X170695476Y-45807619D01*
X170743095Y-45902857D01*
D13*
G04 #@! TO.C,L2*
X139065000Y-76581000D02*
X140335000Y-88011000D01*
X141605000Y-76581000D02*
X142875000Y-88011000D01*
X144145000Y-76581000D02*
X145415000Y-88011000D01*
X140335000Y-88011000D02*
X140335000Y-89281000D01*
X142875000Y-88011000D02*
X142875000Y-89281000D01*
X145415000Y-88011000D02*
X145415000Y-89281000D01*
X128905000Y-90551000D02*
X128905000Y-75311000D01*
X156845000Y-90551000D02*
X128905000Y-90551000D01*
X156845000Y-75311000D02*
X156845000Y-90551000D01*
X128905000Y-75311000D02*
X156845000Y-75311000D01*
X129540000Y-74676000D02*
X156210000Y-74676000D01*
X128270000Y-75946000D02*
X129540000Y-74676000D01*
X128270000Y-89916000D02*
X128270000Y-75946000D01*
X128905000Y-90551000D02*
X128270000Y-89916000D01*
X129540000Y-91186000D02*
X128905000Y-90551000D01*
X156210000Y-91186000D02*
X129540000Y-91186000D01*
X157480000Y-89916000D02*
X156210000Y-91186000D01*
X157480000Y-75946000D02*
X157480000Y-89916000D01*
X156845000Y-75311000D02*
X157480000Y-75946000D01*
X156210000Y-74676000D02*
X156845000Y-75311000D01*
X156210000Y-75946000D02*
X156210000Y-89281000D01*
X129540000Y-75946000D02*
X156210000Y-75946000D01*
X129540000Y-89916000D02*
X129540000Y-75946000D01*
X156210000Y-89916000D02*
X129540000Y-89916000D01*
X156210000Y-89281000D02*
X156210000Y-89916000D01*
X137795000Y-88011000D02*
X137795000Y-89281000D01*
X135255000Y-88011000D02*
X135255000Y-89281000D01*
X132715000Y-88011000D02*
X132715000Y-89281000D01*
X136525000Y-76581000D02*
X137795000Y-88011000D01*
X133985000Y-76581000D02*
X135255000Y-88011000D01*
X131445000Y-76581000D02*
X132715000Y-88011000D01*
X153035000Y-88011000D02*
X153035000Y-89281000D01*
X150495000Y-88011000D02*
X150495000Y-89281000D01*
X147955000Y-88011000D02*
X147955000Y-89281000D01*
X151765000Y-76581000D02*
X153035000Y-88011000D01*
X149225000Y-76581000D02*
X150495000Y-88011000D01*
X146685000Y-76581000D02*
X147955000Y-88011000D01*
X154305000Y-76581000D02*
X155575000Y-88011000D01*
X155575000Y-88011000D02*
X155575000Y-89281000D01*
X129540000Y-76581000D02*
X130810000Y-88011000D01*
X130810000Y-88011000D02*
X130810000Y-89281000D01*
G04 #@! TO.C,L1*
X139065000Y-42926000D02*
X140335000Y-54356000D01*
X141605000Y-42926000D02*
X142875000Y-54356000D01*
X144145000Y-42926000D02*
X145415000Y-54356000D01*
X140335000Y-54356000D02*
X140335000Y-55626000D01*
X142875000Y-54356000D02*
X142875000Y-55626000D01*
X145415000Y-54356000D02*
X145415000Y-55626000D01*
X128905000Y-56896000D02*
X128905000Y-41656000D01*
X156845000Y-56896000D02*
X128905000Y-56896000D01*
X156845000Y-41656000D02*
X156845000Y-56896000D01*
X128905000Y-41656000D02*
X156845000Y-41656000D01*
X129540000Y-41021000D02*
X156210000Y-41021000D01*
X128270000Y-42291000D02*
X129540000Y-41021000D01*
X128270000Y-56261000D02*
X128270000Y-42291000D01*
X128905000Y-56896000D02*
X128270000Y-56261000D01*
X129540000Y-57531000D02*
X128905000Y-56896000D01*
X156210000Y-57531000D02*
X129540000Y-57531000D01*
X157480000Y-56261000D02*
X156210000Y-57531000D01*
X157480000Y-42291000D02*
X157480000Y-56261000D01*
X156845000Y-41656000D02*
X157480000Y-42291000D01*
X156210000Y-41021000D02*
X156845000Y-41656000D01*
X156210000Y-42291000D02*
X156210000Y-55626000D01*
X129540000Y-42291000D02*
X156210000Y-42291000D01*
X129540000Y-56261000D02*
X129540000Y-42291000D01*
X156210000Y-56261000D02*
X129540000Y-56261000D01*
X156210000Y-55626000D02*
X156210000Y-56261000D01*
X137795000Y-54356000D02*
X137795000Y-55626000D01*
X135255000Y-54356000D02*
X135255000Y-55626000D01*
X132715000Y-54356000D02*
X132715000Y-55626000D01*
X136525000Y-42926000D02*
X137795000Y-54356000D01*
X133985000Y-42926000D02*
X135255000Y-54356000D01*
X131445000Y-42926000D02*
X132715000Y-54356000D01*
X153035000Y-54356000D02*
X153035000Y-55626000D01*
X150495000Y-54356000D02*
X150495000Y-55626000D01*
X147955000Y-54356000D02*
X147955000Y-55626000D01*
X151765000Y-42926000D02*
X153035000Y-54356000D01*
X149225000Y-42926000D02*
X150495000Y-54356000D01*
X146685000Y-42926000D02*
X147955000Y-54356000D01*
X154305000Y-42926000D02*
X155575000Y-54356000D01*
X155575000Y-54356000D02*
X155575000Y-55626000D01*
X129540000Y-42926000D02*
X130810000Y-54356000D01*
X130810000Y-54356000D02*
X130810000Y-55626000D01*
D12*
G04 #@! TO.C,C1*
X156376500Y-64793500D02*
X156376500Y-64793500D01*
X138376500Y-59793500D02*
X138376500Y-64793500D01*
X138376500Y-64793500D02*
X156376500Y-64793500D01*
X156376500Y-64793500D02*
X156376500Y-59793500D01*
X156376500Y-59793500D02*
X138376500Y-59793500D01*
G04 #@! TO.C,C2*
X138327000Y-67350000D02*
X138327000Y-67350000D01*
X156327000Y-72350000D02*
X156327000Y-67350000D01*
X156327000Y-67350000D02*
X138327000Y-67350000D01*
X138327000Y-67350000D02*
X138327000Y-72350000D01*
X138327000Y-72350000D02*
X156327000Y-72350000D01*
G04 #@! TO.C,R1*
X164225000Y-60590000D02*
X164225000Y-59390000D01*
X165975000Y-59390000D02*
X165975000Y-60590000D01*
G04 #@! TO.C,R2*
X164225000Y-72674000D02*
X164225000Y-71474000D01*
X165975000Y-71474000D02*
X165975000Y-72674000D01*
G04 #@! TO.C,C3*
X162378500Y-49958500D02*
X162378500Y-47958500D01*
X160328500Y-47958500D02*
X160328500Y-49958500D01*
G04 #@! TO.C,C4*
X160138000Y-82058000D02*
X160138000Y-84058000D01*
X162188000Y-84058000D02*
X162188000Y-82058000D01*
G04 #@! TO.C,C5*
X165950000Y-48506000D02*
X165950000Y-47506000D01*
X164250000Y-47506000D02*
X164250000Y-48506000D01*
G04 #@! TO.C,C6*
X164250000Y-83558000D02*
X164250000Y-84558000D01*
X165950000Y-84558000D02*
X165950000Y-83558000D01*
D14*
G04 #@! TO.C,G\002A\002A\002A*
G36*
X162455344Y-62967834D02*
X162469623Y-62970116D01*
X162481101Y-62973877D01*
X162485293Y-62975752D01*
X162506559Y-62991829D01*
X162518547Y-63013452D01*
X162521409Y-63037664D01*
X162515300Y-63061507D01*
X162500373Y-63082024D01*
X162479083Y-63095380D01*
X162462312Y-63099916D01*
X162436915Y-63104230D01*
X162406960Y-63107704D01*
X162388352Y-63109138D01*
X162358276Y-63111147D01*
X162330925Y-63113286D01*
X162310077Y-63115244D01*
X162301941Y-63116251D01*
X162282008Y-63119311D01*
X162277412Y-63048963D01*
X162275860Y-63020386D01*
X162275168Y-62996733D01*
X162275376Y-62980719D01*
X162276295Y-62975137D01*
X162283558Y-62973672D01*
X162301159Y-62972007D01*
X162326742Y-62970315D01*
X162357949Y-62968766D01*
X162371022Y-62968243D01*
X162408512Y-62967060D01*
X162435797Y-62966870D01*
X162455344Y-62967834D01*
X162455344Y-62967834D01*
G37*
X162455344Y-62967834D02*
X162469623Y-62970116D01*
X162481101Y-62973877D01*
X162485293Y-62975752D01*
X162506559Y-62991829D01*
X162518547Y-63013452D01*
X162521409Y-63037664D01*
X162515300Y-63061507D01*
X162500373Y-63082024D01*
X162479083Y-63095380D01*
X162462312Y-63099916D01*
X162436915Y-63104230D01*
X162406960Y-63107704D01*
X162388352Y-63109138D01*
X162358276Y-63111147D01*
X162330925Y-63113286D01*
X162310077Y-63115244D01*
X162301941Y-63116251D01*
X162282008Y-63119311D01*
X162277412Y-63048963D01*
X162275860Y-63020386D01*
X162275168Y-62996733D01*
X162275376Y-62980719D01*
X162276295Y-62975137D01*
X162283558Y-62973672D01*
X162301159Y-62972007D01*
X162326742Y-62970315D01*
X162357949Y-62968766D01*
X162371022Y-62968243D01*
X162408512Y-62967060D01*
X162435797Y-62966870D01*
X162455344Y-62967834D01*
G36*
X163301427Y-63042691D02*
X163332554Y-63055533D01*
X163369562Y-63078480D01*
X163396218Y-63106503D01*
X163413393Y-63141103D01*
X163421958Y-63183784D01*
X163423321Y-63211993D01*
X163418911Y-63266090D01*
X163405624Y-63315929D01*
X163384405Y-63359939D01*
X163356195Y-63396550D01*
X163321936Y-63424192D01*
X163286352Y-63440210D01*
X163258536Y-63446885D01*
X163233519Y-63448218D01*
X163206614Y-63443956D01*
X163174073Y-63434167D01*
X163130505Y-63413659D01*
X163096485Y-63384917D01*
X163071565Y-63347539D01*
X163067601Y-63338917D01*
X163060764Y-63320957D01*
X163056958Y-63303885D01*
X163055675Y-63283478D01*
X163056409Y-63255511D01*
X163056750Y-63248693D01*
X163064456Y-63192073D01*
X163080639Y-63142914D01*
X163104329Y-63101896D01*
X163134555Y-63069698D01*
X163170348Y-63046999D01*
X163210737Y-63034479D01*
X163254754Y-63032817D01*
X163301427Y-63042691D01*
X163301427Y-63042691D01*
G37*
X163301427Y-63042691D02*
X163332554Y-63055533D01*
X163369562Y-63078480D01*
X163396218Y-63106503D01*
X163413393Y-63141103D01*
X163421958Y-63183784D01*
X163423321Y-63211993D01*
X163418911Y-63266090D01*
X163405624Y-63315929D01*
X163384405Y-63359939D01*
X163356195Y-63396550D01*
X163321936Y-63424192D01*
X163286352Y-63440210D01*
X163258536Y-63446885D01*
X163233519Y-63448218D01*
X163206614Y-63443956D01*
X163174073Y-63434167D01*
X163130505Y-63413659D01*
X163096485Y-63384917D01*
X163071565Y-63347539D01*
X163067601Y-63338917D01*
X163060764Y-63320957D01*
X163056958Y-63303885D01*
X163055675Y-63283478D01*
X163056409Y-63255511D01*
X163056750Y-63248693D01*
X163064456Y-63192073D01*
X163080639Y-63142914D01*
X163104329Y-63101896D01*
X163134555Y-63069698D01*
X163170348Y-63046999D01*
X163210737Y-63034479D01*
X163254754Y-63032817D01*
X163301427Y-63042691D01*
G36*
X165080333Y-64895116D02*
X165094762Y-64938852D01*
X165103051Y-64973071D01*
X165105070Y-64999443D01*
X165100690Y-65019637D01*
X165089782Y-65035325D01*
X165072217Y-65048175D01*
X165068349Y-65050310D01*
X165040896Y-65060783D01*
X165017419Y-65059897D01*
X164995752Y-65047409D01*
X164989379Y-65041462D01*
X164977707Y-65026705D01*
X164966228Y-65005441D01*
X164953886Y-64975489D01*
X164944036Y-64947800D01*
X164934645Y-64919440D01*
X164927297Y-64895676D01*
X164922706Y-64878937D01*
X164921588Y-64871656D01*
X164921623Y-64871600D01*
X164928265Y-64868302D01*
X164944338Y-64861825D01*
X164967281Y-64853167D01*
X164989209Y-64845219D01*
X165054316Y-64822014D01*
X165080333Y-64895116D01*
X165080333Y-64895116D01*
G37*
X165080333Y-64895116D02*
X165094762Y-64938852D01*
X165103051Y-64973071D01*
X165105070Y-64999443D01*
X165100690Y-65019637D01*
X165089782Y-65035325D01*
X165072217Y-65048175D01*
X165068349Y-65050310D01*
X165040896Y-65060783D01*
X165017419Y-65059897D01*
X164995752Y-65047409D01*
X164989379Y-65041462D01*
X164977707Y-65026705D01*
X164966228Y-65005441D01*
X164953886Y-64975489D01*
X164944036Y-64947800D01*
X164934645Y-64919440D01*
X164927297Y-64895676D01*
X164922706Y-64878937D01*
X164921588Y-64871656D01*
X164921623Y-64871600D01*
X164928265Y-64868302D01*
X164944338Y-64861825D01*
X164967281Y-64853167D01*
X164989209Y-64845219D01*
X165054316Y-64822014D01*
X165080333Y-64895116D01*
G36*
X162634797Y-63853508D02*
X162696804Y-63855086D01*
X162752251Y-63858093D01*
X162804196Y-63862825D01*
X162855693Y-63869579D01*
X162909800Y-63878650D01*
X162969574Y-63890334D01*
X162988082Y-63894185D01*
X163143294Y-63933206D01*
X163293837Y-63983763D01*
X163439180Y-64045387D01*
X163578789Y-64117604D01*
X163712134Y-64199946D01*
X163838681Y-64291939D01*
X163957897Y-64393114D01*
X164069250Y-64502999D01*
X164172208Y-64621123D01*
X164266239Y-64747015D01*
X164350809Y-64880204D01*
X164425386Y-65020219D01*
X164489438Y-65166588D01*
X164519917Y-65249425D01*
X164565599Y-65401631D01*
X164599247Y-65557043D01*
X164620833Y-65714720D01*
X164630327Y-65873724D01*
X164627700Y-66033113D01*
X164612923Y-66191948D01*
X164585967Y-66349290D01*
X164557611Y-66466218D01*
X164510299Y-66615411D01*
X164451204Y-66761584D01*
X164381066Y-66903350D01*
X164300620Y-67039322D01*
X164210605Y-67168112D01*
X164134496Y-67262375D01*
X164106030Y-67294138D01*
X164071047Y-67331096D01*
X164031875Y-67370966D01*
X163990843Y-67411462D01*
X163950281Y-67450301D01*
X163912516Y-67485199D01*
X163879879Y-67513872D01*
X163868100Y-67523639D01*
X163736795Y-67621874D01*
X163599696Y-67708834D01*
X163457049Y-67784413D01*
X163309103Y-67848503D01*
X163156107Y-67901000D01*
X162998310Y-67941797D01*
X162835960Y-67970788D01*
X162813545Y-67973812D01*
X162776573Y-67977600D01*
X162730113Y-67980807D01*
X162677099Y-67983369D01*
X162620466Y-67985222D01*
X162563148Y-67986302D01*
X162508080Y-67986544D01*
X162458194Y-67985883D01*
X162416425Y-67984256D01*
X162398075Y-67982935D01*
X162234653Y-67962149D01*
X162075187Y-67929527D01*
X161920165Y-67885335D01*
X161770073Y-67829839D01*
X161625398Y-67763306D01*
X161486626Y-67686003D01*
X161441494Y-67656067D01*
X162198050Y-67656067D01*
X162203914Y-67657108D01*
X162219596Y-67658508D01*
X162242225Y-67660029D01*
X162253612Y-67660674D01*
X162303391Y-67666458D01*
X162349945Y-67678905D01*
X162395435Y-67699040D01*
X162442022Y-67727884D01*
X162491867Y-67766462D01*
X162510058Y-67782080D01*
X162563175Y-67828676D01*
X162604450Y-67790848D01*
X162629326Y-67769179D01*
X162656713Y-67747063D01*
X162681151Y-67728887D01*
X162683704Y-67727126D01*
X162736074Y-67695689D01*
X162786489Y-67674784D01*
X162838052Y-67663294D01*
X162868796Y-67660546D01*
X162926767Y-67657802D01*
X162899333Y-67606138D01*
X162878598Y-67563948D01*
X162863382Y-67524585D01*
X162852948Y-67484738D01*
X162846557Y-67441095D01*
X162843471Y-67390343D01*
X162842890Y-67352887D01*
X162842575Y-67252899D01*
X162780662Y-67252874D01*
X162718750Y-67252850D01*
X162718750Y-67337776D01*
X162717948Y-67384089D01*
X162715486Y-67418844D01*
X162711275Y-67443085D01*
X162709470Y-67449002D01*
X162690199Y-67486699D01*
X162663108Y-67516251D01*
X162630237Y-67537184D01*
X162593626Y-67549023D01*
X162555315Y-67551296D01*
X162517344Y-67543527D01*
X162481753Y-67525244D01*
X162460281Y-67506904D01*
X162444787Y-67489688D01*
X162433434Y-67472982D01*
X162425522Y-67454305D01*
X162420353Y-67431175D01*
X162417225Y-67401113D01*
X162415440Y-67361638D01*
X162415035Y-67346512D01*
X162412785Y-67252850D01*
X162283326Y-67252850D01*
X162285849Y-67315685D01*
X162284678Y-67390404D01*
X162275484Y-67462676D01*
X162258804Y-67530034D01*
X162235172Y-67590012D01*
X162220500Y-67617156D01*
X162209293Y-67635985D01*
X162201247Y-67649923D01*
X162198053Y-67656035D01*
X162198050Y-67656067D01*
X161441494Y-67656067D01*
X161354244Y-67598196D01*
X161228740Y-67500153D01*
X161110598Y-67392139D01*
X161000308Y-67274421D01*
X160916313Y-67171159D01*
X160824398Y-67040237D01*
X160742954Y-66902519D01*
X160672319Y-66758873D01*
X160612837Y-66610164D01*
X160564847Y-66457259D01*
X160528691Y-66301026D01*
X160504710Y-66142329D01*
X160502285Y-66119375D01*
X160498990Y-66075806D01*
X160496698Y-66023253D01*
X160495408Y-65965020D01*
X160495121Y-65904409D01*
X160495839Y-65844724D01*
X160497560Y-65789269D01*
X160500287Y-65741347D01*
X160502222Y-65719325D01*
X160505369Y-65697100D01*
X161336430Y-65697100D01*
X161336858Y-65811384D01*
X161346574Y-65919401D01*
X161365959Y-66023936D01*
X161395395Y-66127775D01*
X161395466Y-66127989D01*
X161440128Y-66242969D01*
X161495552Y-66351860D01*
X161561044Y-66454058D01*
X161635910Y-66548960D01*
X161719458Y-66635960D01*
X161810995Y-66714455D01*
X161909826Y-66783840D01*
X162015260Y-66843513D01*
X162126602Y-66892868D01*
X162243160Y-66931301D01*
X162344100Y-66954611D01*
X162370513Y-66959524D01*
X162392150Y-66963490D01*
X162406024Y-66965964D01*
X162409337Y-66966501D01*
X162410846Y-66960698D01*
X162411965Y-66944236D01*
X162412636Y-66919153D01*
X162412798Y-66887485D01*
X162412512Y-66858232D01*
X162410775Y-66749364D01*
X162356800Y-66738389D01*
X162253687Y-66711055D01*
X162153631Y-66672035D01*
X162057729Y-66622191D01*
X161967079Y-66562384D01*
X161882780Y-66493476D01*
X161805929Y-66416329D01*
X161737624Y-66331805D01*
X161724833Y-66311953D01*
X161835992Y-66311953D01*
X161839089Y-66343812D01*
X161852235Y-66373792D01*
X161868834Y-66393403D01*
X161876604Y-66399818D01*
X161885489Y-66405157D01*
X161896663Y-66409520D01*
X161911298Y-66413002D01*
X161930567Y-66415703D01*
X161955643Y-66417720D01*
X161987699Y-66419151D01*
X162027908Y-66420093D01*
X162077443Y-66420644D01*
X162137477Y-66420902D01*
X162199637Y-66420964D01*
X162464750Y-66421000D01*
X162464750Y-66914754D01*
X162464831Y-67008411D01*
X162465069Y-67094279D01*
X162465457Y-67171771D01*
X162465989Y-67240300D01*
X162466657Y-67299276D01*
X162467453Y-67348113D01*
X162468372Y-67386221D01*
X162469405Y-67413015D01*
X162470546Y-67427904D01*
X162470974Y-67430213D01*
X162481456Y-67452319D01*
X162498292Y-67473968D01*
X162517391Y-67490307D01*
X162525075Y-67494407D01*
X162548710Y-67499497D01*
X162577329Y-67499173D01*
X162604621Y-67493825D01*
X162617090Y-67488718D01*
X162636069Y-67473551D01*
X162652284Y-67451848D01*
X162653504Y-67449619D01*
X162667950Y-67422302D01*
X162667950Y-66966842D01*
X162718451Y-66966842D01*
X162739238Y-66963138D01*
X162754538Y-66960298D01*
X162778328Y-66955753D01*
X162806639Y-66950266D01*
X162821945Y-66947270D01*
X162912267Y-66924909D01*
X163005412Y-66893140D01*
X163097447Y-66853305D01*
X163098397Y-66852847D01*
X163209336Y-66792463D01*
X163312115Y-66722530D01*
X163406351Y-66643542D01*
X163491661Y-66555992D01*
X163567664Y-66460370D01*
X163633976Y-66357170D01*
X163690214Y-66246884D01*
X163735997Y-66130005D01*
X163770941Y-66007023D01*
X163777035Y-65979675D01*
X163782651Y-65952417D01*
X163786926Y-65928849D01*
X163790043Y-65906528D01*
X163792185Y-65883012D01*
X163793536Y-65855857D01*
X163794279Y-65822622D01*
X163794597Y-65780863D01*
X163794665Y-65744725D01*
X163794425Y-65687287D01*
X163793410Y-65639758D01*
X163791320Y-65599357D01*
X163787858Y-65563300D01*
X163782723Y-65528805D01*
X163775618Y-65493091D01*
X163766243Y-65453376D01*
X163761234Y-65433575D01*
X163749832Y-65389125D01*
X163664503Y-65387407D01*
X163579175Y-65385690D01*
X163543835Y-65448884D01*
X163556265Y-65498379D01*
X163577107Y-65607150D01*
X163585657Y-65717467D01*
X163582030Y-65828159D01*
X163566340Y-65938058D01*
X163538703Y-66045992D01*
X163499232Y-66150793D01*
X163490442Y-66170175D01*
X163452462Y-66244521D01*
X163410520Y-66311962D01*
X163362076Y-66376149D01*
X163304595Y-66440736D01*
X163296971Y-66448685D01*
X163214971Y-66525030D01*
X163126330Y-66591504D01*
X163032122Y-66647507D01*
X162933423Y-66692439D01*
X162831309Y-66725697D01*
X162780053Y-66737610D01*
X162721925Y-66749348D01*
X162718451Y-66966842D01*
X162667950Y-66966842D01*
X162667950Y-66421000D01*
X162933062Y-66420848D01*
X162990865Y-66420679D01*
X163045516Y-66420260D01*
X163095531Y-66419621D01*
X163139424Y-66418793D01*
X163175710Y-66417805D01*
X163202904Y-66416689D01*
X163219520Y-66415474D01*
X163223037Y-66414930D01*
X163245694Y-66405395D01*
X163267866Y-66389109D01*
X163270347Y-66386715D01*
X163283123Y-66372569D01*
X163290284Y-66359287D01*
X163293836Y-66341854D01*
X163295254Y-66324370D01*
X163295901Y-66300176D01*
X163293520Y-66283521D01*
X163287102Y-66269405D01*
X163282868Y-66262895D01*
X163267136Y-66245341D01*
X163248230Y-66230867D01*
X163245899Y-66229557D01*
X163241899Y-66227663D01*
X163236953Y-66225984D01*
X163230317Y-66224508D01*
X163221245Y-66223220D01*
X163208995Y-66222109D01*
X163192821Y-66221162D01*
X163171981Y-66220366D01*
X163145728Y-66219709D01*
X163113321Y-66219177D01*
X163074013Y-66218757D01*
X163027062Y-66218438D01*
X162971723Y-66218206D01*
X162907252Y-66218048D01*
X162832904Y-66217953D01*
X162747936Y-66217906D01*
X162651604Y-66217895D01*
X162566449Y-66217904D01*
X161909125Y-66218008D01*
X161884386Y-66232191D01*
X161858902Y-66253434D01*
X161842684Y-66280924D01*
X161835992Y-66311953D01*
X161724833Y-66311953D01*
X161678964Y-66240766D01*
X161648327Y-66182280D01*
X161606058Y-66081105D01*
X161575751Y-65978113D01*
X161557075Y-65871828D01*
X161549698Y-65760773D01*
X161549544Y-65741550D01*
X161550744Y-65691408D01*
X161554113Y-65639941D01*
X161559301Y-65589983D01*
X161565962Y-65544367D01*
X161573746Y-65505929D01*
X161581829Y-65478736D01*
X161584825Y-65466455D01*
X161582808Y-65453908D01*
X161574808Y-65436685D01*
X161571041Y-65429850D01*
X161553525Y-65398662D01*
X161466896Y-65398656D01*
X161380268Y-65398650D01*
X161369904Y-65441512D01*
X161356606Y-65502063D01*
X161347100Y-65559540D01*
X161340740Y-65618884D01*
X161336877Y-65685039D01*
X161336430Y-65697100D01*
X160505369Y-65697100D01*
X160525291Y-65556434D01*
X160560200Y-65397822D01*
X160603283Y-65255183D01*
X160702314Y-65255183D01*
X160710666Y-65285649D01*
X160729455Y-65316139D01*
X160755461Y-65337487D01*
X160790098Y-65350653D01*
X160811946Y-65354581D01*
X160826350Y-65355625D01*
X160852131Y-65356614D01*
X160887962Y-65357526D01*
X160932519Y-65358344D01*
X160984479Y-65359047D01*
X161042516Y-65359618D01*
X161105305Y-65360037D01*
X161171524Y-65360284D01*
X161211615Y-65360342D01*
X161568205Y-65360550D01*
X162029775Y-66166890D01*
X162331935Y-66167000D01*
X162329150Y-66162237D01*
X162896601Y-66162237D01*
X162902384Y-66164597D01*
X162917636Y-66166301D01*
X162939131Y-66166997D01*
X162940452Y-66167000D01*
X162984355Y-66167000D01*
X163238494Y-65908978D01*
X163292453Y-65854173D01*
X163338145Y-65807675D01*
X163376226Y-65768755D01*
X163407351Y-65736682D01*
X163432175Y-65710726D01*
X163451354Y-65690157D01*
X163465544Y-65674244D01*
X163475400Y-65662259D01*
X163481577Y-65653470D01*
X163484732Y-65647147D01*
X163485519Y-65642561D01*
X163484594Y-65638980D01*
X163483146Y-65636477D01*
X163474706Y-65626866D01*
X163464163Y-65625292D01*
X163453434Y-65627799D01*
X163435155Y-65631673D01*
X163417125Y-65633416D01*
X163403442Y-65632865D01*
X163398200Y-65629979D01*
X163401264Y-65623726D01*
X163409888Y-65608019D01*
X163423217Y-65584365D01*
X163440397Y-65554270D01*
X163460572Y-65519243D01*
X163479162Y-65487191D01*
X163560125Y-65348025D01*
X163931600Y-65347798D01*
X164009924Y-65347731D01*
X164076574Y-65347612D01*
X164132578Y-65347411D01*
X164178962Y-65347095D01*
X164216751Y-65346635D01*
X164246974Y-65345998D01*
X164270656Y-65345153D01*
X164288824Y-65344070D01*
X164302505Y-65342716D01*
X164312725Y-65341061D01*
X164320511Y-65339073D01*
X164326889Y-65336722D01*
X164329212Y-65335701D01*
X164359028Y-65315970D01*
X164379871Y-65289484D01*
X164391561Y-65258648D01*
X164393917Y-65225871D01*
X164386761Y-65193558D01*
X164369913Y-65164117D01*
X164343791Y-65140348D01*
X164316711Y-65122425D01*
X163414341Y-65122425D01*
X163301300Y-65312925D01*
X163274662Y-65357814D01*
X163249934Y-65399479D01*
X163227900Y-65436599D01*
X163209346Y-65467851D01*
X163195057Y-65491914D01*
X163185816Y-65507466D01*
X163182551Y-65512950D01*
X163176874Y-65515621D01*
X163170669Y-65506198D01*
X163164153Y-65485263D01*
X163157542Y-65453400D01*
X163155071Y-65438680D01*
X163150761Y-65414595D01*
X163146480Y-65400249D01*
X163140915Y-65392751D01*
X163132749Y-65389209D01*
X163132548Y-65389158D01*
X163119864Y-65387278D01*
X163114375Y-65388257D01*
X163112251Y-65394644D01*
X163107076Y-65412001D01*
X163099206Y-65439066D01*
X163088995Y-65474574D01*
X163076800Y-65517264D01*
X163062975Y-65565870D01*
X163047877Y-65619130D01*
X163031861Y-65675780D01*
X163015282Y-65734557D01*
X162998496Y-65794196D01*
X162981858Y-65853435D01*
X162965724Y-65911010D01*
X162950450Y-65965658D01*
X162936390Y-66016114D01*
X162923901Y-66061116D01*
X162913338Y-66099400D01*
X162905057Y-66129703D01*
X162899412Y-66150760D01*
X162896760Y-66161309D01*
X162896601Y-66162237D01*
X162329150Y-66162237D01*
X162314297Y-66136837D01*
X162308495Y-66126960D01*
X162296735Y-66106979D01*
X162279509Y-66077732D01*
X162257312Y-66040054D01*
X162230635Y-65994783D01*
X162199971Y-65942753D01*
X162165814Y-65884803D01*
X162128656Y-65821767D01*
X162088991Y-65754483D01*
X162047311Y-65683787D01*
X162006488Y-65614550D01*
X161716317Y-65122425D01*
X161253921Y-65122425D01*
X161166224Y-65122431D01*
X161090321Y-65122467D01*
X161025304Y-65122557D01*
X160970264Y-65122725D01*
X160924296Y-65122997D01*
X160886492Y-65123397D01*
X160855945Y-65123949D01*
X160831748Y-65124679D01*
X160812993Y-65125611D01*
X160798773Y-65126770D01*
X160788182Y-65128180D01*
X160780311Y-65129866D01*
X160774254Y-65131852D01*
X160769103Y-65134164D01*
X160766125Y-65135690D01*
X160736487Y-65157624D01*
X160715319Y-65186618D01*
X160703601Y-65220022D01*
X160702314Y-65255183D01*
X160603283Y-65255183D01*
X160606686Y-65243919D01*
X160664485Y-65095155D01*
X160669860Y-65083976D01*
X161524950Y-65083976D01*
X161530954Y-65085136D01*
X161547590Y-65086136D01*
X161572786Y-65086906D01*
X161604475Y-65087380D01*
X161632125Y-65087500D01*
X161671378Y-65087568D01*
X161699877Y-65087929D01*
X161719568Y-65088821D01*
X161732399Y-65090477D01*
X161740315Y-65093134D01*
X161745262Y-65097028D01*
X161748676Y-65101619D01*
X161752496Y-65106640D01*
X161756723Y-65108630D01*
X161762812Y-65106519D01*
X161772215Y-65099231D01*
X161786388Y-65085695D01*
X161806784Y-65064837D01*
X161826887Y-65043903D01*
X161904224Y-64969838D01*
X161983825Y-64907066D01*
X162067566Y-64854185D01*
X162112325Y-64830646D01*
X162217861Y-64784789D01*
X162323476Y-64751486D01*
X162429981Y-64730610D01*
X162538188Y-64722036D01*
X162648909Y-64725639D01*
X162728275Y-64735328D01*
X162838107Y-64758924D01*
X162943652Y-64794362D01*
X163044395Y-64841356D01*
X163139820Y-64899619D01*
X163229412Y-64968868D01*
X163312657Y-65048815D01*
X163331937Y-65069903D01*
X163375688Y-65118982D01*
X163385240Y-65103241D01*
X163394791Y-65087500D01*
X163501799Y-65087500D01*
X163543250Y-65087145D01*
X163575060Y-65086115D01*
X163596327Y-65084465D01*
X163606145Y-65082248D01*
X163606691Y-65081280D01*
X163599687Y-65067966D01*
X163585807Y-65047217D01*
X163566641Y-65021064D01*
X163543780Y-64991535D01*
X163518815Y-64960662D01*
X163493337Y-64930475D01*
X163468937Y-64903004D01*
X163457080Y-64890339D01*
X163365072Y-64803121D01*
X163266670Y-64726795D01*
X163162126Y-64661511D01*
X163051696Y-64607417D01*
X162935633Y-64564661D01*
X162865705Y-64545084D01*
X162822716Y-64534747D01*
X162785490Y-64526848D01*
X162751086Y-64521071D01*
X162716564Y-64517099D01*
X162678985Y-64514615D01*
X162635410Y-64513302D01*
X162582897Y-64512843D01*
X162566350Y-64512825D01*
X162505679Y-64513326D01*
X162453850Y-64514795D01*
X162412044Y-64517178D01*
X162381445Y-64520423D01*
X162375850Y-64521333D01*
X162248592Y-64550081D01*
X162127600Y-64589653D01*
X162013176Y-64639879D01*
X161905621Y-64700585D01*
X161805239Y-64771602D01*
X161712332Y-64852756D01*
X161627203Y-64943876D01*
X161622770Y-64949152D01*
X161601846Y-64974875D01*
X161580802Y-65001918D01*
X161561145Y-65028207D01*
X161544380Y-65051667D01*
X161532011Y-65070222D01*
X161525546Y-65081798D01*
X161524950Y-65083976D01*
X160669860Y-65083976D01*
X160733335Y-64951961D01*
X160812972Y-64814768D01*
X160903133Y-64684007D01*
X161003554Y-64560108D01*
X161113973Y-64443502D01*
X161234126Y-64334620D01*
X161363750Y-64233892D01*
X161443435Y-64179202D01*
X161530006Y-64126536D01*
X161625802Y-64075453D01*
X161727345Y-64027531D01*
X161831160Y-63984352D01*
X161933771Y-63947493D01*
X161994850Y-63928626D01*
X162087666Y-63903912D01*
X162176712Y-63884610D01*
X162265171Y-63870298D01*
X162356225Y-63860553D01*
X162453059Y-63854951D01*
X162558855Y-63853069D01*
X162563175Y-63853065D01*
X162634797Y-63853508D01*
X162634797Y-63853508D01*
G37*
X162634797Y-63853508D02*
X162696804Y-63855086D01*
X162752251Y-63858093D01*
X162804196Y-63862825D01*
X162855693Y-63869579D01*
X162909800Y-63878650D01*
X162969574Y-63890334D01*
X162988082Y-63894185D01*
X163143294Y-63933206D01*
X163293837Y-63983763D01*
X163439180Y-64045387D01*
X163578789Y-64117604D01*
X163712134Y-64199946D01*
X163838681Y-64291939D01*
X163957897Y-64393114D01*
X164069250Y-64502999D01*
X164172208Y-64621123D01*
X164266239Y-64747015D01*
X164350809Y-64880204D01*
X164425386Y-65020219D01*
X164489438Y-65166588D01*
X164519917Y-65249425D01*
X164565599Y-65401631D01*
X164599247Y-65557043D01*
X164620833Y-65714720D01*
X164630327Y-65873724D01*
X164627700Y-66033113D01*
X164612923Y-66191948D01*
X164585967Y-66349290D01*
X164557611Y-66466218D01*
X164510299Y-66615411D01*
X164451204Y-66761584D01*
X164381066Y-66903350D01*
X164300620Y-67039322D01*
X164210605Y-67168112D01*
X164134496Y-67262375D01*
X164106030Y-67294138D01*
X164071047Y-67331096D01*
X164031875Y-67370966D01*
X163990843Y-67411462D01*
X163950281Y-67450301D01*
X163912516Y-67485199D01*
X163879879Y-67513872D01*
X163868100Y-67523639D01*
X163736795Y-67621874D01*
X163599696Y-67708834D01*
X163457049Y-67784413D01*
X163309103Y-67848503D01*
X163156107Y-67901000D01*
X162998310Y-67941797D01*
X162835960Y-67970788D01*
X162813545Y-67973812D01*
X162776573Y-67977600D01*
X162730113Y-67980807D01*
X162677099Y-67983369D01*
X162620466Y-67985222D01*
X162563148Y-67986302D01*
X162508080Y-67986544D01*
X162458194Y-67985883D01*
X162416425Y-67984256D01*
X162398075Y-67982935D01*
X162234653Y-67962149D01*
X162075187Y-67929527D01*
X161920165Y-67885335D01*
X161770073Y-67829839D01*
X161625398Y-67763306D01*
X161486626Y-67686003D01*
X161441494Y-67656067D01*
X162198050Y-67656067D01*
X162203914Y-67657108D01*
X162219596Y-67658508D01*
X162242225Y-67660029D01*
X162253612Y-67660674D01*
X162303391Y-67666458D01*
X162349945Y-67678905D01*
X162395435Y-67699040D01*
X162442022Y-67727884D01*
X162491867Y-67766462D01*
X162510058Y-67782080D01*
X162563175Y-67828676D01*
X162604450Y-67790848D01*
X162629326Y-67769179D01*
X162656713Y-67747063D01*
X162681151Y-67728887D01*
X162683704Y-67727126D01*
X162736074Y-67695689D01*
X162786489Y-67674784D01*
X162838052Y-67663294D01*
X162868796Y-67660546D01*
X162926767Y-67657802D01*
X162899333Y-67606138D01*
X162878598Y-67563948D01*
X162863382Y-67524585D01*
X162852948Y-67484738D01*
X162846557Y-67441095D01*
X162843471Y-67390343D01*
X162842890Y-67352887D01*
X162842575Y-67252899D01*
X162780662Y-67252874D01*
X162718750Y-67252850D01*
X162718750Y-67337776D01*
X162717948Y-67384089D01*
X162715486Y-67418844D01*
X162711275Y-67443085D01*
X162709470Y-67449002D01*
X162690199Y-67486699D01*
X162663108Y-67516251D01*
X162630237Y-67537184D01*
X162593626Y-67549023D01*
X162555315Y-67551296D01*
X162517344Y-67543527D01*
X162481753Y-67525244D01*
X162460281Y-67506904D01*
X162444787Y-67489688D01*
X162433434Y-67472982D01*
X162425522Y-67454305D01*
X162420353Y-67431175D01*
X162417225Y-67401113D01*
X162415440Y-67361638D01*
X162415035Y-67346512D01*
X162412785Y-67252850D01*
X162283326Y-67252850D01*
X162285849Y-67315685D01*
X162284678Y-67390404D01*
X162275484Y-67462676D01*
X162258804Y-67530034D01*
X162235172Y-67590012D01*
X162220500Y-67617156D01*
X162209293Y-67635985D01*
X162201247Y-67649923D01*
X162198053Y-67656035D01*
X162198050Y-67656067D01*
X161441494Y-67656067D01*
X161354244Y-67598196D01*
X161228740Y-67500153D01*
X161110598Y-67392139D01*
X161000308Y-67274421D01*
X160916313Y-67171159D01*
X160824398Y-67040237D01*
X160742954Y-66902519D01*
X160672319Y-66758873D01*
X160612837Y-66610164D01*
X160564847Y-66457259D01*
X160528691Y-66301026D01*
X160504710Y-66142329D01*
X160502285Y-66119375D01*
X160498990Y-66075806D01*
X160496698Y-66023253D01*
X160495408Y-65965020D01*
X160495121Y-65904409D01*
X160495839Y-65844724D01*
X160497560Y-65789269D01*
X160500287Y-65741347D01*
X160502222Y-65719325D01*
X160505369Y-65697100D01*
X161336430Y-65697100D01*
X161336858Y-65811384D01*
X161346574Y-65919401D01*
X161365959Y-66023936D01*
X161395395Y-66127775D01*
X161395466Y-66127989D01*
X161440128Y-66242969D01*
X161495552Y-66351860D01*
X161561044Y-66454058D01*
X161635910Y-66548960D01*
X161719458Y-66635960D01*
X161810995Y-66714455D01*
X161909826Y-66783840D01*
X162015260Y-66843513D01*
X162126602Y-66892868D01*
X162243160Y-66931301D01*
X162344100Y-66954611D01*
X162370513Y-66959524D01*
X162392150Y-66963490D01*
X162406024Y-66965964D01*
X162409337Y-66966501D01*
X162410846Y-66960698D01*
X162411965Y-66944236D01*
X162412636Y-66919153D01*
X162412798Y-66887485D01*
X162412512Y-66858232D01*
X162410775Y-66749364D01*
X162356800Y-66738389D01*
X162253687Y-66711055D01*
X162153631Y-66672035D01*
X162057729Y-66622191D01*
X161967079Y-66562384D01*
X161882780Y-66493476D01*
X161805929Y-66416329D01*
X161737624Y-66331805D01*
X161724833Y-66311953D01*
X161835992Y-66311953D01*
X161839089Y-66343812D01*
X161852235Y-66373792D01*
X161868834Y-66393403D01*
X161876604Y-66399818D01*
X161885489Y-66405157D01*
X161896663Y-66409520D01*
X161911298Y-66413002D01*
X161930567Y-66415703D01*
X161955643Y-66417720D01*
X161987699Y-66419151D01*
X162027908Y-66420093D01*
X162077443Y-66420644D01*
X162137477Y-66420902D01*
X162199637Y-66420964D01*
X162464750Y-66421000D01*
X162464750Y-66914754D01*
X162464831Y-67008411D01*
X162465069Y-67094279D01*
X162465457Y-67171771D01*
X162465989Y-67240300D01*
X162466657Y-67299276D01*
X162467453Y-67348113D01*
X162468372Y-67386221D01*
X162469405Y-67413015D01*
X162470546Y-67427904D01*
X162470974Y-67430213D01*
X162481456Y-67452319D01*
X162498292Y-67473968D01*
X162517391Y-67490307D01*
X162525075Y-67494407D01*
X162548710Y-67499497D01*
X162577329Y-67499173D01*
X162604621Y-67493825D01*
X162617090Y-67488718D01*
X162636069Y-67473551D01*
X162652284Y-67451848D01*
X162653504Y-67449619D01*
X162667950Y-67422302D01*
X162667950Y-66966842D01*
X162718451Y-66966842D01*
X162739238Y-66963138D01*
X162754538Y-66960298D01*
X162778328Y-66955753D01*
X162806639Y-66950266D01*
X162821945Y-66947270D01*
X162912267Y-66924909D01*
X163005412Y-66893140D01*
X163097447Y-66853305D01*
X163098397Y-66852847D01*
X163209336Y-66792463D01*
X163312115Y-66722530D01*
X163406351Y-66643542D01*
X163491661Y-66555992D01*
X163567664Y-66460370D01*
X163633976Y-66357170D01*
X163690214Y-66246884D01*
X163735997Y-66130005D01*
X163770941Y-66007023D01*
X163777035Y-65979675D01*
X163782651Y-65952417D01*
X163786926Y-65928849D01*
X163790043Y-65906528D01*
X163792185Y-65883012D01*
X163793536Y-65855857D01*
X163794279Y-65822622D01*
X163794597Y-65780863D01*
X163794665Y-65744725D01*
X163794425Y-65687287D01*
X163793410Y-65639758D01*
X163791320Y-65599357D01*
X163787858Y-65563300D01*
X163782723Y-65528805D01*
X163775618Y-65493091D01*
X163766243Y-65453376D01*
X163761234Y-65433575D01*
X163749832Y-65389125D01*
X163664503Y-65387407D01*
X163579175Y-65385690D01*
X163543835Y-65448884D01*
X163556265Y-65498379D01*
X163577107Y-65607150D01*
X163585657Y-65717467D01*
X163582030Y-65828159D01*
X163566340Y-65938058D01*
X163538703Y-66045992D01*
X163499232Y-66150793D01*
X163490442Y-66170175D01*
X163452462Y-66244521D01*
X163410520Y-66311962D01*
X163362076Y-66376149D01*
X163304595Y-66440736D01*
X163296971Y-66448685D01*
X163214971Y-66525030D01*
X163126330Y-66591504D01*
X163032122Y-66647507D01*
X162933423Y-66692439D01*
X162831309Y-66725697D01*
X162780053Y-66737610D01*
X162721925Y-66749348D01*
X162718451Y-66966842D01*
X162667950Y-66966842D01*
X162667950Y-66421000D01*
X162933062Y-66420848D01*
X162990865Y-66420679D01*
X163045516Y-66420260D01*
X163095531Y-66419621D01*
X163139424Y-66418793D01*
X163175710Y-66417805D01*
X163202904Y-66416689D01*
X163219520Y-66415474D01*
X163223037Y-66414930D01*
X163245694Y-66405395D01*
X163267866Y-66389109D01*
X163270347Y-66386715D01*
X163283123Y-66372569D01*
X163290284Y-66359287D01*
X163293836Y-66341854D01*
X163295254Y-66324370D01*
X163295901Y-66300176D01*
X163293520Y-66283521D01*
X163287102Y-66269405D01*
X163282868Y-66262895D01*
X163267136Y-66245341D01*
X163248230Y-66230867D01*
X163245899Y-66229557D01*
X163241899Y-66227663D01*
X163236953Y-66225984D01*
X163230317Y-66224508D01*
X163221245Y-66223220D01*
X163208995Y-66222109D01*
X163192821Y-66221162D01*
X163171981Y-66220366D01*
X163145728Y-66219709D01*
X163113321Y-66219177D01*
X163074013Y-66218757D01*
X163027062Y-66218438D01*
X162971723Y-66218206D01*
X162907252Y-66218048D01*
X162832904Y-66217953D01*
X162747936Y-66217906D01*
X162651604Y-66217895D01*
X162566449Y-66217904D01*
X161909125Y-66218008D01*
X161884386Y-66232191D01*
X161858902Y-66253434D01*
X161842684Y-66280924D01*
X161835992Y-66311953D01*
X161724833Y-66311953D01*
X161678964Y-66240766D01*
X161648327Y-66182280D01*
X161606058Y-66081105D01*
X161575751Y-65978113D01*
X161557075Y-65871828D01*
X161549698Y-65760773D01*
X161549544Y-65741550D01*
X161550744Y-65691408D01*
X161554113Y-65639941D01*
X161559301Y-65589983D01*
X161565962Y-65544367D01*
X161573746Y-65505929D01*
X161581829Y-65478736D01*
X161584825Y-65466455D01*
X161582808Y-65453908D01*
X161574808Y-65436685D01*
X161571041Y-65429850D01*
X161553525Y-65398662D01*
X161466896Y-65398656D01*
X161380268Y-65398650D01*
X161369904Y-65441512D01*
X161356606Y-65502063D01*
X161347100Y-65559540D01*
X161340740Y-65618884D01*
X161336877Y-65685039D01*
X161336430Y-65697100D01*
X160505369Y-65697100D01*
X160525291Y-65556434D01*
X160560200Y-65397822D01*
X160603283Y-65255183D01*
X160702314Y-65255183D01*
X160710666Y-65285649D01*
X160729455Y-65316139D01*
X160755461Y-65337487D01*
X160790098Y-65350653D01*
X160811946Y-65354581D01*
X160826350Y-65355625D01*
X160852131Y-65356614D01*
X160887962Y-65357526D01*
X160932519Y-65358344D01*
X160984479Y-65359047D01*
X161042516Y-65359618D01*
X161105305Y-65360037D01*
X161171524Y-65360284D01*
X161211615Y-65360342D01*
X161568205Y-65360550D01*
X162029775Y-66166890D01*
X162331935Y-66167000D01*
X162329150Y-66162237D01*
X162896601Y-66162237D01*
X162902384Y-66164597D01*
X162917636Y-66166301D01*
X162939131Y-66166997D01*
X162940452Y-66167000D01*
X162984355Y-66167000D01*
X163238494Y-65908978D01*
X163292453Y-65854173D01*
X163338145Y-65807675D01*
X163376226Y-65768755D01*
X163407351Y-65736682D01*
X163432175Y-65710726D01*
X163451354Y-65690157D01*
X163465544Y-65674244D01*
X163475400Y-65662259D01*
X163481577Y-65653470D01*
X163484732Y-65647147D01*
X163485519Y-65642561D01*
X163484594Y-65638980D01*
X163483146Y-65636477D01*
X163474706Y-65626866D01*
X163464163Y-65625292D01*
X163453434Y-65627799D01*
X163435155Y-65631673D01*
X163417125Y-65633416D01*
X163403442Y-65632865D01*
X163398200Y-65629979D01*
X163401264Y-65623726D01*
X163409888Y-65608019D01*
X163423217Y-65584365D01*
X163440397Y-65554270D01*
X163460572Y-65519243D01*
X163479162Y-65487191D01*
X163560125Y-65348025D01*
X163931600Y-65347798D01*
X164009924Y-65347731D01*
X164076574Y-65347612D01*
X164132578Y-65347411D01*
X164178962Y-65347095D01*
X164216751Y-65346635D01*
X164246974Y-65345998D01*
X164270656Y-65345153D01*
X164288824Y-65344070D01*
X164302505Y-65342716D01*
X164312725Y-65341061D01*
X164320511Y-65339073D01*
X164326889Y-65336722D01*
X164329212Y-65335701D01*
X164359028Y-65315970D01*
X164379871Y-65289484D01*
X164391561Y-65258648D01*
X164393917Y-65225871D01*
X164386761Y-65193558D01*
X164369913Y-65164117D01*
X164343791Y-65140348D01*
X164316711Y-65122425D01*
X163414341Y-65122425D01*
X163301300Y-65312925D01*
X163274662Y-65357814D01*
X163249934Y-65399479D01*
X163227900Y-65436599D01*
X163209346Y-65467851D01*
X163195057Y-65491914D01*
X163185816Y-65507466D01*
X163182551Y-65512950D01*
X163176874Y-65515621D01*
X163170669Y-65506198D01*
X163164153Y-65485263D01*
X163157542Y-65453400D01*
X163155071Y-65438680D01*
X163150761Y-65414595D01*
X163146480Y-65400249D01*
X163140915Y-65392751D01*
X163132749Y-65389209D01*
X163132548Y-65389158D01*
X163119864Y-65387278D01*
X163114375Y-65388257D01*
X163112251Y-65394644D01*
X163107076Y-65412001D01*
X163099206Y-65439066D01*
X163088995Y-65474574D01*
X163076800Y-65517264D01*
X163062975Y-65565870D01*
X163047877Y-65619130D01*
X163031861Y-65675780D01*
X163015282Y-65734557D01*
X162998496Y-65794196D01*
X162981858Y-65853435D01*
X162965724Y-65911010D01*
X162950450Y-65965658D01*
X162936390Y-66016114D01*
X162923901Y-66061116D01*
X162913338Y-66099400D01*
X162905057Y-66129703D01*
X162899412Y-66150760D01*
X162896760Y-66161309D01*
X162896601Y-66162237D01*
X162329150Y-66162237D01*
X162314297Y-66136837D01*
X162308495Y-66126960D01*
X162296735Y-66106979D01*
X162279509Y-66077732D01*
X162257312Y-66040054D01*
X162230635Y-65994783D01*
X162199971Y-65942753D01*
X162165814Y-65884803D01*
X162128656Y-65821767D01*
X162088991Y-65754483D01*
X162047311Y-65683787D01*
X162006488Y-65614550D01*
X161716317Y-65122425D01*
X161253921Y-65122425D01*
X161166224Y-65122431D01*
X161090321Y-65122467D01*
X161025304Y-65122557D01*
X160970264Y-65122725D01*
X160924296Y-65122997D01*
X160886492Y-65123397D01*
X160855945Y-65123949D01*
X160831748Y-65124679D01*
X160812993Y-65125611D01*
X160798773Y-65126770D01*
X160788182Y-65128180D01*
X160780311Y-65129866D01*
X160774254Y-65131852D01*
X160769103Y-65134164D01*
X160766125Y-65135690D01*
X160736487Y-65157624D01*
X160715319Y-65186618D01*
X160703601Y-65220022D01*
X160702314Y-65255183D01*
X160603283Y-65255183D01*
X160606686Y-65243919D01*
X160664485Y-65095155D01*
X160669860Y-65083976D01*
X161524950Y-65083976D01*
X161530954Y-65085136D01*
X161547590Y-65086136D01*
X161572786Y-65086906D01*
X161604475Y-65087380D01*
X161632125Y-65087500D01*
X161671378Y-65087568D01*
X161699877Y-65087929D01*
X161719568Y-65088821D01*
X161732399Y-65090477D01*
X161740315Y-65093134D01*
X161745262Y-65097028D01*
X161748676Y-65101619D01*
X161752496Y-65106640D01*
X161756723Y-65108630D01*
X161762812Y-65106519D01*
X161772215Y-65099231D01*
X161786388Y-65085695D01*
X161806784Y-65064837D01*
X161826887Y-65043903D01*
X161904224Y-64969838D01*
X161983825Y-64907066D01*
X162067566Y-64854185D01*
X162112325Y-64830646D01*
X162217861Y-64784789D01*
X162323476Y-64751486D01*
X162429981Y-64730610D01*
X162538188Y-64722036D01*
X162648909Y-64725639D01*
X162728275Y-64735328D01*
X162838107Y-64758924D01*
X162943652Y-64794362D01*
X163044395Y-64841356D01*
X163139820Y-64899619D01*
X163229412Y-64968868D01*
X163312657Y-65048815D01*
X163331937Y-65069903D01*
X163375688Y-65118982D01*
X163385240Y-65103241D01*
X163394791Y-65087500D01*
X163501799Y-65087500D01*
X163543250Y-65087145D01*
X163575060Y-65086115D01*
X163596327Y-65084465D01*
X163606145Y-65082248D01*
X163606691Y-65081280D01*
X163599687Y-65067966D01*
X163585807Y-65047217D01*
X163566641Y-65021064D01*
X163543780Y-64991535D01*
X163518815Y-64960662D01*
X163493337Y-64930475D01*
X163468937Y-64903004D01*
X163457080Y-64890339D01*
X163365072Y-64803121D01*
X163266670Y-64726795D01*
X163162126Y-64661511D01*
X163051696Y-64607417D01*
X162935633Y-64564661D01*
X162865705Y-64545084D01*
X162822716Y-64534747D01*
X162785490Y-64526848D01*
X162751086Y-64521071D01*
X162716564Y-64517099D01*
X162678985Y-64514615D01*
X162635410Y-64513302D01*
X162582897Y-64512843D01*
X162566350Y-64512825D01*
X162505679Y-64513326D01*
X162453850Y-64514795D01*
X162412044Y-64517178D01*
X162381445Y-64520423D01*
X162375850Y-64521333D01*
X162248592Y-64550081D01*
X162127600Y-64589653D01*
X162013176Y-64639879D01*
X161905621Y-64700585D01*
X161805239Y-64771602D01*
X161712332Y-64852756D01*
X161627203Y-64943876D01*
X161622770Y-64949152D01*
X161601846Y-64974875D01*
X161580802Y-65001918D01*
X161561145Y-65028207D01*
X161544380Y-65051667D01*
X161532011Y-65070222D01*
X161525546Y-65081798D01*
X161524950Y-65083976D01*
X160669860Y-65083976D01*
X160733335Y-64951961D01*
X160812972Y-64814768D01*
X160903133Y-64684007D01*
X161003554Y-64560108D01*
X161113973Y-64443502D01*
X161234126Y-64334620D01*
X161363750Y-64233892D01*
X161443435Y-64179202D01*
X161530006Y-64126536D01*
X161625802Y-64075453D01*
X161727345Y-64027531D01*
X161831160Y-63984352D01*
X161933771Y-63947493D01*
X161994850Y-63928626D01*
X162087666Y-63903912D01*
X162176712Y-63884610D01*
X162265171Y-63870298D01*
X162356225Y-63860553D01*
X162453059Y-63854951D01*
X162558855Y-63853069D01*
X162563175Y-63853065D01*
X162634797Y-63853508D01*
G36*
X164472745Y-67822164D02*
X164487654Y-67827587D01*
X164508480Y-67835706D01*
X164532354Y-67845346D01*
X164556407Y-67855330D01*
X164577769Y-67864485D01*
X164593573Y-67871634D01*
X164600948Y-67875603D01*
X164601016Y-67875667D01*
X164598711Y-67881524D01*
X164589835Y-67893769D01*
X164576727Y-67909741D01*
X164561730Y-67926780D01*
X164547184Y-67942226D01*
X164535430Y-67953419D01*
X164528830Y-67957700D01*
X164524505Y-67952226D01*
X164516450Y-67937343D01*
X164505835Y-67915356D01*
X164494437Y-67889966D01*
X164483024Y-67863276D01*
X164473961Y-67841250D01*
X164468190Y-67826239D01*
X164466621Y-67820611D01*
X164472745Y-67822164D01*
X164472745Y-67822164D01*
G37*
X164472745Y-67822164D02*
X164487654Y-67827587D01*
X164508480Y-67835706D01*
X164532354Y-67845346D01*
X164556407Y-67855330D01*
X164577769Y-67864485D01*
X164593573Y-67871634D01*
X164600948Y-67875603D01*
X164601016Y-67875667D01*
X164598711Y-67881524D01*
X164589835Y-67893769D01*
X164576727Y-67909741D01*
X164561730Y-67926780D01*
X164547184Y-67942226D01*
X164535430Y-67953419D01*
X164528830Y-67957700D01*
X164524505Y-67952226D01*
X164516450Y-67937343D01*
X164505835Y-67915356D01*
X164494437Y-67889966D01*
X164483024Y-67863276D01*
X164473961Y-67841250D01*
X164468190Y-67826239D01*
X164466621Y-67820611D01*
X164472745Y-67822164D01*
G36*
X160804375Y-67869866D02*
X160822818Y-67885006D01*
X160845390Y-67904639D01*
X160869821Y-67926680D01*
X160893840Y-67949046D01*
X160915175Y-67969650D01*
X160931556Y-67986410D01*
X160940710Y-67997239D01*
X160941096Y-67997843D01*
X160950628Y-68015813D01*
X160951992Y-68029019D01*
X160944795Y-68042742D01*
X160937010Y-68052462D01*
X160919175Y-68067400D01*
X160898908Y-68071294D01*
X160874255Y-68064335D01*
X160864550Y-68059542D01*
X160851643Y-68051190D01*
X160833078Y-68037360D01*
X160810986Y-68019856D01*
X160787502Y-68000480D01*
X160764757Y-67981035D01*
X160744886Y-67963324D01*
X160730022Y-67949149D01*
X160722297Y-67940314D01*
X160721675Y-67938797D01*
X160725610Y-67929779D01*
X160735762Y-67915618D01*
X160749653Y-67899034D01*
X160764804Y-67882746D01*
X160778735Y-67869471D01*
X160788968Y-67861929D01*
X160792334Y-67861304D01*
X160804375Y-67869866D01*
X160804375Y-67869866D01*
G37*
X160804375Y-67869866D02*
X160822818Y-67885006D01*
X160845390Y-67904639D01*
X160869821Y-67926680D01*
X160893840Y-67949046D01*
X160915175Y-67969650D01*
X160931556Y-67986410D01*
X160940710Y-67997239D01*
X160941096Y-67997843D01*
X160950628Y-68015813D01*
X160951992Y-68029019D01*
X160944795Y-68042742D01*
X160937010Y-68052462D01*
X160919175Y-68067400D01*
X160898908Y-68071294D01*
X160874255Y-68064335D01*
X160864550Y-68059542D01*
X160851643Y-68051190D01*
X160833078Y-68037360D01*
X160810986Y-68019856D01*
X160787502Y-68000480D01*
X160764757Y-67981035D01*
X160744886Y-67963324D01*
X160730022Y-67949149D01*
X160722297Y-67940314D01*
X160721675Y-67938797D01*
X160725610Y-67929779D01*
X160735762Y-67915618D01*
X160749653Y-67899034D01*
X160764804Y-67882746D01*
X160778735Y-67869471D01*
X160788968Y-67861929D01*
X160792334Y-67861304D01*
X160804375Y-67869866D01*
G36*
X160687410Y-68108236D02*
X160728904Y-68144836D01*
X160760523Y-68175293D01*
X160782849Y-68200673D01*
X160796465Y-68222039D01*
X160801951Y-68240455D01*
X160799892Y-68256987D01*
X160790868Y-68272698D01*
X160782488Y-68282038D01*
X160759791Y-68297005D01*
X160733679Y-68299820D01*
X160703982Y-68290496D01*
X160699450Y-68288181D01*
X160686651Y-68279788D01*
X160666732Y-68264865D01*
X160642089Y-68245287D01*
X160615123Y-68222928D01*
X160605689Y-68214886D01*
X160534154Y-68153449D01*
X160552950Y-68130187D01*
X160568431Y-68111465D01*
X160586863Y-68089764D01*
X160596234Y-68078956D01*
X160620721Y-68050987D01*
X160687410Y-68108236D01*
X160687410Y-68108236D01*
G37*
X160687410Y-68108236D02*
X160728904Y-68144836D01*
X160760523Y-68175293D01*
X160782849Y-68200673D01*
X160796465Y-68222039D01*
X160801951Y-68240455D01*
X160799892Y-68256987D01*
X160790868Y-68272698D01*
X160782488Y-68282038D01*
X160759791Y-68297005D01*
X160733679Y-68299820D01*
X160703982Y-68290496D01*
X160699450Y-68288181D01*
X160686651Y-68279788D01*
X160666732Y-68264865D01*
X160642089Y-68245287D01*
X160615123Y-68222928D01*
X160605689Y-68214886D01*
X160534154Y-68153449D01*
X160552950Y-68130187D01*
X160568431Y-68111465D01*
X160586863Y-68089764D01*
X160596234Y-68078956D01*
X160620721Y-68050987D01*
X160687410Y-68108236D01*
G36*
X161516855Y-68317008D02*
X161536722Y-68319461D01*
X161554350Y-68325108D01*
X161574962Y-68335227D01*
X161582100Y-68339101D01*
X161621734Y-68367048D01*
X161650331Y-68401174D01*
X161667704Y-68441062D01*
X161673670Y-68486300D01*
X161668598Y-68533884D01*
X161653303Y-68585356D01*
X161630605Y-68631591D01*
X161601869Y-68670581D01*
X161568459Y-68700320D01*
X161546954Y-68712786D01*
X161511907Y-68723233D01*
X161471335Y-68725557D01*
X161429460Y-68719776D01*
X161404913Y-68712211D01*
X161369576Y-68693100D01*
X161338230Y-68665790D01*
X161314331Y-68633639D01*
X161306005Y-68616151D01*
X161298929Y-68585363D01*
X161297276Y-68547548D01*
X161300818Y-68507054D01*
X161309329Y-68468228D01*
X161314511Y-68453000D01*
X161335587Y-68410991D01*
X161363740Y-68373176D01*
X161396088Y-68343208D01*
X161407091Y-68335725D01*
X161424446Y-68325838D01*
X161439791Y-68320047D01*
X161457695Y-68317288D01*
X161482725Y-68316492D01*
X161489527Y-68316475D01*
X161516855Y-68317008D01*
X161516855Y-68317008D01*
G37*
X161516855Y-68317008D02*
X161536722Y-68319461D01*
X161554350Y-68325108D01*
X161574962Y-68335227D01*
X161582100Y-68339101D01*
X161621734Y-68367048D01*
X161650331Y-68401174D01*
X161667704Y-68441062D01*
X161673670Y-68486300D01*
X161668598Y-68533884D01*
X161653303Y-68585356D01*
X161630605Y-68631591D01*
X161601869Y-68670581D01*
X161568459Y-68700320D01*
X161546954Y-68712786D01*
X161511907Y-68723233D01*
X161471335Y-68725557D01*
X161429460Y-68719776D01*
X161404913Y-68712211D01*
X161369576Y-68693100D01*
X161338230Y-68665790D01*
X161314331Y-68633639D01*
X161306005Y-68616151D01*
X161298929Y-68585363D01*
X161297276Y-68547548D01*
X161300818Y-68507054D01*
X161309329Y-68468228D01*
X161314511Y-68453000D01*
X161335587Y-68410991D01*
X161363740Y-68373176D01*
X161396088Y-68343208D01*
X161407091Y-68335725D01*
X161424446Y-68325838D01*
X161439791Y-68320047D01*
X161457695Y-68317288D01*
X161482725Y-68316492D01*
X161489527Y-68316475D01*
X161516855Y-68317008D01*
G36*
X162233718Y-68360342D02*
X162241787Y-68366630D01*
X162263718Y-68380439D01*
X162294755Y-68392117D01*
X162331397Y-68401045D01*
X162370139Y-68406603D01*
X162407480Y-68408173D01*
X162439917Y-68405137D01*
X162448517Y-68403139D01*
X162464401Y-68399124D01*
X162473883Y-68397471D01*
X162474884Y-68397609D01*
X162471318Y-68402588D01*
X162460848Y-68416117D01*
X162444544Y-68436859D01*
X162423476Y-68463479D01*
X162398711Y-68494639D01*
X162371320Y-68529005D01*
X162342371Y-68565240D01*
X162312934Y-68602008D01*
X162284079Y-68637972D01*
X162256873Y-68671798D01*
X162232388Y-68702148D01*
X162211691Y-68727687D01*
X162195852Y-68747078D01*
X162185940Y-68758986D01*
X162183298Y-68761968D01*
X162181162Y-68759871D01*
X162182017Y-68748751D01*
X162182179Y-68747811D01*
X162183605Y-68737901D01*
X162186265Y-68717650D01*
X162189923Y-68688970D01*
X162194346Y-68653775D01*
X162199298Y-68613980D01*
X162204545Y-68571498D01*
X162209851Y-68528242D01*
X162214983Y-68486126D01*
X162219705Y-68447065D01*
X162223782Y-68412971D01*
X162226980Y-68385758D01*
X162229064Y-68367340D01*
X162229800Y-68359651D01*
X162233718Y-68360342D01*
X162233718Y-68360342D01*
G37*
X162233718Y-68360342D02*
X162241787Y-68366630D01*
X162263718Y-68380439D01*
X162294755Y-68392117D01*
X162331397Y-68401045D01*
X162370139Y-68406603D01*
X162407480Y-68408173D01*
X162439917Y-68405137D01*
X162448517Y-68403139D01*
X162464401Y-68399124D01*
X162473883Y-68397471D01*
X162474884Y-68397609D01*
X162471318Y-68402588D01*
X162460848Y-68416117D01*
X162444544Y-68436859D01*
X162423476Y-68463479D01*
X162398711Y-68494639D01*
X162371320Y-68529005D01*
X162342371Y-68565240D01*
X162312934Y-68602008D01*
X162284079Y-68637972D01*
X162256873Y-68671798D01*
X162232388Y-68702148D01*
X162211691Y-68727687D01*
X162195852Y-68747078D01*
X162185940Y-68758986D01*
X162183298Y-68761968D01*
X162181162Y-68759871D01*
X162182017Y-68748751D01*
X162182179Y-68747811D01*
X162183605Y-68737901D01*
X162186265Y-68717650D01*
X162189923Y-68688970D01*
X162194346Y-68653775D01*
X162199298Y-68613980D01*
X162204545Y-68571498D01*
X162209851Y-68528242D01*
X162214983Y-68486126D01*
X162219705Y-68447065D01*
X162223782Y-68412971D01*
X162226980Y-68385758D01*
X162229064Y-68367340D01*
X162229800Y-68359651D01*
X162233718Y-68360342D01*
G36*
X162848666Y-62582062D02*
X163052173Y-62605635D01*
X163253890Y-62641495D01*
X163410900Y-62678345D01*
X163591559Y-62731387D01*
X163771585Y-62796001D01*
X163949307Y-62871357D01*
X164123055Y-62956626D01*
X164291159Y-63050977D01*
X164451948Y-63153583D01*
X164603752Y-63263613D01*
X164628361Y-63282851D01*
X164780236Y-63410331D01*
X164925183Y-63546951D01*
X165061948Y-63691373D01*
X165189278Y-63842257D01*
X165305920Y-63998263D01*
X165329411Y-64032242D01*
X165439610Y-64205013D01*
X165538351Y-64382795D01*
X165625599Y-64565049D01*
X165701317Y-64751239D01*
X165765469Y-64940826D01*
X165818020Y-65133273D01*
X165858932Y-65328043D01*
X165888171Y-65524597D01*
X165905699Y-65722399D01*
X165911481Y-65920911D01*
X165905481Y-66119594D01*
X165887663Y-66317913D01*
X165857990Y-66515328D01*
X165816426Y-66711304D01*
X165762936Y-66905301D01*
X165697484Y-67096782D01*
X165620032Y-67285211D01*
X165556754Y-67418812D01*
X165459786Y-67598394D01*
X165352363Y-67771108D01*
X165234951Y-67936541D01*
X165108012Y-68094282D01*
X164972011Y-68243917D01*
X164827412Y-68385035D01*
X164674680Y-68517224D01*
X164514278Y-68640072D01*
X164346670Y-68753166D01*
X164172321Y-68856094D01*
X163991694Y-68948445D01*
X163805254Y-69029805D01*
X163696048Y-69071289D01*
X163503433Y-69134027D01*
X163307502Y-69184802D01*
X163107635Y-69223747D01*
X162903212Y-69250998D01*
X162847916Y-69256302D01*
X162800047Y-69259612D01*
X162742333Y-69262123D01*
X162677444Y-69263837D01*
X162608051Y-69264755D01*
X162536823Y-69264880D01*
X162466432Y-69264213D01*
X162399546Y-69262756D01*
X162338838Y-69260511D01*
X162286976Y-69257479D01*
X162267900Y-69255919D01*
X162062591Y-69230933D01*
X161860613Y-69193849D01*
X161662411Y-69144916D01*
X161468433Y-69084381D01*
X161339930Y-69035584D01*
X161959405Y-69035584D01*
X161959435Y-69035652D01*
X161966469Y-69037434D01*
X161983837Y-69040340D01*
X162009257Y-69044029D01*
X162040447Y-69048160D01*
X162056429Y-69050154D01*
X162150425Y-69061658D01*
X162165477Y-69042689D01*
X162195138Y-69005446D01*
X162226898Y-68965804D01*
X162259805Y-68924929D01*
X162292912Y-68883983D01*
X162325268Y-68844129D01*
X162355924Y-68806529D01*
X162383930Y-68772349D01*
X162408336Y-68742750D01*
X162428194Y-68718895D01*
X162442552Y-68701948D01*
X162450462Y-68693072D01*
X162451721Y-68692078D01*
X162450878Y-68699502D01*
X162448647Y-68717949D01*
X162445222Y-68745839D01*
X162440799Y-68781595D01*
X162435573Y-68823639D01*
X162429738Y-68870391D01*
X162427141Y-68891150D01*
X162421247Y-68939341D01*
X162416124Y-68983438D01*
X162411931Y-69021875D01*
X162408830Y-69053087D01*
X162406982Y-69075507D01*
X162406547Y-69087569D01*
X162406831Y-69089179D01*
X162414120Y-69091425D01*
X162431168Y-69094679D01*
X162455113Y-69098537D01*
X162483092Y-69102598D01*
X162512244Y-69106456D01*
X162539705Y-69109710D01*
X162562614Y-69111955D01*
X162573580Y-69112677D01*
X162585634Y-69111140D01*
X162591626Y-69102708D01*
X162593858Y-69092762D01*
X162596250Y-69076809D01*
X162599743Y-69050830D01*
X162604171Y-69016234D01*
X162609372Y-68974433D01*
X162615180Y-68926838D01*
X162621432Y-68874859D01*
X162627963Y-68819909D01*
X162634609Y-68763397D01*
X162641206Y-68706735D01*
X162645502Y-68669450D01*
X162808652Y-68669450D01*
X162809299Y-68693196D01*
X162814957Y-68754585D01*
X162826939Y-68808007D01*
X162846330Y-68857062D01*
X162872162Y-68902229D01*
X162913068Y-68954208D01*
X162960903Y-68995799D01*
X163014909Y-69026726D01*
X163074329Y-69046712D01*
X163138404Y-69055478D01*
X163206376Y-69052748D01*
X163257785Y-69043393D01*
X163322276Y-69022536D01*
X163379780Y-68992988D01*
X163429250Y-68955640D01*
X163469635Y-68911383D01*
X163499886Y-68861110D01*
X163513454Y-68826158D01*
X163520578Y-68793091D01*
X163524510Y-68752869D01*
X163525002Y-68710687D01*
X163521804Y-68671745D01*
X163521049Y-68666851D01*
X163519852Y-68657754D01*
X163518532Y-68651251D01*
X163515358Y-68647393D01*
X163508593Y-68646233D01*
X163496505Y-68647822D01*
X163477359Y-68652213D01*
X163449421Y-68659457D01*
X163410958Y-68669607D01*
X163408626Y-68670218D01*
X163333328Y-68689943D01*
X163337298Y-68719873D01*
X163337722Y-68764730D01*
X163327116Y-68804356D01*
X163306429Y-68837747D01*
X163276605Y-68863901D01*
X163238593Y-68881814D01*
X163193337Y-68890484D01*
X163175642Y-68891150D01*
X163132687Y-68886041D01*
X163095512Y-68870394D01*
X163063451Y-68843728D01*
X163035834Y-68805562D01*
X163023208Y-68781436D01*
X163005699Y-68733861D01*
X162996555Y-68684649D01*
X162995898Y-68636730D01*
X163003853Y-68593034D01*
X163014207Y-68567300D01*
X163031956Y-68543070D01*
X163058195Y-68519521D01*
X163089008Y-68500026D01*
X163096575Y-68496359D01*
X163127238Y-68486564D01*
X163162096Y-68481876D01*
X163196664Y-68482398D01*
X163226457Y-68488234D01*
X163237987Y-68493082D01*
X163253128Y-68504473D01*
X163270450Y-68522005D01*
X163286183Y-68541371D01*
X163296559Y-68558267D01*
X163297825Y-68561450D01*
X163304058Y-68561539D01*
X163319939Y-68559039D01*
X163342821Y-68554558D01*
X163370063Y-68548704D01*
X163399018Y-68542082D01*
X163427042Y-68535301D01*
X163451491Y-68528968D01*
X163469721Y-68523690D01*
X163479087Y-68520073D01*
X163479553Y-68519723D01*
X163477947Y-68513552D01*
X163471885Y-68499006D01*
X163462615Y-68479055D01*
X163461162Y-68476059D01*
X163429778Y-68425264D01*
X163390082Y-68383684D01*
X163342924Y-68351737D01*
X163289154Y-68329844D01*
X163229622Y-68318424D01*
X163165177Y-68317896D01*
X163144817Y-68319948D01*
X163072165Y-68334461D01*
X163006848Y-68358694D01*
X162949397Y-68392326D01*
X162900339Y-68435041D01*
X162860204Y-68486518D01*
X162855406Y-68494275D01*
X162833227Y-68536101D01*
X162818634Y-68576687D01*
X162810738Y-68619860D01*
X162808652Y-68669450D01*
X162645502Y-68669450D01*
X162647590Y-68651334D01*
X162653596Y-68598604D01*
X162659060Y-68549957D01*
X162663818Y-68506804D01*
X162667705Y-68470556D01*
X162670558Y-68442623D01*
X162672212Y-68424417D01*
X162672502Y-68417348D01*
X162672483Y-68417316D01*
X162665273Y-68415408D01*
X162647805Y-68412498D01*
X162622447Y-68408933D01*
X162591570Y-68405064D01*
X162580215Y-68403739D01*
X162491343Y-68393556D01*
X162518465Y-68367197D01*
X162537518Y-68343936D01*
X162554315Y-68314997D01*
X162566700Y-68284898D01*
X162572515Y-68258159D01*
X162572700Y-68253557D01*
X162571726Y-68245812D01*
X162567015Y-68240931D01*
X162555878Y-68237795D01*
X162535629Y-68235289D01*
X162526662Y-68234427D01*
X162502368Y-68231859D01*
X162482096Y-68229195D01*
X162470058Y-68226991D01*
X162469745Y-68226902D01*
X162460108Y-68228659D01*
X162451574Y-68241295D01*
X162450091Y-68244683D01*
X162438196Y-68266249D01*
X162422761Y-68278495D01*
X162400433Y-68283444D01*
X162385173Y-68283808D01*
X162349644Y-68279316D01*
X162323959Y-68266928D01*
X162307916Y-68246518D01*
X162303333Y-68232764D01*
X162301181Y-68224683D01*
X163481919Y-68224683D01*
X163647006Y-68515054D01*
X163685309Y-68582414D01*
X163717829Y-68639568D01*
X163745056Y-68687352D01*
X163767478Y-68726604D01*
X163785584Y-68758159D01*
X163799863Y-68782856D01*
X163810805Y-68801530D01*
X163818898Y-68815019D01*
X163824631Y-68824160D01*
X163828493Y-68829790D01*
X163830973Y-68832745D01*
X163832560Y-68833862D01*
X163833354Y-68834000D01*
X163839670Y-68831022D01*
X163854951Y-68822837D01*
X163877154Y-68810567D01*
X163904234Y-68795332D01*
X163915614Y-68788865D01*
X163946606Y-68771053D01*
X163968008Y-68758158D01*
X163981340Y-68748941D01*
X163988123Y-68742163D01*
X163989875Y-68736587D01*
X163988117Y-68730973D01*
X163987685Y-68730127D01*
X163982152Y-68720071D01*
X163971564Y-68701252D01*
X163957195Y-68675919D01*
X163940318Y-68646318D01*
X163930296Y-68628804D01*
X163880036Y-68541084D01*
X163893777Y-68499790D01*
X163902228Y-68477779D01*
X163909755Y-68464470D01*
X163914797Y-68461508D01*
X163922368Y-68464708D01*
X163940029Y-68472204D01*
X163966185Y-68483319D01*
X163999242Y-68497375D01*
X164037603Y-68513694D01*
X164079675Y-68531597D01*
X164080595Y-68531989D01*
X164122706Y-68549731D01*
X164161179Y-68565596D01*
X164194420Y-68578953D01*
X164220834Y-68589172D01*
X164238825Y-68595624D01*
X164246799Y-68597678D01*
X164246860Y-68597666D01*
X164255275Y-68593954D01*
X164271976Y-68585278D01*
X164294813Y-68572866D01*
X164321635Y-68557943D01*
X164350290Y-68541735D01*
X164378628Y-68525468D01*
X164404497Y-68510368D01*
X164425745Y-68497661D01*
X164440223Y-68488573D01*
X164445778Y-68484330D01*
X164445785Y-68484291D01*
X164440135Y-68481202D01*
X164423936Y-68473899D01*
X164398424Y-68462902D01*
X164364834Y-68448730D01*
X164324402Y-68431903D01*
X164278363Y-68412940D01*
X164227955Y-68392362D01*
X164206237Y-68383549D01*
X164154336Y-68362507D01*
X164106227Y-68342971D01*
X164063155Y-68325450D01*
X164026366Y-68310451D01*
X163997105Y-68298482D01*
X163976618Y-68290051D01*
X163966148Y-68285667D01*
X163965041Y-68285157D01*
X163966620Y-68279056D01*
X163971785Y-68262328D01*
X163980078Y-68236384D01*
X163991041Y-68202636D01*
X164004216Y-68162496D01*
X164019146Y-68117376D01*
X164030147Y-68084331D01*
X164046039Y-68036430D01*
X164060476Y-67992369D01*
X164072999Y-67953592D01*
X164083150Y-67921544D01*
X164090469Y-67897668D01*
X164094498Y-67883410D01*
X164095126Y-67879953D01*
X164089416Y-67881473D01*
X164074445Y-67888547D01*
X164051901Y-67900294D01*
X164023469Y-67915830D01*
X163990837Y-67934273D01*
X163986013Y-67937046D01*
X163878512Y-67998975D01*
X163825521Y-68167250D01*
X163811635Y-68211350D01*
X163798980Y-68251552D01*
X163788063Y-68286246D01*
X163779389Y-68313820D01*
X163773467Y-68332664D01*
X163770803Y-68341167D01*
X163770735Y-68341388D01*
X163767241Y-68337991D01*
X163758569Y-68325064D01*
X163745689Y-68304186D01*
X163729574Y-68276937D01*
X163711197Y-68244898D01*
X163709206Y-68241375D01*
X163690336Y-68208442D01*
X163673304Y-68179685D01*
X163659167Y-68156810D01*
X163648981Y-68141522D01*
X163643802Y-68135527D01*
X163643654Y-68135500D01*
X163636312Y-68138502D01*
X163620141Y-68146745D01*
X163597289Y-68159087D01*
X163569906Y-68174382D01*
X163559877Y-68180091D01*
X163481919Y-68224683D01*
X162301181Y-68224683D01*
X162299228Y-68217352D01*
X162293332Y-68209128D01*
X162281816Y-68205074D01*
X162265233Y-68202710D01*
X162239585Y-68199448D01*
X162213750Y-68196028D01*
X162205987Y-68194964D01*
X162179000Y-68191207D01*
X162179000Y-68225844D01*
X162182484Y-68265095D01*
X162192120Y-68301715D01*
X162206681Y-68331386D01*
X162210484Y-68336629D01*
X162217948Y-68348668D01*
X162218681Y-68355896D01*
X162217838Y-68356445D01*
X162209404Y-68356518D01*
X162190936Y-68355179D01*
X162164994Y-68352656D01*
X162134139Y-68349179D01*
X162127684Y-68348399D01*
X162096679Y-68344757D01*
X162070594Y-68341972D01*
X162051812Y-68340277D01*
X162042714Y-68339905D01*
X162042246Y-68340027D01*
X162040943Y-68346713D01*
X162038367Y-68364592D01*
X162034684Y-68392272D01*
X162030059Y-68428358D01*
X162024660Y-68471455D01*
X162018650Y-68520171D01*
X162012198Y-68573111D01*
X162005467Y-68628882D01*
X161998625Y-68686088D01*
X161991838Y-68743338D01*
X161985270Y-68799235D01*
X161979089Y-68852387D01*
X161973460Y-68901400D01*
X161968549Y-68944879D01*
X161964522Y-68981431D01*
X161961545Y-69009662D01*
X161959784Y-69028178D01*
X161959405Y-69035584D01*
X161339930Y-69035584D01*
X161279123Y-69012494D01*
X161094929Y-68929502D01*
X160916295Y-68835654D01*
X160743668Y-68731199D01*
X160577495Y-68616384D01*
X160494815Y-68551534D01*
X161108010Y-68551534D01*
X161117002Y-68613457D01*
X161137086Y-68671605D01*
X161167861Y-68725147D01*
X161208927Y-68773255D01*
X161259885Y-68815099D01*
X161320333Y-68849850D01*
X161389872Y-68876680D01*
X161407475Y-68881741D01*
X161442918Y-68888076D01*
X161485288Y-68890750D01*
X161529671Y-68889844D01*
X161571155Y-68885439D01*
X161602068Y-68878516D01*
X161663612Y-68852865D01*
X161717965Y-68816922D01*
X161764660Y-68771167D01*
X161803232Y-68716080D01*
X161833213Y-68652143D01*
X161839739Y-68633534D01*
X161848429Y-68605304D01*
X161853874Y-68581746D01*
X161856750Y-68558077D01*
X161857738Y-68529514D01*
X161857697Y-68506975D01*
X161856695Y-68470079D01*
X161854100Y-68441878D01*
X161849380Y-68418411D01*
X161843227Y-68399025D01*
X161815537Y-68340925D01*
X161777510Y-68288817D01*
X161730442Y-68243600D01*
X161675630Y-68206171D01*
X161614372Y-68177429D01*
X161547962Y-68158272D01*
X161483675Y-68149900D01*
X161419830Y-68151058D01*
X161362119Y-68162633D01*
X161308930Y-68185247D01*
X161258649Y-68219522D01*
X161225811Y-68249293D01*
X161198546Y-68278102D01*
X161178131Y-68304253D01*
X161161108Y-68332503D01*
X161151581Y-68351400D01*
X161124899Y-68419676D01*
X161110509Y-68486664D01*
X161108010Y-68551534D01*
X160494815Y-68551534D01*
X160418221Y-68491459D01*
X160266293Y-68356671D01*
X160122156Y-68212269D01*
X160066262Y-68149025D01*
X160291682Y-68149025D01*
X160295859Y-68153963D01*
X160308466Y-68165887D01*
X160328169Y-68183659D01*
X160353636Y-68206139D01*
X160383535Y-68232191D01*
X160416534Y-68260676D01*
X160451299Y-68290455D01*
X160486499Y-68320391D01*
X160520801Y-68349344D01*
X160552872Y-68376178D01*
X160581381Y-68399754D01*
X160604993Y-68418932D01*
X160622378Y-68432576D01*
X160630623Y-68438555D01*
X160673031Y-68460113D01*
X160720953Y-68473624D01*
X160770589Y-68478554D01*
X160818144Y-68474370D01*
X160841419Y-68468201D01*
X160870986Y-68453317D01*
X160901594Y-68429841D01*
X160929734Y-68401041D01*
X160951899Y-68370181D01*
X160957152Y-68360415D01*
X160965929Y-68340858D01*
X160970680Y-68324107D01*
X160972233Y-68305192D01*
X160971415Y-68279146D01*
X160971227Y-68275836D01*
X160968338Y-68225931D01*
X161002315Y-68218327D01*
X161040272Y-68203723D01*
X161074793Y-68179027D01*
X161103553Y-68146801D01*
X161124227Y-68109605D01*
X161134109Y-68073185D01*
X161133602Y-68031007D01*
X161121880Y-67986209D01*
X161099650Y-67940558D01*
X161067614Y-67895822D01*
X161059891Y-67886915D01*
X161049551Y-67876667D01*
X161030988Y-67859611D01*
X161005719Y-67837086D01*
X160975261Y-67810432D01*
X160941134Y-67780988D01*
X160905825Y-67750917D01*
X160870140Y-67720701D01*
X160837074Y-67692663D01*
X160808036Y-67668002D01*
X160784434Y-67647916D01*
X160767679Y-67633602D01*
X160759180Y-67626260D01*
X160759088Y-67626178D01*
X160756086Y-67623738D01*
X160752883Y-67622460D01*
X160748801Y-67623064D01*
X160743159Y-67626269D01*
X160735278Y-67632794D01*
X160724477Y-67643359D01*
X160710078Y-67658684D01*
X160691400Y-67679488D01*
X160667763Y-67706490D01*
X160638488Y-67740410D01*
X160602895Y-67781967D01*
X160560305Y-67831881D01*
X160519596Y-67879652D01*
X160477214Y-67929428D01*
X160437354Y-67976306D01*
X160400769Y-68019396D01*
X160368213Y-68057808D01*
X160340439Y-68090651D01*
X160318199Y-68117037D01*
X160302247Y-68136074D01*
X160293335Y-68146872D01*
X160291682Y-68149025D01*
X160066262Y-68149025D01*
X159986256Y-68058500D01*
X159883273Y-67928252D01*
X159764644Y-67759998D01*
X159657185Y-67585771D01*
X159560990Y-67405816D01*
X159476154Y-67220377D01*
X159406498Y-67039374D01*
X159810649Y-67039374D01*
X159814541Y-67086460D01*
X159820199Y-67107475D01*
X159835592Y-67138819D01*
X159859352Y-67169756D01*
X159888180Y-67196939D01*
X159918772Y-67217019D01*
X159934874Y-67223735D01*
X159972394Y-67230953D01*
X160013266Y-67231048D01*
X160052253Y-67224341D01*
X160077150Y-67215016D01*
X160118249Y-67187800D01*
X160150040Y-67152932D01*
X160171788Y-67112093D01*
X160182757Y-67066962D01*
X160182210Y-67019221D01*
X160175896Y-66989489D01*
X160159923Y-66954244D01*
X160134499Y-66920801D01*
X160102788Y-66892417D01*
X160067956Y-66872352D01*
X160058775Y-66868899D01*
X160012096Y-66859680D01*
X159965194Y-66862036D01*
X159920531Y-66875405D01*
X159880568Y-66899221D01*
X159864636Y-66913336D01*
X159836260Y-66950351D01*
X159818077Y-66993184D01*
X159810649Y-67039374D01*
X159406498Y-67039374D01*
X159402774Y-67029699D01*
X159340943Y-66834026D01*
X159290758Y-66633603D01*
X159252313Y-66428674D01*
X159228434Y-66246375D01*
X159223978Y-66193269D01*
X159220550Y-66130157D01*
X159218150Y-66059647D01*
X159216779Y-65984350D01*
X159216435Y-65906874D01*
X159217119Y-65829830D01*
X159217833Y-65798953D01*
X159435893Y-65798953D01*
X159440881Y-65867215D01*
X159455726Y-65929153D01*
X159479920Y-65984028D01*
X159512952Y-66031099D01*
X159554316Y-66069629D01*
X159603501Y-66098875D01*
X159654550Y-66116780D01*
X159672221Y-66120640D01*
X159683999Y-66122105D01*
X159686412Y-66121704D01*
X159687564Y-66114818D01*
X159689059Y-66097554D01*
X159690735Y-66072223D01*
X159692426Y-66041137D01*
X159693088Y-66027226D01*
X159697289Y-65935225D01*
X159665656Y-65921652D01*
X159635976Y-65902670D01*
X159614410Y-65876056D01*
X159600805Y-65843819D01*
X159595005Y-65807965D01*
X159596857Y-65770504D01*
X159606205Y-65733442D01*
X159622895Y-65698788D01*
X159646773Y-65668549D01*
X159677684Y-65644732D01*
X159687360Y-65639594D01*
X159704266Y-65632234D01*
X159715994Y-65628662D01*
X159718913Y-65628846D01*
X159719554Y-65635881D01*
X159719408Y-65653447D01*
X159718543Y-65679402D01*
X159717026Y-65711606D01*
X159715468Y-65739110D01*
X159713249Y-65777811D01*
X159711349Y-65814935D01*
X159709908Y-65847400D01*
X159709068Y-65872123D01*
X159708911Y-65881951D01*
X159708850Y-65917578D01*
X159783462Y-65920950D01*
X159812766Y-65922124D01*
X159837007Y-65922809D01*
X159853623Y-65922953D01*
X159860034Y-65922523D01*
X159860894Y-65915943D01*
X159862221Y-65898501D01*
X159863904Y-65872024D01*
X159865828Y-65838338D01*
X159867882Y-65799266D01*
X159868900Y-65778749D01*
X159871062Y-65737511D01*
X159873294Y-65700584D01*
X159875459Y-65669837D01*
X159877419Y-65647144D01*
X159879037Y-65634374D01*
X159879649Y-65632322D01*
X159887738Y-65631719D01*
X159902923Y-65636845D01*
X159921909Y-65646128D01*
X159941398Y-65657996D01*
X159955190Y-65668341D01*
X159981608Y-65698868D01*
X159998630Y-65737826D01*
X160005865Y-65780339D01*
X160004250Y-65827392D01*
X159992499Y-65867512D01*
X159971084Y-65900031D01*
X159940480Y-65924281D01*
X159901158Y-65939597D01*
X159891408Y-65941696D01*
X159882053Y-65943762D01*
X159875062Y-65947110D01*
X159869979Y-65953490D01*
X159866346Y-65964647D01*
X159863706Y-65982328D01*
X159861601Y-66008281D01*
X159859573Y-66044253D01*
X159858382Y-66067806D01*
X159854920Y-66136888D01*
X159894095Y-66132455D01*
X159921724Y-66127874D01*
X159949900Y-66120957D01*
X159964132Y-66116296D01*
X160019434Y-66088773D01*
X160066901Y-66051454D01*
X160106063Y-66004894D01*
X160136444Y-65949648D01*
X160138661Y-65943129D01*
X160366342Y-65943129D01*
X160366983Y-66005091D01*
X160368662Y-66062358D01*
X160371401Y-66112096D01*
X160374395Y-66144775D01*
X160399208Y-66311706D01*
X160434158Y-66471459D01*
X160479554Y-66624901D01*
X160535703Y-66772896D01*
X160602914Y-66916311D01*
X160681495Y-67056010D01*
X160721701Y-67119500D01*
X160818665Y-67256430D01*
X160923789Y-67383838D01*
X161037454Y-67502089D01*
X161160045Y-67611544D01*
X161291943Y-67712567D01*
X161433532Y-67805521D01*
X161463681Y-67823549D01*
X161594084Y-67893582D01*
X161732573Y-67955308D01*
X161877098Y-68008071D01*
X162025608Y-68051217D01*
X162176054Y-68084090D01*
X162326383Y-68106034D01*
X162356800Y-68109104D01*
X162394095Y-68111697D01*
X162440969Y-68113608D01*
X162494331Y-68114832D01*
X162551090Y-68115363D01*
X162608155Y-68115194D01*
X162662435Y-68114319D01*
X162710840Y-68112733D01*
X162750277Y-68110429D01*
X162756850Y-68109879D01*
X162921115Y-68088923D01*
X163082105Y-68055917D01*
X163239263Y-68011213D01*
X163392033Y-67955167D01*
X163539860Y-67888133D01*
X163682186Y-67810465D01*
X163818456Y-67722518D01*
X163827343Y-67715809D01*
X164229714Y-67715809D01*
X164368893Y-68044717D01*
X164395020Y-68106469D01*
X164419918Y-68165330D01*
X164443099Y-68220149D01*
X164464077Y-68269772D01*
X164482364Y-68313046D01*
X164497473Y-68348821D01*
X164508917Y-68375942D01*
X164516210Y-68393258D01*
X164518473Y-68398661D01*
X164525273Y-68413970D01*
X164530150Y-68419136D01*
X164535907Y-68415807D01*
X164540090Y-68411361D01*
X164548620Y-68402242D01*
X164563911Y-68386144D01*
X164583906Y-68365225D01*
X164606546Y-68341641D01*
X164609960Y-68338094D01*
X164668614Y-68277163D01*
X164633482Y-68198892D01*
X164620525Y-68169435D01*
X164609723Y-68143750D01*
X164602052Y-68124244D01*
X164598486Y-68113322D01*
X164598350Y-68112281D01*
X164602605Y-68105269D01*
X164614426Y-68090872D01*
X164632398Y-68070685D01*
X164655104Y-68046301D01*
X164679312Y-68021169D01*
X164760275Y-67938396D01*
X164928231Y-68007672D01*
X164998686Y-67933473D01*
X165069140Y-67859275D01*
X165048607Y-67850895D01*
X165034544Y-67845344D01*
X165010776Y-67836181D01*
X164978578Y-67823883D01*
X164939227Y-67808932D01*
X164894001Y-67791806D01*
X164844175Y-67772985D01*
X164791027Y-67752948D01*
X164735833Y-67732174D01*
X164679870Y-67711144D01*
X164624414Y-67690336D01*
X164570743Y-67670231D01*
X164520133Y-67651306D01*
X164473860Y-67634043D01*
X164433202Y-67618920D01*
X164399435Y-67606416D01*
X164373836Y-67597012D01*
X164357681Y-67591187D01*
X164352267Y-67589400D01*
X164346287Y-67593809D01*
X164333487Y-67605895D01*
X164315597Y-67623945D01*
X164294348Y-67646245D01*
X164288416Y-67652604D01*
X164229714Y-67715809D01*
X163827343Y-67715809D01*
X163948114Y-67624646D01*
X164070603Y-67517203D01*
X164185368Y-67400543D01*
X164291852Y-67275022D01*
X164389499Y-67140993D01*
X164438271Y-67063445D01*
X164911811Y-67063445D01*
X164922200Y-67105824D01*
X164942001Y-67145810D01*
X164969831Y-67180397D01*
X164994365Y-67200469D01*
X165037251Y-67222918D01*
X165080976Y-67232988D01*
X165127031Y-67230900D01*
X165155030Y-67224316D01*
X165197404Y-67205433D01*
X165232896Y-67176970D01*
X165260112Y-67140796D01*
X165277658Y-67098783D01*
X165284140Y-67052803D01*
X165284150Y-67050959D01*
X165281710Y-67010630D01*
X165273439Y-66977659D01*
X165257911Y-66947492D01*
X165246814Y-66931821D01*
X165214278Y-66898919D01*
X165175625Y-66875753D01*
X165133035Y-66862546D01*
X165088690Y-66859523D01*
X165044770Y-66866906D01*
X165003457Y-66884920D01*
X164977036Y-66904168D01*
X164949816Y-66934827D01*
X164927882Y-66972448D01*
X164914102Y-67011832D01*
X164912214Y-67021679D01*
X164911811Y-67063445D01*
X164438271Y-67063445D01*
X164464387Y-67021922D01*
X164541144Y-66878546D01*
X164606614Y-66729948D01*
X164660686Y-66576933D01*
X164703250Y-66420309D01*
X164734196Y-66260883D01*
X164753414Y-66099461D01*
X164760793Y-65936850D01*
X164756224Y-65773857D01*
X164741879Y-65633600D01*
X164973000Y-65633600D01*
X164973000Y-66217800D01*
X165138100Y-66217800D01*
X165138100Y-65824100D01*
X165258750Y-65824100D01*
X165258750Y-66001525D01*
X165258913Y-66047633D01*
X165259375Y-66089421D01*
X165260092Y-66125257D01*
X165261021Y-66153508D01*
X165262118Y-66172542D01*
X165263341Y-66180728D01*
X165263512Y-66180912D01*
X165271396Y-66181523D01*
X165289280Y-66181719D01*
X165314471Y-66181499D01*
X165342887Y-66180903D01*
X165417500Y-66178931D01*
X165417500Y-65824100D01*
X165518913Y-65824100D01*
X165520594Y-66016187D01*
X165522275Y-66208275D01*
X165600062Y-66210057D01*
X165677850Y-66211840D01*
X165677850Y-65633600D01*
X164973000Y-65633600D01*
X164741879Y-65633600D01*
X164739596Y-65611289D01*
X164710798Y-65449952D01*
X164690624Y-65365447D01*
X164679513Y-65328512D01*
X164911357Y-65328512D01*
X164912211Y-65332357D01*
X164915982Y-65344175D01*
X164922934Y-65364730D01*
X164933329Y-65394787D01*
X164947430Y-65435111D01*
X164965499Y-65486466D01*
X164969800Y-65498662D01*
X164974469Y-65506008D01*
X164975938Y-65506600D01*
X164982387Y-65504560D01*
X164999722Y-65498696D01*
X165026845Y-65489388D01*
X165062658Y-65477015D01*
X165106063Y-65461960D01*
X165155962Y-65444602D01*
X165211258Y-65425321D01*
X165270852Y-65404499D01*
X165307925Y-65391526D01*
X165369490Y-65369959D01*
X165427348Y-65349670D01*
X165480407Y-65331043D01*
X165527580Y-65314462D01*
X165567775Y-65300310D01*
X165599904Y-65288970D01*
X165622878Y-65280825D01*
X165635606Y-65276261D01*
X165637872Y-65275399D01*
X165636466Y-65269364D01*
X165631612Y-65254000D01*
X165624221Y-65231907D01*
X165615204Y-65205686D01*
X165605474Y-65177936D01*
X165595940Y-65151256D01*
X165587515Y-65128248D01*
X165581110Y-65111510D01*
X165577709Y-65103759D01*
X165572532Y-65103401D01*
X165559041Y-65106286D01*
X165536749Y-65112570D01*
X165505173Y-65122411D01*
X165463826Y-65135966D01*
X165412222Y-65153392D01*
X165349877Y-65174846D01*
X165276305Y-65200486D01*
X165242875Y-65212213D01*
X165181175Y-65233887D01*
X165123179Y-65254254D01*
X165069972Y-65272934D01*
X165022641Y-65289544D01*
X164982271Y-65303705D01*
X164949948Y-65315035D01*
X164926759Y-65323152D01*
X164913790Y-65327677D01*
X164911357Y-65328512D01*
X164679513Y-65328512D01*
X164643105Y-65207486D01*
X164584365Y-65054880D01*
X164514905Y-64908092D01*
X164435223Y-64767585D01*
X164418985Y-64743289D01*
X164711447Y-64743289D01*
X164712189Y-64750340D01*
X164716787Y-64767519D01*
X164724622Y-64793070D01*
X164735078Y-64825234D01*
X164747537Y-64862256D01*
X164761380Y-64902378D01*
X164775990Y-64943842D01*
X164790749Y-64984891D01*
X164805039Y-65023767D01*
X164818243Y-65058715D01*
X164829743Y-65087976D01*
X164838921Y-65109792D01*
X164844039Y-65120454D01*
X164866122Y-65153946D01*
X164894085Y-65185821D01*
X164924327Y-65212366D01*
X164947612Y-65227206D01*
X164988562Y-65242833D01*
X165032036Y-65248559D01*
X165080198Y-65244499D01*
X165116662Y-65236227D01*
X165157584Y-65219559D01*
X165196467Y-65193870D01*
X165228369Y-65162505D01*
X165231496Y-65158515D01*
X165253285Y-65122388D01*
X165266510Y-65082043D01*
X165271185Y-65036428D01*
X165267322Y-64984488D01*
X165254936Y-64925170D01*
X165235176Y-64860707D01*
X165204082Y-64770440D01*
X165277453Y-64744612D01*
X165310650Y-64732922D01*
X165343907Y-64721202D01*
X165372947Y-64710962D01*
X165390512Y-64704761D01*
X165410652Y-64696719D01*
X165424936Y-64689248D01*
X165430200Y-64684090D01*
X165428231Y-64676507D01*
X165422943Y-64659773D01*
X165415259Y-64636566D01*
X165406103Y-64609566D01*
X165396399Y-64581453D01*
X165387072Y-64554906D01*
X165379045Y-64532604D01*
X165373244Y-64517227D01*
X165370671Y-64511504D01*
X165364507Y-64513157D01*
X165347704Y-64518610D01*
X165321585Y-64527399D01*
X165287473Y-64539059D01*
X165246691Y-64553125D01*
X165200561Y-64569131D01*
X165150408Y-64586612D01*
X165097554Y-64605104D01*
X165043321Y-64624141D01*
X164989033Y-64643257D01*
X164936013Y-64661988D01*
X164885583Y-64679869D01*
X164839068Y-64696434D01*
X164797789Y-64711219D01*
X164763070Y-64723757D01*
X164736233Y-64733584D01*
X164718602Y-64740235D01*
X164711500Y-64743245D01*
X164711447Y-64743289D01*
X164418985Y-64743289D01*
X164345820Y-64633823D01*
X164247196Y-64507269D01*
X164139850Y-64388387D01*
X164024282Y-64277641D01*
X163900992Y-64175492D01*
X163862284Y-64147884D01*
X164231409Y-64147884D01*
X164236459Y-64155516D01*
X164247756Y-64170100D01*
X164263491Y-64189499D01*
X164281853Y-64211576D01*
X164301031Y-64234192D01*
X164319216Y-64255212D01*
X164334598Y-64272497D01*
X164345365Y-64283910D01*
X164349569Y-64287400D01*
X164356476Y-64283629D01*
X164370476Y-64273593D01*
X164388951Y-64259203D01*
X164395501Y-64253891D01*
X164416728Y-64236511D01*
X164444218Y-64214001D01*
X164474410Y-64189281D01*
X164503565Y-64165408D01*
X164570706Y-64110433D01*
X164648223Y-64205256D01*
X164672490Y-64235172D01*
X164693934Y-64262047D01*
X164711260Y-64284223D01*
X164723172Y-64300038D01*
X164728375Y-64307834D01*
X164728451Y-64308027D01*
X164724552Y-64314277D01*
X164712045Y-64327113D01*
X164692307Y-64345278D01*
X164666718Y-64367512D01*
X164636656Y-64392557D01*
X164629326Y-64398525D01*
X164598291Y-64423798D01*
X164570439Y-64446700D01*
X164547354Y-64465911D01*
X164530619Y-64480110D01*
X164521820Y-64487975D01*
X164521075Y-64488762D01*
X164520952Y-64495399D01*
X164527446Y-64508212D01*
X164541167Y-64528153D01*
X164562725Y-64556174D01*
X164570792Y-64566273D01*
X164591499Y-64591298D01*
X164609888Y-64612161D01*
X164624322Y-64627105D01*
X164633167Y-64634375D01*
X164634622Y-64634785D01*
X164640863Y-64630628D01*
X164655998Y-64619154D01*
X164679101Y-64601103D01*
X164709247Y-64577212D01*
X164745510Y-64548220D01*
X164786965Y-64514866D01*
X164832687Y-64477889D01*
X164881750Y-64438027D01*
X164909574Y-64415344D01*
X164959815Y-64374222D01*
X165006908Y-64335454D01*
X165049966Y-64299786D01*
X165088099Y-64267965D01*
X165120419Y-64240737D01*
X165146037Y-64218850D01*
X165164065Y-64203050D01*
X165173614Y-64194084D01*
X165174927Y-64192327D01*
X165169627Y-64183992D01*
X165158193Y-64168800D01*
X165142435Y-64148926D01*
X165124164Y-64126544D01*
X165105190Y-64103829D01*
X165087325Y-64082954D01*
X165072379Y-64066095D01*
X165062164Y-64055425D01*
X165058722Y-64052794D01*
X165052045Y-64056535D01*
X165037221Y-64067157D01*
X165015872Y-64083424D01*
X164989618Y-64104099D01*
X164960079Y-64127945D01*
X164957690Y-64129897D01*
X164863010Y-64207345D01*
X164841327Y-64182285D01*
X164829489Y-64168277D01*
X164811781Y-64146917D01*
X164790295Y-64120744D01*
X164767122Y-64092300D01*
X164758768Y-64081991D01*
X164697891Y-64006758D01*
X164716383Y-63992045D01*
X164753136Y-63962485D01*
X164787984Y-63933866D01*
X164819601Y-63907332D01*
X164846662Y-63884024D01*
X164867841Y-63865086D01*
X164881811Y-63851662D01*
X164887248Y-63844894D01*
X164887275Y-63844690D01*
X164883433Y-63836558D01*
X164873115Y-63821483D01*
X164858128Y-63801652D01*
X164840279Y-63779252D01*
X164821375Y-63756469D01*
X164803225Y-63735490D01*
X164787636Y-63718501D01*
X164776415Y-63707689D01*
X164771762Y-63704962D01*
X164765229Y-63709184D01*
X164750145Y-63720549D01*
X164727594Y-63738168D01*
X164698662Y-63761152D01*
X164664434Y-63788609D01*
X164625995Y-63819651D01*
X164584432Y-63853387D01*
X164540829Y-63888929D01*
X164496272Y-63925386D01*
X164451846Y-63961869D01*
X164408637Y-63997488D01*
X164367730Y-64031354D01*
X164330211Y-64062576D01*
X164297164Y-64090264D01*
X164269676Y-64113530D01*
X164248831Y-64131484D01*
X164235715Y-64143235D01*
X164231409Y-64147884D01*
X163862284Y-64147884D01*
X163770480Y-64082406D01*
X163633245Y-63998846D01*
X163489788Y-63925274D01*
X163340607Y-63862155D01*
X163186203Y-63809952D01*
X163027076Y-63769129D01*
X162953355Y-63754466D01*
X162826889Y-63736130D01*
X162693562Y-63725273D01*
X162556780Y-63721894D01*
X162419947Y-63725995D01*
X162286469Y-63737577D01*
X162172650Y-63754285D01*
X162012489Y-63789292D01*
X161855788Y-63836288D01*
X161703222Y-63894869D01*
X161555466Y-63964633D01*
X161413193Y-64045177D01*
X161277079Y-64136099D01*
X161147797Y-64236995D01*
X161026023Y-64347463D01*
X160912430Y-64467101D01*
X160845939Y-64546290D01*
X160746001Y-64681153D01*
X160657352Y-64821805D01*
X160580054Y-64968096D01*
X160514171Y-65119874D01*
X160459766Y-65276991D01*
X160416902Y-65439294D01*
X160385642Y-65606633D01*
X160377980Y-65662175D01*
X160373743Y-65705064D01*
X160370440Y-65757441D01*
X160368092Y-65816468D01*
X160366718Y-65879309D01*
X160366342Y-65943129D01*
X160138661Y-65943129D01*
X160156387Y-65891028D01*
X160162055Y-65858474D01*
X160165188Y-65818158D01*
X160165786Y-65774588D01*
X160163851Y-65732273D01*
X160159384Y-65695721D01*
X160156326Y-65681488D01*
X160134517Y-65622222D01*
X160102076Y-65568457D01*
X160060381Y-65521560D01*
X160010810Y-65482901D01*
X159954740Y-65453847D01*
X159913500Y-65440250D01*
X159841164Y-65427484D01*
X159770129Y-65426573D01*
X159721271Y-65433189D01*
X159663604Y-65448718D01*
X159614089Y-65471180D01*
X159569243Y-65502417D01*
X159540497Y-65528747D01*
X159499427Y-65576767D01*
X159469053Y-65628604D01*
X159448791Y-65685773D01*
X159438054Y-65749786D01*
X159435893Y-65798953D01*
X159217833Y-65798953D01*
X159218831Y-65755827D01*
X159221569Y-65687474D01*
X159225334Y-65627383D01*
X159228507Y-65592325D01*
X159256846Y-65382319D01*
X159296831Y-65177324D01*
X159333838Y-65033954D01*
X159570637Y-65033954D01*
X159577032Y-65037037D01*
X159593777Y-65044379D01*
X159619485Y-65055393D01*
X159652768Y-65069489D01*
X159692238Y-65086079D01*
X159736507Y-65104574D01*
X159769869Y-65118448D01*
X159817983Y-65138493D01*
X159863409Y-65157559D01*
X159904534Y-65174959D01*
X159939747Y-65190005D01*
X159967435Y-65202010D01*
X159985985Y-65210286D01*
X159992164Y-65213229D01*
X160018600Y-65228981D01*
X160042273Y-65247075D01*
X160059602Y-65264602D01*
X160064738Y-65272189D01*
X160066651Y-65287620D01*
X160060954Y-65308374D01*
X160049066Y-65330841D01*
X160034413Y-65349371D01*
X160024821Y-65361583D01*
X160021790Y-65370202D01*
X160022359Y-65371375D01*
X160030067Y-65375542D01*
X160046640Y-65382762D01*
X160068975Y-65391839D01*
X160093969Y-65401576D01*
X160118519Y-65410777D01*
X160139523Y-65418245D01*
X160153876Y-65422784D01*
X160157789Y-65423597D01*
X160166105Y-65419235D01*
X160177605Y-65407789D01*
X160181349Y-65403144D01*
X160209076Y-65358109D01*
X160226416Y-65310416D01*
X160233070Y-65262090D01*
X160228739Y-65215158D01*
X160214936Y-65175235D01*
X160192234Y-65139969D01*
X160159810Y-65105063D01*
X160120444Y-65073126D01*
X160079865Y-65048290D01*
X160060259Y-65038681D01*
X160031535Y-65025403D01*
X159996319Y-65009630D01*
X159957233Y-64992535D01*
X159916900Y-64975291D01*
X159912050Y-64973246D01*
X159875229Y-64957695D01*
X159842564Y-64943802D01*
X159815799Y-64932317D01*
X159796679Y-64923991D01*
X159786948Y-64919572D01*
X159786093Y-64919098D01*
X159787314Y-64912804D01*
X159792098Y-64897593D01*
X159799385Y-64876380D01*
X159808112Y-64852078D01*
X159817221Y-64827598D01*
X159825649Y-64805855D01*
X159832337Y-64789760D01*
X159835633Y-64783049D01*
X159840214Y-64782197D01*
X159851642Y-64784336D01*
X159870652Y-64789710D01*
X159897975Y-64798566D01*
X159934344Y-64811147D01*
X159980492Y-64827698D01*
X160037151Y-64848465D01*
X160089294Y-64867814D01*
X160142600Y-64887636D01*
X160192207Y-64906007D01*
X160236854Y-64922466D01*
X160275281Y-64936552D01*
X160306226Y-64947803D01*
X160328428Y-64955758D01*
X160340626Y-64959954D01*
X160342578Y-64960500D01*
X160346724Y-64954974D01*
X160353632Y-64940337D01*
X160361961Y-64919495D01*
X160363816Y-64914462D01*
X160374910Y-64884207D01*
X160387118Y-64851358D01*
X160396495Y-64826461D01*
X160412453Y-64784498D01*
X160093989Y-64665937D01*
X160033186Y-64643326D01*
X159975719Y-64622006D01*
X159922733Y-64602398D01*
X159875378Y-64584925D01*
X159834800Y-64570009D01*
X159802147Y-64558072D01*
X159778566Y-64549536D01*
X159765204Y-64544824D01*
X159762796Y-64544055D01*
X159759318Y-64544099D01*
X159755497Y-64546726D01*
X159750887Y-64552974D01*
X159745041Y-64563879D01*
X159737514Y-64580479D01*
X159727859Y-64603810D01*
X159715630Y-64634911D01*
X159700382Y-64674817D01*
X159681668Y-64724568D01*
X159659041Y-64785198D01*
X159658815Y-64785806D01*
X159639249Y-64838620D01*
X159621266Y-64887674D01*
X159605315Y-64931710D01*
X159591843Y-64969466D01*
X159581297Y-64999683D01*
X159574126Y-65021101D01*
X159570778Y-65032459D01*
X159570637Y-65033954D01*
X159333838Y-65033954D01*
X159348436Y-64977401D01*
X159411638Y-64782611D01*
X159486411Y-64593014D01*
X159572730Y-64408670D01*
X159659218Y-64250412D01*
X159923397Y-64250412D01*
X159929168Y-64254994D01*
X159944112Y-64266547D01*
X159967292Y-64284353D01*
X159997771Y-64307696D01*
X160034612Y-64335860D01*
X160076879Y-64368129D01*
X160123634Y-64403785D01*
X160173940Y-64442113D01*
X160203428Y-64464563D01*
X160478931Y-64674260D01*
X160489828Y-64660217D01*
X160495902Y-64652292D01*
X160508810Y-64635379D01*
X160527700Y-64610597D01*
X160551719Y-64579067D01*
X160580012Y-64541910D01*
X160611726Y-64500245D01*
X160646010Y-64455193D01*
X160666683Y-64428020D01*
X160832642Y-64209866D01*
X160770969Y-64162908D01*
X160746898Y-64144838D01*
X160726475Y-64129992D01*
X160711803Y-64119866D01*
X160704988Y-64115955D01*
X160704910Y-64115950D01*
X160700116Y-64120815D01*
X160688658Y-64134586D01*
X160671512Y-64156024D01*
X160649655Y-64183889D01*
X160624064Y-64216943D01*
X160595715Y-64253948D01*
X160584755Y-64268350D01*
X160555599Y-64306510D01*
X160528790Y-64341174D01*
X160505313Y-64371103D01*
X160486154Y-64395056D01*
X160472295Y-64411794D01*
X160464724Y-64420076D01*
X160463717Y-64420750D01*
X160456739Y-64417205D01*
X160442851Y-64407988D01*
X160424910Y-64395220D01*
X160405772Y-64381022D01*
X160388293Y-64367517D01*
X160375330Y-64356828D01*
X160369739Y-64351076D01*
X160369697Y-64350900D01*
X160373332Y-64345228D01*
X160383723Y-64330790D01*
X160399896Y-64308893D01*
X160420876Y-64280847D01*
X160445689Y-64247960D01*
X160473360Y-64211542D01*
X160477760Y-64205772D01*
X160509497Y-64164073D01*
X160534195Y-64131264D01*
X160552595Y-64106197D01*
X160565436Y-64087722D01*
X160573458Y-64074691D01*
X160577400Y-64065954D01*
X160578004Y-64060362D01*
X160576007Y-64056767D01*
X160574501Y-64055525D01*
X160564590Y-64048226D01*
X160547399Y-64035376D01*
X160525765Y-64019101D01*
X160512125Y-64008798D01*
X160487417Y-63990741D01*
X160470689Y-63980222D01*
X160460371Y-63976406D01*
X160454975Y-63978354D01*
X160450177Y-63984601D01*
X160438927Y-63999344D01*
X160422453Y-64020968D01*
X160401984Y-64047855D01*
X160378750Y-64078390D01*
X160353980Y-64110955D01*
X160328904Y-64143936D01*
X160304750Y-64175714D01*
X160282748Y-64204675D01*
X160264127Y-64229201D01*
X160250117Y-64247677D01*
X160244848Y-64254639D01*
X160239429Y-64252097D01*
X160226427Y-64243437D01*
X160208295Y-64230326D01*
X160201490Y-64225219D01*
X160159767Y-64193635D01*
X160274085Y-64043511D01*
X160302990Y-64005442D01*
X160329311Y-63970561D01*
X160352083Y-63940166D01*
X160370339Y-63915554D01*
X160383113Y-63898024D01*
X160389437Y-63888873D01*
X160389939Y-63887935D01*
X160385875Y-63881999D01*
X160373827Y-63870636D01*
X160356204Y-63855718D01*
X160335418Y-63839113D01*
X160313880Y-63822691D01*
X160294001Y-63808322D01*
X160278190Y-63797875D01*
X160268860Y-63793220D01*
X160267772Y-63793196D01*
X160262218Y-63798723D01*
X160250189Y-63813086D01*
X160232617Y-63835051D01*
X160210434Y-63863381D01*
X160184570Y-63896839D01*
X160155956Y-63934189D01*
X160125524Y-63974196D01*
X160094205Y-64015621D01*
X160062931Y-64057231D01*
X160032631Y-64097787D01*
X160004238Y-64136054D01*
X159978683Y-64170795D01*
X159956897Y-64200775D01*
X159939810Y-64224756D01*
X159928355Y-64241503D01*
X159923462Y-64249779D01*
X159923397Y-64250412D01*
X159659218Y-64250412D01*
X159670571Y-64229640D01*
X159779909Y-64055985D01*
X159900719Y-63887765D01*
X159950776Y-63823850D01*
X160084093Y-63667629D01*
X160170013Y-63578569D01*
X160493768Y-63578569D01*
X160497512Y-63585111D01*
X160507905Y-63600663D01*
X160524118Y-63624079D01*
X160545322Y-63654218D01*
X160570688Y-63689933D01*
X160599385Y-63730083D01*
X160630586Y-63773522D01*
X160663461Y-63819107D01*
X160697180Y-63865694D01*
X160730914Y-63912138D01*
X160763835Y-63957297D01*
X160795111Y-64000026D01*
X160823915Y-64039181D01*
X160849417Y-64073618D01*
X160870788Y-64102193D01*
X160887198Y-64123763D01*
X160897818Y-64137184D01*
X160901756Y-64141350D01*
X160908265Y-64137795D01*
X160922962Y-64128052D01*
X160943836Y-64113502D01*
X160968878Y-64095526D01*
X160975895Y-64090410D01*
X161001553Y-64071346D01*
X161023240Y-64054679D01*
X161039007Y-64041948D01*
X161046906Y-64034691D01*
X161047428Y-64033899D01*
X161044482Y-64027209D01*
X161035133Y-64012062D01*
X161020542Y-63990201D01*
X161001871Y-63963372D01*
X160982726Y-63936679D01*
X160916120Y-63845031D01*
X160925695Y-63803057D01*
X160932226Y-63779351D01*
X160938467Y-63766011D01*
X160942772Y-63763621D01*
X160959993Y-63769167D01*
X160985663Y-63777073D01*
X161017843Y-63786773D01*
X161054594Y-63797703D01*
X161093976Y-63809299D01*
X161134052Y-63820997D01*
X161172881Y-63832231D01*
X161208525Y-63842437D01*
X161239045Y-63851052D01*
X161262501Y-63857509D01*
X161276955Y-63861246D01*
X161280569Y-63861950D01*
X161288108Y-63858420D01*
X161303775Y-63848806D01*
X161325480Y-63834570D01*
X161351136Y-63817173D01*
X161378655Y-63798077D01*
X161405949Y-63778743D01*
X161430929Y-63760633D01*
X161451508Y-63745209D01*
X161465597Y-63733933D01*
X161470908Y-63728707D01*
X161465606Y-63726093D01*
X161449346Y-63720459D01*
X161425069Y-63712725D01*
X163600369Y-63712725D01*
X163605007Y-63717769D01*
X163618080Y-63727937D01*
X163637326Y-63741728D01*
X163660485Y-63757641D01*
X163685296Y-63774178D01*
X163709498Y-63789836D01*
X163730830Y-63803118D01*
X163747031Y-63812521D01*
X163755839Y-63816546D01*
X163756718Y-63816464D01*
X163760535Y-63810715D01*
X163770155Y-63795818D01*
X163784573Y-63773341D01*
X163802783Y-63744855D01*
X163823778Y-63711930D01*
X163833378Y-63696850D01*
X163855190Y-63662574D01*
X163874572Y-63632123D01*
X163890532Y-63607049D01*
X163902083Y-63588907D01*
X163908236Y-63579251D01*
X163908976Y-63578094D01*
X163914313Y-63580965D01*
X163928734Y-63589719D01*
X163950645Y-63603362D01*
X163978452Y-63620899D01*
X164010562Y-63641336D01*
X164019435Y-63647012D01*
X164056242Y-63670660D01*
X164083572Y-63688552D01*
X164102675Y-63701727D01*
X164114803Y-63711227D01*
X164121206Y-63718092D01*
X164123135Y-63723363D01*
X164121841Y-63728080D01*
X164120190Y-63730843D01*
X164083253Y-63787858D01*
X164052903Y-63835161D01*
X164028650Y-63873589D01*
X164010002Y-63903974D01*
X163996470Y-63927151D01*
X163987563Y-63943955D01*
X163982791Y-63955219D01*
X163981662Y-63961778D01*
X163982995Y-63964164D01*
X163991518Y-63969612D01*
X164008255Y-63980531D01*
X164030839Y-63995370D01*
X164056902Y-64012577D01*
X164058600Y-64013700D01*
X164084429Y-64030494D01*
X164106655Y-64044379D01*
X164123040Y-64053997D01*
X164131345Y-64057990D01*
X164131625Y-64058027D01*
X164136142Y-64052862D01*
X164146804Y-64037944D01*
X164162966Y-64014251D01*
X164183981Y-63982762D01*
X164209203Y-63944456D01*
X164237986Y-63900309D01*
X164269685Y-63851302D01*
X164303652Y-63798413D01*
X164322125Y-63769501D01*
X164356957Y-63714725D01*
X164389636Y-63663016D01*
X164419536Y-63615387D01*
X164446030Y-63572854D01*
X164468489Y-63536431D01*
X164486287Y-63507131D01*
X164498797Y-63485971D01*
X164505391Y-63473962D01*
X164506275Y-63471687D01*
X164501322Y-63466242D01*
X164488003Y-63455513D01*
X164468625Y-63441098D01*
X164445495Y-63424595D01*
X164420922Y-63407601D01*
X164397213Y-63391714D01*
X164376676Y-63378530D01*
X164361618Y-63369649D01*
X164354545Y-63366650D01*
X164350803Y-63371753D01*
X164341357Y-63385975D01*
X164327265Y-63407684D01*
X164309583Y-63435251D01*
X164289371Y-63467042D01*
X164286701Y-63471262D01*
X164266079Y-63503522D01*
X164247619Y-63531763D01*
X164232426Y-63554342D01*
X164221608Y-63569620D01*
X164216269Y-63575955D01*
X164216052Y-63576037D01*
X164209756Y-63572839D01*
X164194831Y-63564004D01*
X164173296Y-63550811D01*
X164147172Y-63534543D01*
X164118480Y-63516478D01*
X164089241Y-63497897D01*
X164061474Y-63480081D01*
X164037202Y-63464310D01*
X164018443Y-63451865D01*
X164007220Y-63444025D01*
X164005351Y-63442520D01*
X164006863Y-63435785D01*
X164014495Y-63420069D01*
X164027351Y-63396972D01*
X164044534Y-63368100D01*
X164065148Y-63335055D01*
X164067639Y-63331152D01*
X164088082Y-63298585D01*
X164105487Y-63269679D01*
X164118911Y-63246099D01*
X164127412Y-63229512D01*
X164130049Y-63221581D01*
X164129835Y-63221206D01*
X164091869Y-63196543D01*
X164056603Y-63174501D01*
X164025502Y-63155922D01*
X164000032Y-63141647D01*
X163981658Y-63132520D01*
X163971847Y-63129381D01*
X163970727Y-63129819D01*
X163966590Y-63136281D01*
X163956251Y-63152427D01*
X163940357Y-63177244D01*
X163919555Y-63209723D01*
X163894493Y-63248852D01*
X163865819Y-63293620D01*
X163834179Y-63343017D01*
X163800223Y-63396030D01*
X163783980Y-63421388D01*
X163749253Y-63475690D01*
X163716648Y-63526838D01*
X163686803Y-63573822D01*
X163660352Y-63615635D01*
X163637930Y-63651268D01*
X163620174Y-63679713D01*
X163607719Y-63699962D01*
X163601201Y-63711005D01*
X163600369Y-63712725D01*
X161425069Y-63712725D01*
X161423402Y-63712194D01*
X161389052Y-63701686D01*
X161347570Y-63689323D01*
X161300232Y-63675493D01*
X161248314Y-63660585D01*
X161228795Y-63655041D01*
X161175166Y-63639810D01*
X161125318Y-63625565D01*
X161080583Y-63612692D01*
X161042294Y-63601581D01*
X161011786Y-63592618D01*
X160990391Y-63586191D01*
X160979443Y-63582687D01*
X160978344Y-63582235D01*
X160978281Y-63575420D01*
X160980700Y-63557680D01*
X160985329Y-63530486D01*
X160991896Y-63495310D01*
X161000130Y-63453625D01*
X161009758Y-63406903D01*
X161017032Y-63372685D01*
X161027586Y-63323302D01*
X161037148Y-63277920D01*
X161045416Y-63238020D01*
X161052090Y-63205080D01*
X161056869Y-63180582D01*
X161059450Y-63166005D01*
X161059797Y-63162513D01*
X161054459Y-63164542D01*
X161040934Y-63172944D01*
X161021097Y-63186346D01*
X160996827Y-63203379D01*
X160970002Y-63222670D01*
X160942499Y-63242848D01*
X160916196Y-63262543D01*
X160892970Y-63280382D01*
X160874699Y-63294995D01*
X160863261Y-63305010D01*
X160860610Y-63307985D01*
X160857537Y-63316959D01*
X160852478Y-63336666D01*
X160845824Y-63365365D01*
X160837966Y-63401314D01*
X160829294Y-63442770D01*
X160820200Y-63487992D01*
X160820024Y-63488887D01*
X160811108Y-63533433D01*
X160802805Y-63573588D01*
X160795468Y-63607757D01*
X160789447Y-63634345D01*
X160785095Y-63651755D01*
X160782762Y-63658393D01*
X160782688Y-63658413D01*
X160777922Y-63653398D01*
X160767047Y-63639674D01*
X160751310Y-63618886D01*
X160731957Y-63592679D01*
X160712073Y-63565255D01*
X160690303Y-63535342D01*
X160670780Y-63509197D01*
X160654807Y-63488509D01*
X160643687Y-63474969D01*
X160638897Y-63470290D01*
X160631216Y-63472971D01*
X160616073Y-63481997D01*
X160595764Y-63495655D01*
X160572584Y-63512232D01*
X160548828Y-63530017D01*
X160526791Y-63547298D01*
X160508767Y-63562361D01*
X160497053Y-63573495D01*
X160493768Y-63578569D01*
X160170013Y-63578569D01*
X160225980Y-63520557D01*
X160375951Y-63382916D01*
X160533519Y-63254991D01*
X160698196Y-63137065D01*
X160763354Y-63096119D01*
X161209163Y-63096119D01*
X161209901Y-63102985D01*
X161214367Y-63118785D01*
X161221541Y-63140719D01*
X161230404Y-63165991D01*
X161239934Y-63191802D01*
X161249111Y-63215355D01*
X161256915Y-63233852D01*
X161262325Y-63244496D01*
X161263832Y-63246000D01*
X161270900Y-63243935D01*
X161287863Y-63238213D01*
X161312689Y-63229542D01*
X161343346Y-63218629D01*
X161370563Y-63208812D01*
X161473098Y-63171625D01*
X161536372Y-63346925D01*
X161554207Y-63396370D01*
X161572182Y-63446257D01*
X161589399Y-63494097D01*
X161604965Y-63537403D01*
X161617984Y-63573684D01*
X161627385Y-63599959D01*
X161638254Y-63628969D01*
X161648266Y-63653069D01*
X161656416Y-63670014D01*
X161661697Y-63677559D01*
X161662253Y-63677746D01*
X161670574Y-63675717D01*
X161688408Y-63670117D01*
X161713340Y-63661742D01*
X161742959Y-63651387D01*
X161751153Y-63648460D01*
X161781048Y-63637676D01*
X161806294Y-63628458D01*
X161824665Y-63621629D01*
X161833937Y-63618008D01*
X161834603Y-63617677D01*
X161832875Y-63611600D01*
X161827250Y-63594820D01*
X161818163Y-63568574D01*
X161806049Y-63534097D01*
X161791345Y-63492626D01*
X161774485Y-63445396D01*
X161755906Y-63393644D01*
X161744806Y-63362854D01*
X161719449Y-63292099D01*
X161698669Y-63232980D01*
X161682406Y-63185312D01*
X161670600Y-63148908D01*
X161663189Y-63123584D01*
X161660112Y-63109152D01*
X161660578Y-63105383D01*
X161668835Y-63101913D01*
X161686803Y-63095055D01*
X161712217Y-63085650D01*
X161742813Y-63074541D01*
X161759900Y-63068415D01*
X161792156Y-63056676D01*
X161820244Y-63046040D01*
X161841940Y-63037380D01*
X161855024Y-63031569D01*
X161857689Y-63029961D01*
X161857580Y-63022600D01*
X161853993Y-63006240D01*
X161847848Y-62983797D01*
X161840065Y-62958184D01*
X161831565Y-62932317D01*
X161823266Y-62909112D01*
X161816090Y-62891484D01*
X161811177Y-62882588D01*
X161804818Y-62883961D01*
X161787908Y-62889186D01*
X161761832Y-62897771D01*
X161727975Y-62909225D01*
X161687720Y-62923057D01*
X161642453Y-62938777D01*
X161593557Y-62955892D01*
X161542417Y-62973913D01*
X161490417Y-62992348D01*
X161438942Y-63010705D01*
X161389375Y-63028495D01*
X161343102Y-63045226D01*
X161301507Y-63060406D01*
X161265973Y-63073546D01*
X161237886Y-63084153D01*
X161218630Y-63091738D01*
X161209589Y-63095808D01*
X161209163Y-63096119D01*
X160763354Y-63096119D01*
X160869494Y-63029421D01*
X161046928Y-62932345D01*
X161230008Y-62846118D01*
X161273894Y-62828611D01*
X162073837Y-62828611D01*
X162074013Y-62835035D01*
X162074950Y-62852987D01*
X162076580Y-62881320D01*
X162078831Y-62918889D01*
X162081634Y-62964547D01*
X162084919Y-63017149D01*
X162088616Y-63075550D01*
X162092654Y-63138604D01*
X162095414Y-63181323D01*
X162118190Y-63532571D01*
X162147007Y-63529200D01*
X162166054Y-63527326D01*
X162193316Y-63525088D01*
X162224329Y-63522839D01*
X162240912Y-63521754D01*
X162270134Y-63519823D01*
X162288963Y-63517952D01*
X162299684Y-63515415D01*
X162304581Y-63511486D01*
X162305936Y-63505440D01*
X162306000Y-63501072D01*
X162305579Y-63489231D01*
X162304417Y-63467288D01*
X162302665Y-63437810D01*
X162300472Y-63403365D01*
X162298963Y-63380735D01*
X162296740Y-63345889D01*
X162295084Y-63315755D01*
X162294093Y-63292488D01*
X162293863Y-63278243D01*
X162294201Y-63274800D01*
X162300980Y-63273646D01*
X162318264Y-63271870D01*
X162343887Y-63269662D01*
X162375680Y-63267213D01*
X162399363Y-63265533D01*
X162455952Y-63260707D01*
X162502076Y-63254459D01*
X162539939Y-63246251D01*
X162571747Y-63235544D01*
X162599702Y-63221802D01*
X162607289Y-63217099D01*
X162865680Y-63217099D01*
X162866054Y-63283401D01*
X162877860Y-63346221D01*
X162900512Y-63404605D01*
X162933424Y-63457601D01*
X162976012Y-63504255D01*
X163027690Y-63543613D01*
X163087872Y-63574722D01*
X163151965Y-63595663D01*
X163195197Y-63603295D01*
X163243337Y-63606942D01*
X163290954Y-63606446D01*
X163332616Y-63601649D01*
X163335974Y-63600984D01*
X163394742Y-63582669D01*
X163447886Y-63554041D01*
X163494788Y-63516457D01*
X163534831Y-63471274D01*
X163567397Y-63419850D01*
X163591870Y-63363543D01*
X163607632Y-63303710D01*
X163614065Y-63241708D01*
X163610553Y-63178895D01*
X163596478Y-63116630D01*
X163577755Y-63069285D01*
X163559137Y-63038868D01*
X163532198Y-63005897D01*
X163500022Y-62973412D01*
X163465693Y-62944449D01*
X163432292Y-62922047D01*
X163423600Y-62917400D01*
X163368878Y-62895160D01*
X163309340Y-62879870D01*
X163248267Y-62871888D01*
X163188940Y-62871576D01*
X163134639Y-62879294D01*
X163117881Y-62883819D01*
X163057640Y-62908867D01*
X163004054Y-62944323D01*
X162957894Y-62989339D01*
X162919931Y-63043068D01*
X162890933Y-63104665D01*
X162877322Y-63148270D01*
X162865680Y-63217099D01*
X162607289Y-63217099D01*
X162613374Y-63213328D01*
X162652212Y-63180579D01*
X162680473Y-63140822D01*
X162698126Y-63094128D01*
X162705136Y-63040569D01*
X162704804Y-63014117D01*
X162696654Y-62960497D01*
X162678226Y-62914337D01*
X162649525Y-62875641D01*
X162610553Y-62844414D01*
X162582276Y-62829281D01*
X162562705Y-62821225D01*
X162542223Y-62814975D01*
X162519314Y-62810460D01*
X162492465Y-62807612D01*
X162460162Y-62806360D01*
X162420889Y-62806635D01*
X162373133Y-62808366D01*
X162315378Y-62811483D01*
X162265130Y-62814654D01*
X162217438Y-62817833D01*
X162174048Y-62820810D01*
X162136523Y-62823471D01*
X162106424Y-62825703D01*
X162085314Y-62827392D01*
X162074755Y-62828423D01*
X162073837Y-62828611D01*
X161273894Y-62828611D01*
X161418249Y-62771025D01*
X161611163Y-62707350D01*
X161808263Y-62655376D01*
X162009061Y-62615387D01*
X162033164Y-62611442D01*
X162235617Y-62585467D01*
X162439567Y-62571938D01*
X162644190Y-62570817D01*
X162848666Y-62582062D01*
X162848666Y-62582062D01*
G37*
X162848666Y-62582062D02*
X163052173Y-62605635D01*
X163253890Y-62641495D01*
X163410900Y-62678345D01*
X163591559Y-62731387D01*
X163771585Y-62796001D01*
X163949307Y-62871357D01*
X164123055Y-62956626D01*
X164291159Y-63050977D01*
X164451948Y-63153583D01*
X164603752Y-63263613D01*
X164628361Y-63282851D01*
X164780236Y-63410331D01*
X164925183Y-63546951D01*
X165061948Y-63691373D01*
X165189278Y-63842257D01*
X165305920Y-63998263D01*
X165329411Y-64032242D01*
X165439610Y-64205013D01*
X165538351Y-64382795D01*
X165625599Y-64565049D01*
X165701317Y-64751239D01*
X165765469Y-64940826D01*
X165818020Y-65133273D01*
X165858932Y-65328043D01*
X165888171Y-65524597D01*
X165905699Y-65722399D01*
X165911481Y-65920911D01*
X165905481Y-66119594D01*
X165887663Y-66317913D01*
X165857990Y-66515328D01*
X165816426Y-66711304D01*
X165762936Y-66905301D01*
X165697484Y-67096782D01*
X165620032Y-67285211D01*
X165556754Y-67418812D01*
X165459786Y-67598394D01*
X165352363Y-67771108D01*
X165234951Y-67936541D01*
X165108012Y-68094282D01*
X164972011Y-68243917D01*
X164827412Y-68385035D01*
X164674680Y-68517224D01*
X164514278Y-68640072D01*
X164346670Y-68753166D01*
X164172321Y-68856094D01*
X163991694Y-68948445D01*
X163805254Y-69029805D01*
X163696048Y-69071289D01*
X163503433Y-69134027D01*
X163307502Y-69184802D01*
X163107635Y-69223747D01*
X162903212Y-69250998D01*
X162847916Y-69256302D01*
X162800047Y-69259612D01*
X162742333Y-69262123D01*
X162677444Y-69263837D01*
X162608051Y-69264755D01*
X162536823Y-69264880D01*
X162466432Y-69264213D01*
X162399546Y-69262756D01*
X162338838Y-69260511D01*
X162286976Y-69257479D01*
X162267900Y-69255919D01*
X162062591Y-69230933D01*
X161860613Y-69193849D01*
X161662411Y-69144916D01*
X161468433Y-69084381D01*
X161339930Y-69035584D01*
X161959405Y-69035584D01*
X161959435Y-69035652D01*
X161966469Y-69037434D01*
X161983837Y-69040340D01*
X162009257Y-69044029D01*
X162040447Y-69048160D01*
X162056429Y-69050154D01*
X162150425Y-69061658D01*
X162165477Y-69042689D01*
X162195138Y-69005446D01*
X162226898Y-68965804D01*
X162259805Y-68924929D01*
X162292912Y-68883983D01*
X162325268Y-68844129D01*
X162355924Y-68806529D01*
X162383930Y-68772349D01*
X162408336Y-68742750D01*
X162428194Y-68718895D01*
X162442552Y-68701948D01*
X162450462Y-68693072D01*
X162451721Y-68692078D01*
X162450878Y-68699502D01*
X162448647Y-68717949D01*
X162445222Y-68745839D01*
X162440799Y-68781595D01*
X162435573Y-68823639D01*
X162429738Y-68870391D01*
X162427141Y-68891150D01*
X162421247Y-68939341D01*
X162416124Y-68983438D01*
X162411931Y-69021875D01*
X162408830Y-69053087D01*
X162406982Y-69075507D01*
X162406547Y-69087569D01*
X162406831Y-69089179D01*
X162414120Y-69091425D01*
X162431168Y-69094679D01*
X162455113Y-69098537D01*
X162483092Y-69102598D01*
X162512244Y-69106456D01*
X162539705Y-69109710D01*
X162562614Y-69111955D01*
X162573580Y-69112677D01*
X162585634Y-69111140D01*
X162591626Y-69102708D01*
X162593858Y-69092762D01*
X162596250Y-69076809D01*
X162599743Y-69050830D01*
X162604171Y-69016234D01*
X162609372Y-68974433D01*
X162615180Y-68926838D01*
X162621432Y-68874859D01*
X162627963Y-68819909D01*
X162634609Y-68763397D01*
X162641206Y-68706735D01*
X162645502Y-68669450D01*
X162808652Y-68669450D01*
X162809299Y-68693196D01*
X162814957Y-68754585D01*
X162826939Y-68808007D01*
X162846330Y-68857062D01*
X162872162Y-68902229D01*
X162913068Y-68954208D01*
X162960903Y-68995799D01*
X163014909Y-69026726D01*
X163074329Y-69046712D01*
X163138404Y-69055478D01*
X163206376Y-69052748D01*
X163257785Y-69043393D01*
X163322276Y-69022536D01*
X163379780Y-68992988D01*
X163429250Y-68955640D01*
X163469635Y-68911383D01*
X163499886Y-68861110D01*
X163513454Y-68826158D01*
X163520578Y-68793091D01*
X163524510Y-68752869D01*
X163525002Y-68710687D01*
X163521804Y-68671745D01*
X163521049Y-68666851D01*
X163519852Y-68657754D01*
X163518532Y-68651251D01*
X163515358Y-68647393D01*
X163508593Y-68646233D01*
X163496505Y-68647822D01*
X163477359Y-68652213D01*
X163449421Y-68659457D01*
X163410958Y-68669607D01*
X163408626Y-68670218D01*
X163333328Y-68689943D01*
X163337298Y-68719873D01*
X163337722Y-68764730D01*
X163327116Y-68804356D01*
X163306429Y-68837747D01*
X163276605Y-68863901D01*
X163238593Y-68881814D01*
X163193337Y-68890484D01*
X163175642Y-68891150D01*
X163132687Y-68886041D01*
X163095512Y-68870394D01*
X163063451Y-68843728D01*
X163035834Y-68805562D01*
X163023208Y-68781436D01*
X163005699Y-68733861D01*
X162996555Y-68684649D01*
X162995898Y-68636730D01*
X163003853Y-68593034D01*
X163014207Y-68567300D01*
X163031956Y-68543070D01*
X163058195Y-68519521D01*
X163089008Y-68500026D01*
X163096575Y-68496359D01*
X163127238Y-68486564D01*
X163162096Y-68481876D01*
X163196664Y-68482398D01*
X163226457Y-68488234D01*
X163237987Y-68493082D01*
X163253128Y-68504473D01*
X163270450Y-68522005D01*
X163286183Y-68541371D01*
X163296559Y-68558267D01*
X163297825Y-68561450D01*
X163304058Y-68561539D01*
X163319939Y-68559039D01*
X163342821Y-68554558D01*
X163370063Y-68548704D01*
X163399018Y-68542082D01*
X163427042Y-68535301D01*
X163451491Y-68528968D01*
X163469721Y-68523690D01*
X163479087Y-68520073D01*
X163479553Y-68519723D01*
X163477947Y-68513552D01*
X163471885Y-68499006D01*
X163462615Y-68479055D01*
X163461162Y-68476059D01*
X163429778Y-68425264D01*
X163390082Y-68383684D01*
X163342924Y-68351737D01*
X163289154Y-68329844D01*
X163229622Y-68318424D01*
X163165177Y-68317896D01*
X163144817Y-68319948D01*
X163072165Y-68334461D01*
X163006848Y-68358694D01*
X162949397Y-68392326D01*
X162900339Y-68435041D01*
X162860204Y-68486518D01*
X162855406Y-68494275D01*
X162833227Y-68536101D01*
X162818634Y-68576687D01*
X162810738Y-68619860D01*
X162808652Y-68669450D01*
X162645502Y-68669450D01*
X162647590Y-68651334D01*
X162653596Y-68598604D01*
X162659060Y-68549957D01*
X162663818Y-68506804D01*
X162667705Y-68470556D01*
X162670558Y-68442623D01*
X162672212Y-68424417D01*
X162672502Y-68417348D01*
X162672483Y-68417316D01*
X162665273Y-68415408D01*
X162647805Y-68412498D01*
X162622447Y-68408933D01*
X162591570Y-68405064D01*
X162580215Y-68403739D01*
X162491343Y-68393556D01*
X162518465Y-68367197D01*
X162537518Y-68343936D01*
X162554315Y-68314997D01*
X162566700Y-68284898D01*
X162572515Y-68258159D01*
X162572700Y-68253557D01*
X162571726Y-68245812D01*
X162567015Y-68240931D01*
X162555878Y-68237795D01*
X162535629Y-68235289D01*
X162526662Y-68234427D01*
X162502368Y-68231859D01*
X162482096Y-68229195D01*
X162470058Y-68226991D01*
X162469745Y-68226902D01*
X162460108Y-68228659D01*
X162451574Y-68241295D01*
X162450091Y-68244683D01*
X162438196Y-68266249D01*
X162422761Y-68278495D01*
X162400433Y-68283444D01*
X162385173Y-68283808D01*
X162349644Y-68279316D01*
X162323959Y-68266928D01*
X162307916Y-68246518D01*
X162303333Y-68232764D01*
X162301181Y-68224683D01*
X163481919Y-68224683D01*
X163647006Y-68515054D01*
X163685309Y-68582414D01*
X163717829Y-68639568D01*
X163745056Y-68687352D01*
X163767478Y-68726604D01*
X163785584Y-68758159D01*
X163799863Y-68782856D01*
X163810805Y-68801530D01*
X163818898Y-68815019D01*
X163824631Y-68824160D01*
X163828493Y-68829790D01*
X163830973Y-68832745D01*
X163832560Y-68833862D01*
X163833354Y-68834000D01*
X163839670Y-68831022D01*
X163854951Y-68822837D01*
X163877154Y-68810567D01*
X163904234Y-68795332D01*
X163915614Y-68788865D01*
X163946606Y-68771053D01*
X163968008Y-68758158D01*
X163981340Y-68748941D01*
X163988123Y-68742163D01*
X163989875Y-68736587D01*
X163988117Y-68730973D01*
X163987685Y-68730127D01*
X163982152Y-68720071D01*
X163971564Y-68701252D01*
X163957195Y-68675919D01*
X163940318Y-68646318D01*
X163930296Y-68628804D01*
X163880036Y-68541084D01*
X163893777Y-68499790D01*
X163902228Y-68477779D01*
X163909755Y-68464470D01*
X163914797Y-68461508D01*
X163922368Y-68464708D01*
X163940029Y-68472204D01*
X163966185Y-68483319D01*
X163999242Y-68497375D01*
X164037603Y-68513694D01*
X164079675Y-68531597D01*
X164080595Y-68531989D01*
X164122706Y-68549731D01*
X164161179Y-68565596D01*
X164194420Y-68578953D01*
X164220834Y-68589172D01*
X164238825Y-68595624D01*
X164246799Y-68597678D01*
X164246860Y-68597666D01*
X164255275Y-68593954D01*
X164271976Y-68585278D01*
X164294813Y-68572866D01*
X164321635Y-68557943D01*
X164350290Y-68541735D01*
X164378628Y-68525468D01*
X164404497Y-68510368D01*
X164425745Y-68497661D01*
X164440223Y-68488573D01*
X164445778Y-68484330D01*
X164445785Y-68484291D01*
X164440135Y-68481202D01*
X164423936Y-68473899D01*
X164398424Y-68462902D01*
X164364834Y-68448730D01*
X164324402Y-68431903D01*
X164278363Y-68412940D01*
X164227955Y-68392362D01*
X164206237Y-68383549D01*
X164154336Y-68362507D01*
X164106227Y-68342971D01*
X164063155Y-68325450D01*
X164026366Y-68310451D01*
X163997105Y-68298482D01*
X163976618Y-68290051D01*
X163966148Y-68285667D01*
X163965041Y-68285157D01*
X163966620Y-68279056D01*
X163971785Y-68262328D01*
X163980078Y-68236384D01*
X163991041Y-68202636D01*
X164004216Y-68162496D01*
X164019146Y-68117376D01*
X164030147Y-68084331D01*
X164046039Y-68036430D01*
X164060476Y-67992369D01*
X164072999Y-67953592D01*
X164083150Y-67921544D01*
X164090469Y-67897668D01*
X164094498Y-67883410D01*
X164095126Y-67879953D01*
X164089416Y-67881473D01*
X164074445Y-67888547D01*
X164051901Y-67900294D01*
X164023469Y-67915830D01*
X163990837Y-67934273D01*
X163986013Y-67937046D01*
X163878512Y-67998975D01*
X163825521Y-68167250D01*
X163811635Y-68211350D01*
X163798980Y-68251552D01*
X163788063Y-68286246D01*
X163779389Y-68313820D01*
X163773467Y-68332664D01*
X163770803Y-68341167D01*
X163770735Y-68341388D01*
X163767241Y-68337991D01*
X163758569Y-68325064D01*
X163745689Y-68304186D01*
X163729574Y-68276937D01*
X163711197Y-68244898D01*
X163709206Y-68241375D01*
X163690336Y-68208442D01*
X163673304Y-68179685D01*
X163659167Y-68156810D01*
X163648981Y-68141522D01*
X163643802Y-68135527D01*
X163643654Y-68135500D01*
X163636312Y-68138502D01*
X163620141Y-68146745D01*
X163597289Y-68159087D01*
X163569906Y-68174382D01*
X163559877Y-68180091D01*
X163481919Y-68224683D01*
X162301181Y-68224683D01*
X162299228Y-68217352D01*
X162293332Y-68209128D01*
X162281816Y-68205074D01*
X162265233Y-68202710D01*
X162239585Y-68199448D01*
X162213750Y-68196028D01*
X162205987Y-68194964D01*
X162179000Y-68191207D01*
X162179000Y-68225844D01*
X162182484Y-68265095D01*
X162192120Y-68301715D01*
X162206681Y-68331386D01*
X162210484Y-68336629D01*
X162217948Y-68348668D01*
X162218681Y-68355896D01*
X162217838Y-68356445D01*
X162209404Y-68356518D01*
X162190936Y-68355179D01*
X162164994Y-68352656D01*
X162134139Y-68349179D01*
X162127684Y-68348399D01*
X162096679Y-68344757D01*
X162070594Y-68341972D01*
X162051812Y-68340277D01*
X162042714Y-68339905D01*
X162042246Y-68340027D01*
X162040943Y-68346713D01*
X162038367Y-68364592D01*
X162034684Y-68392272D01*
X162030059Y-68428358D01*
X162024660Y-68471455D01*
X162018650Y-68520171D01*
X162012198Y-68573111D01*
X162005467Y-68628882D01*
X161998625Y-68686088D01*
X161991838Y-68743338D01*
X161985270Y-68799235D01*
X161979089Y-68852387D01*
X161973460Y-68901400D01*
X161968549Y-68944879D01*
X161964522Y-68981431D01*
X161961545Y-69009662D01*
X161959784Y-69028178D01*
X161959405Y-69035584D01*
X161339930Y-69035584D01*
X161279123Y-69012494D01*
X161094929Y-68929502D01*
X160916295Y-68835654D01*
X160743668Y-68731199D01*
X160577495Y-68616384D01*
X160494815Y-68551534D01*
X161108010Y-68551534D01*
X161117002Y-68613457D01*
X161137086Y-68671605D01*
X161167861Y-68725147D01*
X161208927Y-68773255D01*
X161259885Y-68815099D01*
X161320333Y-68849850D01*
X161389872Y-68876680D01*
X161407475Y-68881741D01*
X161442918Y-68888076D01*
X161485288Y-68890750D01*
X161529671Y-68889844D01*
X161571155Y-68885439D01*
X161602068Y-68878516D01*
X161663612Y-68852865D01*
X161717965Y-68816922D01*
X161764660Y-68771167D01*
X161803232Y-68716080D01*
X161833213Y-68652143D01*
X161839739Y-68633534D01*
X161848429Y-68605304D01*
X161853874Y-68581746D01*
X161856750Y-68558077D01*
X161857738Y-68529514D01*
X161857697Y-68506975D01*
X161856695Y-68470079D01*
X161854100Y-68441878D01*
X161849380Y-68418411D01*
X161843227Y-68399025D01*
X161815537Y-68340925D01*
X161777510Y-68288817D01*
X161730442Y-68243600D01*
X161675630Y-68206171D01*
X161614372Y-68177429D01*
X161547962Y-68158272D01*
X161483675Y-68149900D01*
X161419830Y-68151058D01*
X161362119Y-68162633D01*
X161308930Y-68185247D01*
X161258649Y-68219522D01*
X161225811Y-68249293D01*
X161198546Y-68278102D01*
X161178131Y-68304253D01*
X161161108Y-68332503D01*
X161151581Y-68351400D01*
X161124899Y-68419676D01*
X161110509Y-68486664D01*
X161108010Y-68551534D01*
X160494815Y-68551534D01*
X160418221Y-68491459D01*
X160266293Y-68356671D01*
X160122156Y-68212269D01*
X160066262Y-68149025D01*
X160291682Y-68149025D01*
X160295859Y-68153963D01*
X160308466Y-68165887D01*
X160328169Y-68183659D01*
X160353636Y-68206139D01*
X160383535Y-68232191D01*
X160416534Y-68260676D01*
X160451299Y-68290455D01*
X160486499Y-68320391D01*
X160520801Y-68349344D01*
X160552872Y-68376178D01*
X160581381Y-68399754D01*
X160604993Y-68418932D01*
X160622378Y-68432576D01*
X160630623Y-68438555D01*
X160673031Y-68460113D01*
X160720953Y-68473624D01*
X160770589Y-68478554D01*
X160818144Y-68474370D01*
X160841419Y-68468201D01*
X160870986Y-68453317D01*
X160901594Y-68429841D01*
X160929734Y-68401041D01*
X160951899Y-68370181D01*
X160957152Y-68360415D01*
X160965929Y-68340858D01*
X160970680Y-68324107D01*
X160972233Y-68305192D01*
X160971415Y-68279146D01*
X160971227Y-68275836D01*
X160968338Y-68225931D01*
X161002315Y-68218327D01*
X161040272Y-68203723D01*
X161074793Y-68179027D01*
X161103553Y-68146801D01*
X161124227Y-68109605D01*
X161134109Y-68073185D01*
X161133602Y-68031007D01*
X161121880Y-67986209D01*
X161099650Y-67940558D01*
X161067614Y-67895822D01*
X161059891Y-67886915D01*
X161049551Y-67876667D01*
X161030988Y-67859611D01*
X161005719Y-67837086D01*
X160975261Y-67810432D01*
X160941134Y-67780988D01*
X160905825Y-67750917D01*
X160870140Y-67720701D01*
X160837074Y-67692663D01*
X160808036Y-67668002D01*
X160784434Y-67647916D01*
X160767679Y-67633602D01*
X160759180Y-67626260D01*
X160759088Y-67626178D01*
X160756086Y-67623738D01*
X160752883Y-67622460D01*
X160748801Y-67623064D01*
X160743159Y-67626269D01*
X160735278Y-67632794D01*
X160724477Y-67643359D01*
X160710078Y-67658684D01*
X160691400Y-67679488D01*
X160667763Y-67706490D01*
X160638488Y-67740410D01*
X160602895Y-67781967D01*
X160560305Y-67831881D01*
X160519596Y-67879652D01*
X160477214Y-67929428D01*
X160437354Y-67976306D01*
X160400769Y-68019396D01*
X160368213Y-68057808D01*
X160340439Y-68090651D01*
X160318199Y-68117037D01*
X160302247Y-68136074D01*
X160293335Y-68146872D01*
X160291682Y-68149025D01*
X160066262Y-68149025D01*
X159986256Y-68058500D01*
X159883273Y-67928252D01*
X159764644Y-67759998D01*
X159657185Y-67585771D01*
X159560990Y-67405816D01*
X159476154Y-67220377D01*
X159406498Y-67039374D01*
X159810649Y-67039374D01*
X159814541Y-67086460D01*
X159820199Y-67107475D01*
X159835592Y-67138819D01*
X159859352Y-67169756D01*
X159888180Y-67196939D01*
X159918772Y-67217019D01*
X159934874Y-67223735D01*
X159972394Y-67230953D01*
X160013266Y-67231048D01*
X160052253Y-67224341D01*
X160077150Y-67215016D01*
X160118249Y-67187800D01*
X160150040Y-67152932D01*
X160171788Y-67112093D01*
X160182757Y-67066962D01*
X160182210Y-67019221D01*
X160175896Y-66989489D01*
X160159923Y-66954244D01*
X160134499Y-66920801D01*
X160102788Y-66892417D01*
X160067956Y-66872352D01*
X160058775Y-66868899D01*
X160012096Y-66859680D01*
X159965194Y-66862036D01*
X159920531Y-66875405D01*
X159880568Y-66899221D01*
X159864636Y-66913336D01*
X159836260Y-66950351D01*
X159818077Y-66993184D01*
X159810649Y-67039374D01*
X159406498Y-67039374D01*
X159402774Y-67029699D01*
X159340943Y-66834026D01*
X159290758Y-66633603D01*
X159252313Y-66428674D01*
X159228434Y-66246375D01*
X159223978Y-66193269D01*
X159220550Y-66130157D01*
X159218150Y-66059647D01*
X159216779Y-65984350D01*
X159216435Y-65906874D01*
X159217119Y-65829830D01*
X159217833Y-65798953D01*
X159435893Y-65798953D01*
X159440881Y-65867215D01*
X159455726Y-65929153D01*
X159479920Y-65984028D01*
X159512952Y-66031099D01*
X159554316Y-66069629D01*
X159603501Y-66098875D01*
X159654550Y-66116780D01*
X159672221Y-66120640D01*
X159683999Y-66122105D01*
X159686412Y-66121704D01*
X159687564Y-66114818D01*
X159689059Y-66097554D01*
X159690735Y-66072223D01*
X159692426Y-66041137D01*
X159693088Y-66027226D01*
X159697289Y-65935225D01*
X159665656Y-65921652D01*
X159635976Y-65902670D01*
X159614410Y-65876056D01*
X159600805Y-65843819D01*
X159595005Y-65807965D01*
X159596857Y-65770504D01*
X159606205Y-65733442D01*
X159622895Y-65698788D01*
X159646773Y-65668549D01*
X159677684Y-65644732D01*
X159687360Y-65639594D01*
X159704266Y-65632234D01*
X159715994Y-65628662D01*
X159718913Y-65628846D01*
X159719554Y-65635881D01*
X159719408Y-65653447D01*
X159718543Y-65679402D01*
X159717026Y-65711606D01*
X159715468Y-65739110D01*
X159713249Y-65777811D01*
X159711349Y-65814935D01*
X159709908Y-65847400D01*
X159709068Y-65872123D01*
X159708911Y-65881951D01*
X159708850Y-65917578D01*
X159783462Y-65920950D01*
X159812766Y-65922124D01*
X159837007Y-65922809D01*
X159853623Y-65922953D01*
X159860034Y-65922523D01*
X159860894Y-65915943D01*
X159862221Y-65898501D01*
X159863904Y-65872024D01*
X159865828Y-65838338D01*
X159867882Y-65799266D01*
X159868900Y-65778749D01*
X159871062Y-65737511D01*
X159873294Y-65700584D01*
X159875459Y-65669837D01*
X159877419Y-65647144D01*
X159879037Y-65634374D01*
X159879649Y-65632322D01*
X159887738Y-65631719D01*
X159902923Y-65636845D01*
X159921909Y-65646128D01*
X159941398Y-65657996D01*
X159955190Y-65668341D01*
X159981608Y-65698868D01*
X159998630Y-65737826D01*
X160005865Y-65780339D01*
X160004250Y-65827392D01*
X159992499Y-65867512D01*
X159971084Y-65900031D01*
X159940480Y-65924281D01*
X159901158Y-65939597D01*
X159891408Y-65941696D01*
X159882053Y-65943762D01*
X159875062Y-65947110D01*
X159869979Y-65953490D01*
X159866346Y-65964647D01*
X159863706Y-65982328D01*
X159861601Y-66008281D01*
X159859573Y-66044253D01*
X159858382Y-66067806D01*
X159854920Y-66136888D01*
X159894095Y-66132455D01*
X159921724Y-66127874D01*
X159949900Y-66120957D01*
X159964132Y-66116296D01*
X160019434Y-66088773D01*
X160066901Y-66051454D01*
X160106063Y-66004894D01*
X160136444Y-65949648D01*
X160138661Y-65943129D01*
X160366342Y-65943129D01*
X160366983Y-66005091D01*
X160368662Y-66062358D01*
X160371401Y-66112096D01*
X160374395Y-66144775D01*
X160399208Y-66311706D01*
X160434158Y-66471459D01*
X160479554Y-66624901D01*
X160535703Y-66772896D01*
X160602914Y-66916311D01*
X160681495Y-67056010D01*
X160721701Y-67119500D01*
X160818665Y-67256430D01*
X160923789Y-67383838D01*
X161037454Y-67502089D01*
X161160045Y-67611544D01*
X161291943Y-67712567D01*
X161433532Y-67805521D01*
X161463681Y-67823549D01*
X161594084Y-67893582D01*
X161732573Y-67955308D01*
X161877098Y-68008071D01*
X162025608Y-68051217D01*
X162176054Y-68084090D01*
X162326383Y-68106034D01*
X162356800Y-68109104D01*
X162394095Y-68111697D01*
X162440969Y-68113608D01*
X162494331Y-68114832D01*
X162551090Y-68115363D01*
X162608155Y-68115194D01*
X162662435Y-68114319D01*
X162710840Y-68112733D01*
X162750277Y-68110429D01*
X162756850Y-68109879D01*
X162921115Y-68088923D01*
X163082105Y-68055917D01*
X163239263Y-68011213D01*
X163392033Y-67955167D01*
X163539860Y-67888133D01*
X163682186Y-67810465D01*
X163818456Y-67722518D01*
X163827343Y-67715809D01*
X164229714Y-67715809D01*
X164368893Y-68044717D01*
X164395020Y-68106469D01*
X164419918Y-68165330D01*
X164443099Y-68220149D01*
X164464077Y-68269772D01*
X164482364Y-68313046D01*
X164497473Y-68348821D01*
X164508917Y-68375942D01*
X164516210Y-68393258D01*
X164518473Y-68398661D01*
X164525273Y-68413970D01*
X164530150Y-68419136D01*
X164535907Y-68415807D01*
X164540090Y-68411361D01*
X164548620Y-68402242D01*
X164563911Y-68386144D01*
X164583906Y-68365225D01*
X164606546Y-68341641D01*
X164609960Y-68338094D01*
X164668614Y-68277163D01*
X164633482Y-68198892D01*
X164620525Y-68169435D01*
X164609723Y-68143750D01*
X164602052Y-68124244D01*
X164598486Y-68113322D01*
X164598350Y-68112281D01*
X164602605Y-68105269D01*
X164614426Y-68090872D01*
X164632398Y-68070685D01*
X164655104Y-68046301D01*
X164679312Y-68021169D01*
X164760275Y-67938396D01*
X164928231Y-68007672D01*
X164998686Y-67933473D01*
X165069140Y-67859275D01*
X165048607Y-67850895D01*
X165034544Y-67845344D01*
X165010776Y-67836181D01*
X164978578Y-67823883D01*
X164939227Y-67808932D01*
X164894001Y-67791806D01*
X164844175Y-67772985D01*
X164791027Y-67752948D01*
X164735833Y-67732174D01*
X164679870Y-67711144D01*
X164624414Y-67690336D01*
X164570743Y-67670231D01*
X164520133Y-67651306D01*
X164473860Y-67634043D01*
X164433202Y-67618920D01*
X164399435Y-67606416D01*
X164373836Y-67597012D01*
X164357681Y-67591187D01*
X164352267Y-67589400D01*
X164346287Y-67593809D01*
X164333487Y-67605895D01*
X164315597Y-67623945D01*
X164294348Y-67646245D01*
X164288416Y-67652604D01*
X164229714Y-67715809D01*
X163827343Y-67715809D01*
X163948114Y-67624646D01*
X164070603Y-67517203D01*
X164185368Y-67400543D01*
X164291852Y-67275022D01*
X164389499Y-67140993D01*
X164438271Y-67063445D01*
X164911811Y-67063445D01*
X164922200Y-67105824D01*
X164942001Y-67145810D01*
X164969831Y-67180397D01*
X164994365Y-67200469D01*
X165037251Y-67222918D01*
X165080976Y-67232988D01*
X165127031Y-67230900D01*
X165155030Y-67224316D01*
X165197404Y-67205433D01*
X165232896Y-67176970D01*
X165260112Y-67140796D01*
X165277658Y-67098783D01*
X165284140Y-67052803D01*
X165284150Y-67050959D01*
X165281710Y-67010630D01*
X165273439Y-66977659D01*
X165257911Y-66947492D01*
X165246814Y-66931821D01*
X165214278Y-66898919D01*
X165175625Y-66875753D01*
X165133035Y-66862546D01*
X165088690Y-66859523D01*
X165044770Y-66866906D01*
X165003457Y-66884920D01*
X164977036Y-66904168D01*
X164949816Y-66934827D01*
X164927882Y-66972448D01*
X164914102Y-67011832D01*
X164912214Y-67021679D01*
X164911811Y-67063445D01*
X164438271Y-67063445D01*
X164464387Y-67021922D01*
X164541144Y-66878546D01*
X164606614Y-66729948D01*
X164660686Y-66576933D01*
X164703250Y-66420309D01*
X164734196Y-66260883D01*
X164753414Y-66099461D01*
X164760793Y-65936850D01*
X164756224Y-65773857D01*
X164741879Y-65633600D01*
X164973000Y-65633600D01*
X164973000Y-66217800D01*
X165138100Y-66217800D01*
X165138100Y-65824100D01*
X165258750Y-65824100D01*
X165258750Y-66001525D01*
X165258913Y-66047633D01*
X165259375Y-66089421D01*
X165260092Y-66125257D01*
X165261021Y-66153508D01*
X165262118Y-66172542D01*
X165263341Y-66180728D01*
X165263512Y-66180912D01*
X165271396Y-66181523D01*
X165289280Y-66181719D01*
X165314471Y-66181499D01*
X165342887Y-66180903D01*
X165417500Y-66178931D01*
X165417500Y-65824100D01*
X165518913Y-65824100D01*
X165520594Y-66016187D01*
X165522275Y-66208275D01*
X165600062Y-66210057D01*
X165677850Y-66211840D01*
X165677850Y-65633600D01*
X164973000Y-65633600D01*
X164741879Y-65633600D01*
X164739596Y-65611289D01*
X164710798Y-65449952D01*
X164690624Y-65365447D01*
X164679513Y-65328512D01*
X164911357Y-65328512D01*
X164912211Y-65332357D01*
X164915982Y-65344175D01*
X164922934Y-65364730D01*
X164933329Y-65394787D01*
X164947430Y-65435111D01*
X164965499Y-65486466D01*
X164969800Y-65498662D01*
X164974469Y-65506008D01*
X164975938Y-65506600D01*
X164982387Y-65504560D01*
X164999722Y-65498696D01*
X165026845Y-65489388D01*
X165062658Y-65477015D01*
X165106063Y-65461960D01*
X165155962Y-65444602D01*
X165211258Y-65425321D01*
X165270852Y-65404499D01*
X165307925Y-65391526D01*
X165369490Y-65369959D01*
X165427348Y-65349670D01*
X165480407Y-65331043D01*
X165527580Y-65314462D01*
X165567775Y-65300310D01*
X165599904Y-65288970D01*
X165622878Y-65280825D01*
X165635606Y-65276261D01*
X165637872Y-65275399D01*
X165636466Y-65269364D01*
X165631612Y-65254000D01*
X165624221Y-65231907D01*
X165615204Y-65205686D01*
X165605474Y-65177936D01*
X165595940Y-65151256D01*
X165587515Y-65128248D01*
X165581110Y-65111510D01*
X165577709Y-65103759D01*
X165572532Y-65103401D01*
X165559041Y-65106286D01*
X165536749Y-65112570D01*
X165505173Y-65122411D01*
X165463826Y-65135966D01*
X165412222Y-65153392D01*
X165349877Y-65174846D01*
X165276305Y-65200486D01*
X165242875Y-65212213D01*
X165181175Y-65233887D01*
X165123179Y-65254254D01*
X165069972Y-65272934D01*
X165022641Y-65289544D01*
X164982271Y-65303705D01*
X164949948Y-65315035D01*
X164926759Y-65323152D01*
X164913790Y-65327677D01*
X164911357Y-65328512D01*
X164679513Y-65328512D01*
X164643105Y-65207486D01*
X164584365Y-65054880D01*
X164514905Y-64908092D01*
X164435223Y-64767585D01*
X164418985Y-64743289D01*
X164711447Y-64743289D01*
X164712189Y-64750340D01*
X164716787Y-64767519D01*
X164724622Y-64793070D01*
X164735078Y-64825234D01*
X164747537Y-64862256D01*
X164761380Y-64902378D01*
X164775990Y-64943842D01*
X164790749Y-64984891D01*
X164805039Y-65023767D01*
X164818243Y-65058715D01*
X164829743Y-65087976D01*
X164838921Y-65109792D01*
X164844039Y-65120454D01*
X164866122Y-65153946D01*
X164894085Y-65185821D01*
X164924327Y-65212366D01*
X164947612Y-65227206D01*
X164988562Y-65242833D01*
X165032036Y-65248559D01*
X165080198Y-65244499D01*
X165116662Y-65236227D01*
X165157584Y-65219559D01*
X165196467Y-65193870D01*
X165228369Y-65162505D01*
X165231496Y-65158515D01*
X165253285Y-65122388D01*
X165266510Y-65082043D01*
X165271185Y-65036428D01*
X165267322Y-64984488D01*
X165254936Y-64925170D01*
X165235176Y-64860707D01*
X165204082Y-64770440D01*
X165277453Y-64744612D01*
X165310650Y-64732922D01*
X165343907Y-64721202D01*
X165372947Y-64710962D01*
X165390512Y-64704761D01*
X165410652Y-64696719D01*
X165424936Y-64689248D01*
X165430200Y-64684090D01*
X165428231Y-64676507D01*
X165422943Y-64659773D01*
X165415259Y-64636566D01*
X165406103Y-64609566D01*
X165396399Y-64581453D01*
X165387072Y-64554906D01*
X165379045Y-64532604D01*
X165373244Y-64517227D01*
X165370671Y-64511504D01*
X165364507Y-64513157D01*
X165347704Y-64518610D01*
X165321585Y-64527399D01*
X165287473Y-64539059D01*
X165246691Y-64553125D01*
X165200561Y-64569131D01*
X165150408Y-64586612D01*
X165097554Y-64605104D01*
X165043321Y-64624141D01*
X164989033Y-64643257D01*
X164936013Y-64661988D01*
X164885583Y-64679869D01*
X164839068Y-64696434D01*
X164797789Y-64711219D01*
X164763070Y-64723757D01*
X164736233Y-64733584D01*
X164718602Y-64740235D01*
X164711500Y-64743245D01*
X164711447Y-64743289D01*
X164418985Y-64743289D01*
X164345820Y-64633823D01*
X164247196Y-64507269D01*
X164139850Y-64388387D01*
X164024282Y-64277641D01*
X163900992Y-64175492D01*
X163862284Y-64147884D01*
X164231409Y-64147884D01*
X164236459Y-64155516D01*
X164247756Y-64170100D01*
X164263491Y-64189499D01*
X164281853Y-64211576D01*
X164301031Y-64234192D01*
X164319216Y-64255212D01*
X164334598Y-64272497D01*
X164345365Y-64283910D01*
X164349569Y-64287400D01*
X164356476Y-64283629D01*
X164370476Y-64273593D01*
X164388951Y-64259203D01*
X164395501Y-64253891D01*
X164416728Y-64236511D01*
X164444218Y-64214001D01*
X164474410Y-64189281D01*
X164503565Y-64165408D01*
X164570706Y-64110433D01*
X164648223Y-64205256D01*
X164672490Y-64235172D01*
X164693934Y-64262047D01*
X164711260Y-64284223D01*
X164723172Y-64300038D01*
X164728375Y-64307834D01*
X164728451Y-64308027D01*
X164724552Y-64314277D01*
X164712045Y-64327113D01*
X164692307Y-64345278D01*
X164666718Y-64367512D01*
X164636656Y-64392557D01*
X164629326Y-64398525D01*
X164598291Y-64423798D01*
X164570439Y-64446700D01*
X164547354Y-64465911D01*
X164530619Y-64480110D01*
X164521820Y-64487975D01*
X164521075Y-64488762D01*
X164520952Y-64495399D01*
X164527446Y-64508212D01*
X164541167Y-64528153D01*
X164562725Y-64556174D01*
X164570792Y-64566273D01*
X164591499Y-64591298D01*
X164609888Y-64612161D01*
X164624322Y-64627105D01*
X164633167Y-64634375D01*
X164634622Y-64634785D01*
X164640863Y-64630628D01*
X164655998Y-64619154D01*
X164679101Y-64601103D01*
X164709247Y-64577212D01*
X164745510Y-64548220D01*
X164786965Y-64514866D01*
X164832687Y-64477889D01*
X164881750Y-64438027D01*
X164909574Y-64415344D01*
X164959815Y-64374222D01*
X165006908Y-64335454D01*
X165049966Y-64299786D01*
X165088099Y-64267965D01*
X165120419Y-64240737D01*
X165146037Y-64218850D01*
X165164065Y-64203050D01*
X165173614Y-64194084D01*
X165174927Y-64192327D01*
X165169627Y-64183992D01*
X165158193Y-64168800D01*
X165142435Y-64148926D01*
X165124164Y-64126544D01*
X165105190Y-64103829D01*
X165087325Y-64082954D01*
X165072379Y-64066095D01*
X165062164Y-64055425D01*
X165058722Y-64052794D01*
X165052045Y-64056535D01*
X165037221Y-64067157D01*
X165015872Y-64083424D01*
X164989618Y-64104099D01*
X164960079Y-64127945D01*
X164957690Y-64129897D01*
X164863010Y-64207345D01*
X164841327Y-64182285D01*
X164829489Y-64168277D01*
X164811781Y-64146917D01*
X164790295Y-64120744D01*
X164767122Y-64092300D01*
X164758768Y-64081991D01*
X164697891Y-64006758D01*
X164716383Y-63992045D01*
X164753136Y-63962485D01*
X164787984Y-63933866D01*
X164819601Y-63907332D01*
X164846662Y-63884024D01*
X164867841Y-63865086D01*
X164881811Y-63851662D01*
X164887248Y-63844894D01*
X164887275Y-63844690D01*
X164883433Y-63836558D01*
X164873115Y-63821483D01*
X164858128Y-63801652D01*
X164840279Y-63779252D01*
X164821375Y-63756469D01*
X164803225Y-63735490D01*
X164787636Y-63718501D01*
X164776415Y-63707689D01*
X164771762Y-63704962D01*
X164765229Y-63709184D01*
X164750145Y-63720549D01*
X164727594Y-63738168D01*
X164698662Y-63761152D01*
X164664434Y-63788609D01*
X164625995Y-63819651D01*
X164584432Y-63853387D01*
X164540829Y-63888929D01*
X164496272Y-63925386D01*
X164451846Y-63961869D01*
X164408637Y-63997488D01*
X164367730Y-64031354D01*
X164330211Y-64062576D01*
X164297164Y-64090264D01*
X164269676Y-64113530D01*
X164248831Y-64131484D01*
X164235715Y-64143235D01*
X164231409Y-64147884D01*
X163862284Y-64147884D01*
X163770480Y-64082406D01*
X163633245Y-63998846D01*
X163489788Y-63925274D01*
X163340607Y-63862155D01*
X163186203Y-63809952D01*
X163027076Y-63769129D01*
X162953355Y-63754466D01*
X162826889Y-63736130D01*
X162693562Y-63725273D01*
X162556780Y-63721894D01*
X162419947Y-63725995D01*
X162286469Y-63737577D01*
X162172650Y-63754285D01*
X162012489Y-63789292D01*
X161855788Y-63836288D01*
X161703222Y-63894869D01*
X161555466Y-63964633D01*
X161413193Y-64045177D01*
X161277079Y-64136099D01*
X161147797Y-64236995D01*
X161026023Y-64347463D01*
X160912430Y-64467101D01*
X160845939Y-64546290D01*
X160746001Y-64681153D01*
X160657352Y-64821805D01*
X160580054Y-64968096D01*
X160514171Y-65119874D01*
X160459766Y-65276991D01*
X160416902Y-65439294D01*
X160385642Y-65606633D01*
X160377980Y-65662175D01*
X160373743Y-65705064D01*
X160370440Y-65757441D01*
X160368092Y-65816468D01*
X160366718Y-65879309D01*
X160366342Y-65943129D01*
X160138661Y-65943129D01*
X160156387Y-65891028D01*
X160162055Y-65858474D01*
X160165188Y-65818158D01*
X160165786Y-65774588D01*
X160163851Y-65732273D01*
X160159384Y-65695721D01*
X160156326Y-65681488D01*
X160134517Y-65622222D01*
X160102076Y-65568457D01*
X160060381Y-65521560D01*
X160010810Y-65482901D01*
X159954740Y-65453847D01*
X159913500Y-65440250D01*
X159841164Y-65427484D01*
X159770129Y-65426573D01*
X159721271Y-65433189D01*
X159663604Y-65448718D01*
X159614089Y-65471180D01*
X159569243Y-65502417D01*
X159540497Y-65528747D01*
X159499427Y-65576767D01*
X159469053Y-65628604D01*
X159448791Y-65685773D01*
X159438054Y-65749786D01*
X159435893Y-65798953D01*
X159217833Y-65798953D01*
X159218831Y-65755827D01*
X159221569Y-65687474D01*
X159225334Y-65627383D01*
X159228507Y-65592325D01*
X159256846Y-65382319D01*
X159296831Y-65177324D01*
X159333838Y-65033954D01*
X159570637Y-65033954D01*
X159577032Y-65037037D01*
X159593777Y-65044379D01*
X159619485Y-65055393D01*
X159652768Y-65069489D01*
X159692238Y-65086079D01*
X159736507Y-65104574D01*
X159769869Y-65118448D01*
X159817983Y-65138493D01*
X159863409Y-65157559D01*
X159904534Y-65174959D01*
X159939747Y-65190005D01*
X159967435Y-65202010D01*
X159985985Y-65210286D01*
X159992164Y-65213229D01*
X160018600Y-65228981D01*
X160042273Y-65247075D01*
X160059602Y-65264602D01*
X160064738Y-65272189D01*
X160066651Y-65287620D01*
X160060954Y-65308374D01*
X160049066Y-65330841D01*
X160034413Y-65349371D01*
X160024821Y-65361583D01*
X160021790Y-65370202D01*
X160022359Y-65371375D01*
X160030067Y-65375542D01*
X160046640Y-65382762D01*
X160068975Y-65391839D01*
X160093969Y-65401576D01*
X160118519Y-65410777D01*
X160139523Y-65418245D01*
X160153876Y-65422784D01*
X160157789Y-65423597D01*
X160166105Y-65419235D01*
X160177605Y-65407789D01*
X160181349Y-65403144D01*
X160209076Y-65358109D01*
X160226416Y-65310416D01*
X160233070Y-65262090D01*
X160228739Y-65215158D01*
X160214936Y-65175235D01*
X160192234Y-65139969D01*
X160159810Y-65105063D01*
X160120444Y-65073126D01*
X160079865Y-65048290D01*
X160060259Y-65038681D01*
X160031535Y-65025403D01*
X159996319Y-65009630D01*
X159957233Y-64992535D01*
X159916900Y-64975291D01*
X159912050Y-64973246D01*
X159875229Y-64957695D01*
X159842564Y-64943802D01*
X159815799Y-64932317D01*
X159796679Y-64923991D01*
X159786948Y-64919572D01*
X159786093Y-64919098D01*
X159787314Y-64912804D01*
X159792098Y-64897593D01*
X159799385Y-64876380D01*
X159808112Y-64852078D01*
X159817221Y-64827598D01*
X159825649Y-64805855D01*
X159832337Y-64789760D01*
X159835633Y-64783049D01*
X159840214Y-64782197D01*
X159851642Y-64784336D01*
X159870652Y-64789710D01*
X159897975Y-64798566D01*
X159934344Y-64811147D01*
X159980492Y-64827698D01*
X160037151Y-64848465D01*
X160089294Y-64867814D01*
X160142600Y-64887636D01*
X160192207Y-64906007D01*
X160236854Y-64922466D01*
X160275281Y-64936552D01*
X160306226Y-64947803D01*
X160328428Y-64955758D01*
X160340626Y-64959954D01*
X160342578Y-64960500D01*
X160346724Y-64954974D01*
X160353632Y-64940337D01*
X160361961Y-64919495D01*
X160363816Y-64914462D01*
X160374910Y-64884207D01*
X160387118Y-64851358D01*
X160396495Y-64826461D01*
X160412453Y-64784498D01*
X160093989Y-64665937D01*
X160033186Y-64643326D01*
X159975719Y-64622006D01*
X159922733Y-64602398D01*
X159875378Y-64584925D01*
X159834800Y-64570009D01*
X159802147Y-64558072D01*
X159778566Y-64549536D01*
X159765204Y-64544824D01*
X159762796Y-64544055D01*
X159759318Y-64544099D01*
X159755497Y-64546726D01*
X159750887Y-64552974D01*
X159745041Y-64563879D01*
X159737514Y-64580479D01*
X159727859Y-64603810D01*
X159715630Y-64634911D01*
X159700382Y-64674817D01*
X159681668Y-64724568D01*
X159659041Y-64785198D01*
X159658815Y-64785806D01*
X159639249Y-64838620D01*
X159621266Y-64887674D01*
X159605315Y-64931710D01*
X159591843Y-64969466D01*
X159581297Y-64999683D01*
X159574126Y-65021101D01*
X159570778Y-65032459D01*
X159570637Y-65033954D01*
X159333838Y-65033954D01*
X159348436Y-64977401D01*
X159411638Y-64782611D01*
X159486411Y-64593014D01*
X159572730Y-64408670D01*
X159659218Y-64250412D01*
X159923397Y-64250412D01*
X159929168Y-64254994D01*
X159944112Y-64266547D01*
X159967292Y-64284353D01*
X159997771Y-64307696D01*
X160034612Y-64335860D01*
X160076879Y-64368129D01*
X160123634Y-64403785D01*
X160173940Y-64442113D01*
X160203428Y-64464563D01*
X160478931Y-64674260D01*
X160489828Y-64660217D01*
X160495902Y-64652292D01*
X160508810Y-64635379D01*
X160527700Y-64610597D01*
X160551719Y-64579067D01*
X160580012Y-64541910D01*
X160611726Y-64500245D01*
X160646010Y-64455193D01*
X160666683Y-64428020D01*
X160832642Y-64209866D01*
X160770969Y-64162908D01*
X160746898Y-64144838D01*
X160726475Y-64129992D01*
X160711803Y-64119866D01*
X160704988Y-64115955D01*
X160704910Y-64115950D01*
X160700116Y-64120815D01*
X160688658Y-64134586D01*
X160671512Y-64156024D01*
X160649655Y-64183889D01*
X160624064Y-64216943D01*
X160595715Y-64253948D01*
X160584755Y-64268350D01*
X160555599Y-64306510D01*
X160528790Y-64341174D01*
X160505313Y-64371103D01*
X160486154Y-64395056D01*
X160472295Y-64411794D01*
X160464724Y-64420076D01*
X160463717Y-64420750D01*
X160456739Y-64417205D01*
X160442851Y-64407988D01*
X160424910Y-64395220D01*
X160405772Y-64381022D01*
X160388293Y-64367517D01*
X160375330Y-64356828D01*
X160369739Y-64351076D01*
X160369697Y-64350900D01*
X160373332Y-64345228D01*
X160383723Y-64330790D01*
X160399896Y-64308893D01*
X160420876Y-64280847D01*
X160445689Y-64247960D01*
X160473360Y-64211542D01*
X160477760Y-64205772D01*
X160509497Y-64164073D01*
X160534195Y-64131264D01*
X160552595Y-64106197D01*
X160565436Y-64087722D01*
X160573458Y-64074691D01*
X160577400Y-64065954D01*
X160578004Y-64060362D01*
X160576007Y-64056767D01*
X160574501Y-64055525D01*
X160564590Y-64048226D01*
X160547399Y-64035376D01*
X160525765Y-64019101D01*
X160512125Y-64008798D01*
X160487417Y-63990741D01*
X160470689Y-63980222D01*
X160460371Y-63976406D01*
X160454975Y-63978354D01*
X160450177Y-63984601D01*
X160438927Y-63999344D01*
X160422453Y-64020968D01*
X160401984Y-64047855D01*
X160378750Y-64078390D01*
X160353980Y-64110955D01*
X160328904Y-64143936D01*
X160304750Y-64175714D01*
X160282748Y-64204675D01*
X160264127Y-64229201D01*
X160250117Y-64247677D01*
X160244848Y-64254639D01*
X160239429Y-64252097D01*
X160226427Y-64243437D01*
X160208295Y-64230326D01*
X160201490Y-64225219D01*
X160159767Y-64193635D01*
X160274085Y-64043511D01*
X160302990Y-64005442D01*
X160329311Y-63970561D01*
X160352083Y-63940166D01*
X160370339Y-63915554D01*
X160383113Y-63898024D01*
X160389437Y-63888873D01*
X160389939Y-63887935D01*
X160385875Y-63881999D01*
X160373827Y-63870636D01*
X160356204Y-63855718D01*
X160335418Y-63839113D01*
X160313880Y-63822691D01*
X160294001Y-63808322D01*
X160278190Y-63797875D01*
X160268860Y-63793220D01*
X160267772Y-63793196D01*
X160262218Y-63798723D01*
X160250189Y-63813086D01*
X160232617Y-63835051D01*
X160210434Y-63863381D01*
X160184570Y-63896839D01*
X160155956Y-63934189D01*
X160125524Y-63974196D01*
X160094205Y-64015621D01*
X160062931Y-64057231D01*
X160032631Y-64097787D01*
X160004238Y-64136054D01*
X159978683Y-64170795D01*
X159956897Y-64200775D01*
X159939810Y-64224756D01*
X159928355Y-64241503D01*
X159923462Y-64249779D01*
X159923397Y-64250412D01*
X159659218Y-64250412D01*
X159670571Y-64229640D01*
X159779909Y-64055985D01*
X159900719Y-63887765D01*
X159950776Y-63823850D01*
X160084093Y-63667629D01*
X160170013Y-63578569D01*
X160493768Y-63578569D01*
X160497512Y-63585111D01*
X160507905Y-63600663D01*
X160524118Y-63624079D01*
X160545322Y-63654218D01*
X160570688Y-63689933D01*
X160599385Y-63730083D01*
X160630586Y-63773522D01*
X160663461Y-63819107D01*
X160697180Y-63865694D01*
X160730914Y-63912138D01*
X160763835Y-63957297D01*
X160795111Y-64000026D01*
X160823915Y-64039181D01*
X160849417Y-64073618D01*
X160870788Y-64102193D01*
X160887198Y-64123763D01*
X160897818Y-64137184D01*
X160901756Y-64141350D01*
X160908265Y-64137795D01*
X160922962Y-64128052D01*
X160943836Y-64113502D01*
X160968878Y-64095526D01*
X160975895Y-64090410D01*
X161001553Y-64071346D01*
X161023240Y-64054679D01*
X161039007Y-64041948D01*
X161046906Y-64034691D01*
X161047428Y-64033899D01*
X161044482Y-64027209D01*
X161035133Y-64012062D01*
X161020542Y-63990201D01*
X161001871Y-63963372D01*
X160982726Y-63936679D01*
X160916120Y-63845031D01*
X160925695Y-63803057D01*
X160932226Y-63779351D01*
X160938467Y-63766011D01*
X160942772Y-63763621D01*
X160959993Y-63769167D01*
X160985663Y-63777073D01*
X161017843Y-63786773D01*
X161054594Y-63797703D01*
X161093976Y-63809299D01*
X161134052Y-63820997D01*
X161172881Y-63832231D01*
X161208525Y-63842437D01*
X161239045Y-63851052D01*
X161262501Y-63857509D01*
X161276955Y-63861246D01*
X161280569Y-63861950D01*
X161288108Y-63858420D01*
X161303775Y-63848806D01*
X161325480Y-63834570D01*
X161351136Y-63817173D01*
X161378655Y-63798077D01*
X161405949Y-63778743D01*
X161430929Y-63760633D01*
X161451508Y-63745209D01*
X161465597Y-63733933D01*
X161470908Y-63728707D01*
X161465606Y-63726093D01*
X161449346Y-63720459D01*
X161425069Y-63712725D01*
X163600369Y-63712725D01*
X163605007Y-63717769D01*
X163618080Y-63727937D01*
X163637326Y-63741728D01*
X163660485Y-63757641D01*
X163685296Y-63774178D01*
X163709498Y-63789836D01*
X163730830Y-63803118D01*
X163747031Y-63812521D01*
X163755839Y-63816546D01*
X163756718Y-63816464D01*
X163760535Y-63810715D01*
X163770155Y-63795818D01*
X163784573Y-63773341D01*
X163802783Y-63744855D01*
X163823778Y-63711930D01*
X163833378Y-63696850D01*
X163855190Y-63662574D01*
X163874572Y-63632123D01*
X163890532Y-63607049D01*
X163902083Y-63588907D01*
X163908236Y-63579251D01*
X163908976Y-63578094D01*
X163914313Y-63580965D01*
X163928734Y-63589719D01*
X163950645Y-63603362D01*
X163978452Y-63620899D01*
X164010562Y-63641336D01*
X164019435Y-63647012D01*
X164056242Y-63670660D01*
X164083572Y-63688552D01*
X164102675Y-63701727D01*
X164114803Y-63711227D01*
X164121206Y-63718092D01*
X164123135Y-63723363D01*
X164121841Y-63728080D01*
X164120190Y-63730843D01*
X164083253Y-63787858D01*
X164052903Y-63835161D01*
X164028650Y-63873589D01*
X164010002Y-63903974D01*
X163996470Y-63927151D01*
X163987563Y-63943955D01*
X163982791Y-63955219D01*
X163981662Y-63961778D01*
X163982995Y-63964164D01*
X163991518Y-63969612D01*
X164008255Y-63980531D01*
X164030839Y-63995370D01*
X164056902Y-64012577D01*
X164058600Y-64013700D01*
X164084429Y-64030494D01*
X164106655Y-64044379D01*
X164123040Y-64053997D01*
X164131345Y-64057990D01*
X164131625Y-64058027D01*
X164136142Y-64052862D01*
X164146804Y-64037944D01*
X164162966Y-64014251D01*
X164183981Y-63982762D01*
X164209203Y-63944456D01*
X164237986Y-63900309D01*
X164269685Y-63851302D01*
X164303652Y-63798413D01*
X164322125Y-63769501D01*
X164356957Y-63714725D01*
X164389636Y-63663016D01*
X164419536Y-63615387D01*
X164446030Y-63572854D01*
X164468489Y-63536431D01*
X164486287Y-63507131D01*
X164498797Y-63485971D01*
X164505391Y-63473962D01*
X164506275Y-63471687D01*
X164501322Y-63466242D01*
X164488003Y-63455513D01*
X164468625Y-63441098D01*
X164445495Y-63424595D01*
X164420922Y-63407601D01*
X164397213Y-63391714D01*
X164376676Y-63378530D01*
X164361618Y-63369649D01*
X164354545Y-63366650D01*
X164350803Y-63371753D01*
X164341357Y-63385975D01*
X164327265Y-63407684D01*
X164309583Y-63435251D01*
X164289371Y-63467042D01*
X164286701Y-63471262D01*
X164266079Y-63503522D01*
X164247619Y-63531763D01*
X164232426Y-63554342D01*
X164221608Y-63569620D01*
X164216269Y-63575955D01*
X164216052Y-63576037D01*
X164209756Y-63572839D01*
X164194831Y-63564004D01*
X164173296Y-63550811D01*
X164147172Y-63534543D01*
X164118480Y-63516478D01*
X164089241Y-63497897D01*
X164061474Y-63480081D01*
X164037202Y-63464310D01*
X164018443Y-63451865D01*
X164007220Y-63444025D01*
X164005351Y-63442520D01*
X164006863Y-63435785D01*
X164014495Y-63420069D01*
X164027351Y-63396972D01*
X164044534Y-63368100D01*
X164065148Y-63335055D01*
X164067639Y-63331152D01*
X164088082Y-63298585D01*
X164105487Y-63269679D01*
X164118911Y-63246099D01*
X164127412Y-63229512D01*
X164130049Y-63221581D01*
X164129835Y-63221206D01*
X164091869Y-63196543D01*
X164056603Y-63174501D01*
X164025502Y-63155922D01*
X164000032Y-63141647D01*
X163981658Y-63132520D01*
X163971847Y-63129381D01*
X163970727Y-63129819D01*
X163966590Y-63136281D01*
X163956251Y-63152427D01*
X163940357Y-63177244D01*
X163919555Y-63209723D01*
X163894493Y-63248852D01*
X163865819Y-63293620D01*
X163834179Y-63343017D01*
X163800223Y-63396030D01*
X163783980Y-63421388D01*
X163749253Y-63475690D01*
X163716648Y-63526838D01*
X163686803Y-63573822D01*
X163660352Y-63615635D01*
X163637930Y-63651268D01*
X163620174Y-63679713D01*
X163607719Y-63699962D01*
X163601201Y-63711005D01*
X163600369Y-63712725D01*
X161425069Y-63712725D01*
X161423402Y-63712194D01*
X161389052Y-63701686D01*
X161347570Y-63689323D01*
X161300232Y-63675493D01*
X161248314Y-63660585D01*
X161228795Y-63655041D01*
X161175166Y-63639810D01*
X161125318Y-63625565D01*
X161080583Y-63612692D01*
X161042294Y-63601581D01*
X161011786Y-63592618D01*
X160990391Y-63586191D01*
X160979443Y-63582687D01*
X160978344Y-63582235D01*
X160978281Y-63575420D01*
X160980700Y-63557680D01*
X160985329Y-63530486D01*
X160991896Y-63495310D01*
X161000130Y-63453625D01*
X161009758Y-63406903D01*
X161017032Y-63372685D01*
X161027586Y-63323302D01*
X161037148Y-63277920D01*
X161045416Y-63238020D01*
X161052090Y-63205080D01*
X161056869Y-63180582D01*
X161059450Y-63166005D01*
X161059797Y-63162513D01*
X161054459Y-63164542D01*
X161040934Y-63172944D01*
X161021097Y-63186346D01*
X160996827Y-63203379D01*
X160970002Y-63222670D01*
X160942499Y-63242848D01*
X160916196Y-63262543D01*
X160892970Y-63280382D01*
X160874699Y-63294995D01*
X160863261Y-63305010D01*
X160860610Y-63307985D01*
X160857537Y-63316959D01*
X160852478Y-63336666D01*
X160845824Y-63365365D01*
X160837966Y-63401314D01*
X160829294Y-63442770D01*
X160820200Y-63487992D01*
X160820024Y-63488887D01*
X160811108Y-63533433D01*
X160802805Y-63573588D01*
X160795468Y-63607757D01*
X160789447Y-63634345D01*
X160785095Y-63651755D01*
X160782762Y-63658393D01*
X160782688Y-63658413D01*
X160777922Y-63653398D01*
X160767047Y-63639674D01*
X160751310Y-63618886D01*
X160731957Y-63592679D01*
X160712073Y-63565255D01*
X160690303Y-63535342D01*
X160670780Y-63509197D01*
X160654807Y-63488509D01*
X160643687Y-63474969D01*
X160638897Y-63470290D01*
X160631216Y-63472971D01*
X160616073Y-63481997D01*
X160595764Y-63495655D01*
X160572584Y-63512232D01*
X160548828Y-63530017D01*
X160526791Y-63547298D01*
X160508767Y-63562361D01*
X160497053Y-63573495D01*
X160493768Y-63578569D01*
X160170013Y-63578569D01*
X160225980Y-63520557D01*
X160375951Y-63382916D01*
X160533519Y-63254991D01*
X160698196Y-63137065D01*
X160763354Y-63096119D01*
X161209163Y-63096119D01*
X161209901Y-63102985D01*
X161214367Y-63118785D01*
X161221541Y-63140719D01*
X161230404Y-63165991D01*
X161239934Y-63191802D01*
X161249111Y-63215355D01*
X161256915Y-63233852D01*
X161262325Y-63244496D01*
X161263832Y-63246000D01*
X161270900Y-63243935D01*
X161287863Y-63238213D01*
X161312689Y-63229542D01*
X161343346Y-63218629D01*
X161370563Y-63208812D01*
X161473098Y-63171625D01*
X161536372Y-63346925D01*
X161554207Y-63396370D01*
X161572182Y-63446257D01*
X161589399Y-63494097D01*
X161604965Y-63537403D01*
X161617984Y-63573684D01*
X161627385Y-63599959D01*
X161638254Y-63628969D01*
X161648266Y-63653069D01*
X161656416Y-63670014D01*
X161661697Y-63677559D01*
X161662253Y-63677746D01*
X161670574Y-63675717D01*
X161688408Y-63670117D01*
X161713340Y-63661742D01*
X161742959Y-63651387D01*
X161751153Y-63648460D01*
X161781048Y-63637676D01*
X161806294Y-63628458D01*
X161824665Y-63621629D01*
X161833937Y-63618008D01*
X161834603Y-63617677D01*
X161832875Y-63611600D01*
X161827250Y-63594820D01*
X161818163Y-63568574D01*
X161806049Y-63534097D01*
X161791345Y-63492626D01*
X161774485Y-63445396D01*
X161755906Y-63393644D01*
X161744806Y-63362854D01*
X161719449Y-63292099D01*
X161698669Y-63232980D01*
X161682406Y-63185312D01*
X161670600Y-63148908D01*
X161663189Y-63123584D01*
X161660112Y-63109152D01*
X161660578Y-63105383D01*
X161668835Y-63101913D01*
X161686803Y-63095055D01*
X161712217Y-63085650D01*
X161742813Y-63074541D01*
X161759900Y-63068415D01*
X161792156Y-63056676D01*
X161820244Y-63046040D01*
X161841940Y-63037380D01*
X161855024Y-63031569D01*
X161857689Y-63029961D01*
X161857580Y-63022600D01*
X161853993Y-63006240D01*
X161847848Y-62983797D01*
X161840065Y-62958184D01*
X161831565Y-62932317D01*
X161823266Y-62909112D01*
X161816090Y-62891484D01*
X161811177Y-62882588D01*
X161804818Y-62883961D01*
X161787908Y-62889186D01*
X161761832Y-62897771D01*
X161727975Y-62909225D01*
X161687720Y-62923057D01*
X161642453Y-62938777D01*
X161593557Y-62955892D01*
X161542417Y-62973913D01*
X161490417Y-62992348D01*
X161438942Y-63010705D01*
X161389375Y-63028495D01*
X161343102Y-63045226D01*
X161301507Y-63060406D01*
X161265973Y-63073546D01*
X161237886Y-63084153D01*
X161218630Y-63091738D01*
X161209589Y-63095808D01*
X161209163Y-63096119D01*
X160763354Y-63096119D01*
X160869494Y-63029421D01*
X161046928Y-62932345D01*
X161230008Y-62846118D01*
X161273894Y-62828611D01*
X162073837Y-62828611D01*
X162074013Y-62835035D01*
X162074950Y-62852987D01*
X162076580Y-62881320D01*
X162078831Y-62918889D01*
X162081634Y-62964547D01*
X162084919Y-63017149D01*
X162088616Y-63075550D01*
X162092654Y-63138604D01*
X162095414Y-63181323D01*
X162118190Y-63532571D01*
X162147007Y-63529200D01*
X162166054Y-63527326D01*
X162193316Y-63525088D01*
X162224329Y-63522839D01*
X162240912Y-63521754D01*
X162270134Y-63519823D01*
X162288963Y-63517952D01*
X162299684Y-63515415D01*
X162304581Y-63511486D01*
X162305936Y-63505440D01*
X162306000Y-63501072D01*
X162305579Y-63489231D01*
X162304417Y-63467288D01*
X162302665Y-63437810D01*
X162300472Y-63403365D01*
X162298963Y-63380735D01*
X162296740Y-63345889D01*
X162295084Y-63315755D01*
X162294093Y-63292488D01*
X162293863Y-63278243D01*
X162294201Y-63274800D01*
X162300980Y-63273646D01*
X162318264Y-63271870D01*
X162343887Y-63269662D01*
X162375680Y-63267213D01*
X162399363Y-63265533D01*
X162455952Y-63260707D01*
X162502076Y-63254459D01*
X162539939Y-63246251D01*
X162571747Y-63235544D01*
X162599702Y-63221802D01*
X162607289Y-63217099D01*
X162865680Y-63217099D01*
X162866054Y-63283401D01*
X162877860Y-63346221D01*
X162900512Y-63404605D01*
X162933424Y-63457601D01*
X162976012Y-63504255D01*
X163027690Y-63543613D01*
X163087872Y-63574722D01*
X163151965Y-63595663D01*
X163195197Y-63603295D01*
X163243337Y-63606942D01*
X163290954Y-63606446D01*
X163332616Y-63601649D01*
X163335974Y-63600984D01*
X163394742Y-63582669D01*
X163447886Y-63554041D01*
X163494788Y-63516457D01*
X163534831Y-63471274D01*
X163567397Y-63419850D01*
X163591870Y-63363543D01*
X163607632Y-63303710D01*
X163614065Y-63241708D01*
X163610553Y-63178895D01*
X163596478Y-63116630D01*
X163577755Y-63069285D01*
X163559137Y-63038868D01*
X163532198Y-63005897D01*
X163500022Y-62973412D01*
X163465693Y-62944449D01*
X163432292Y-62922047D01*
X163423600Y-62917400D01*
X163368878Y-62895160D01*
X163309340Y-62879870D01*
X163248267Y-62871888D01*
X163188940Y-62871576D01*
X163134639Y-62879294D01*
X163117881Y-62883819D01*
X163057640Y-62908867D01*
X163004054Y-62944323D01*
X162957894Y-62989339D01*
X162919931Y-63043068D01*
X162890933Y-63104665D01*
X162877322Y-63148270D01*
X162865680Y-63217099D01*
X162607289Y-63217099D01*
X162613374Y-63213328D01*
X162652212Y-63180579D01*
X162680473Y-63140822D01*
X162698126Y-63094128D01*
X162705136Y-63040569D01*
X162704804Y-63014117D01*
X162696654Y-62960497D01*
X162678226Y-62914337D01*
X162649525Y-62875641D01*
X162610553Y-62844414D01*
X162582276Y-62829281D01*
X162562705Y-62821225D01*
X162542223Y-62814975D01*
X162519314Y-62810460D01*
X162492465Y-62807612D01*
X162460162Y-62806360D01*
X162420889Y-62806635D01*
X162373133Y-62808366D01*
X162315378Y-62811483D01*
X162265130Y-62814654D01*
X162217438Y-62817833D01*
X162174048Y-62820810D01*
X162136523Y-62823471D01*
X162106424Y-62825703D01*
X162085314Y-62827392D01*
X162074755Y-62828423D01*
X162073837Y-62828611D01*
X161273894Y-62828611D01*
X161418249Y-62771025D01*
X161611163Y-62707350D01*
X161808263Y-62655376D01*
X162009061Y-62615387D01*
X162033164Y-62611442D01*
X162235617Y-62585467D01*
X162439567Y-62571938D01*
X162644190Y-62570817D01*
X162848666Y-62582062D01*
G36*
X162707895Y-62229430D02*
X162840699Y-62235647D01*
X162968138Y-62246389D01*
X163093588Y-62262018D01*
X163220425Y-62282892D01*
X163352024Y-62309372D01*
X163368329Y-62312951D01*
X163575183Y-62365190D01*
X163778114Y-62429336D01*
X163976620Y-62505063D01*
X164170197Y-62592048D01*
X164358345Y-62689965D01*
X164540561Y-62798492D01*
X164716342Y-62917303D01*
X164885187Y-63046074D01*
X165046592Y-63184481D01*
X165200057Y-63332199D01*
X165345078Y-63488904D01*
X165481154Y-63654272D01*
X165516041Y-63700025D01*
X165642050Y-63878354D01*
X165756516Y-64061963D01*
X165859399Y-64250748D01*
X165950660Y-64444610D01*
X166030259Y-64643447D01*
X166098159Y-64847158D01*
X166154319Y-65055643D01*
X166198700Y-65268800D01*
X166231263Y-65486527D01*
X166240263Y-65567766D01*
X166244684Y-65621213D01*
X166248348Y-65684427D01*
X166251204Y-65754498D01*
X166253201Y-65828513D01*
X166254290Y-65903559D01*
X166254421Y-65976725D01*
X166253543Y-66045099D01*
X166251606Y-66105768D01*
X166250042Y-66135250D01*
X166230497Y-66353155D01*
X166199579Y-66565659D01*
X166157200Y-66773182D01*
X166103272Y-66976147D01*
X166037708Y-67174978D01*
X166029418Y-67197598D01*
X165949095Y-67396592D01*
X165858009Y-67589336D01*
X165756570Y-67775489D01*
X165645188Y-67954712D01*
X165524269Y-68126664D01*
X165394224Y-68291006D01*
X165255462Y-68447398D01*
X165108390Y-68595500D01*
X164953418Y-68734971D01*
X164790955Y-68865472D01*
X164621410Y-68986663D01*
X164445190Y-69098205D01*
X164262706Y-69199756D01*
X164074365Y-69290977D01*
X163880578Y-69371528D01*
X163681751Y-69441069D01*
X163478295Y-69499261D01*
X163270619Y-69545762D01*
X163187519Y-69560834D01*
X162995071Y-69588058D01*
X162798446Y-69605497D01*
X162601167Y-69612951D01*
X162406762Y-69610217D01*
X162361318Y-69608045D01*
X162146865Y-69590120D01*
X161935565Y-69560095D01*
X161727823Y-69518266D01*
X161524041Y-69464931D01*
X161324622Y-69400387D01*
X161129971Y-69324931D01*
X160940489Y-69238861D01*
X160756582Y-69142475D01*
X160578651Y-69036070D01*
X160407101Y-68919943D01*
X160242333Y-68794392D01*
X160084753Y-68659714D01*
X159934763Y-68516207D01*
X159792766Y-68364168D01*
X159659166Y-68203895D01*
X159534366Y-68035684D01*
X159418769Y-67859834D01*
X159312779Y-67676641D01*
X159216798Y-67486404D01*
X159131231Y-67289419D01*
X159096929Y-67200536D01*
X159038705Y-67031343D01*
X158989347Y-66860622D01*
X158948341Y-66686145D01*
X158915173Y-66505687D01*
X158889329Y-66317022D01*
X158886027Y-66287650D01*
X158879514Y-66213440D01*
X158874906Y-66129289D01*
X158872180Y-66037808D01*
X158871957Y-66013005D01*
X159089139Y-66013005D01*
X159100854Y-66220572D01*
X159124957Y-66427012D01*
X159161455Y-66631719D01*
X159188380Y-66749711D01*
X159244691Y-66952267D01*
X159312243Y-67149140D01*
X159391142Y-67340544D01*
X159481499Y-67526691D01*
X159583422Y-67707795D01*
X159697020Y-67884069D01*
X159822400Y-68055726D01*
X159909556Y-68164075D01*
X159945732Y-68205818D01*
X159989493Y-68253685D01*
X160038746Y-68305577D01*
X160091395Y-68359396D01*
X160145348Y-68413044D01*
X160198510Y-68464423D01*
X160248786Y-68511434D01*
X160294083Y-68551980D01*
X160312100Y-68567402D01*
X160479405Y-68700244D01*
X160651581Y-68821398D01*
X160828880Y-68931005D01*
X161011552Y-69029207D01*
X161199849Y-69116145D01*
X161394022Y-69191962D01*
X161461450Y-69215239D01*
X161576942Y-69251959D01*
X161689167Y-69283635D01*
X161800566Y-69310743D01*
X161913582Y-69333757D01*
X162030657Y-69353153D01*
X162154232Y-69369403D01*
X162286750Y-69382984D01*
X162353625Y-69388644D01*
X162378148Y-69389935D01*
X162413058Y-69390865D01*
X162456049Y-69391447D01*
X162504812Y-69391693D01*
X162557040Y-69391618D01*
X162610426Y-69391234D01*
X162662663Y-69390554D01*
X162711444Y-69389591D01*
X162754461Y-69388359D01*
X162789407Y-69386871D01*
X162802382Y-69386087D01*
X163010000Y-69365422D01*
X163216482Y-69332195D01*
X163421286Y-69286530D01*
X163623867Y-69228552D01*
X163823680Y-69158385D01*
X163858575Y-69144762D01*
X163913300Y-69121886D01*
X163976023Y-69093668D01*
X164043973Y-69061505D01*
X164114381Y-69026790D01*
X164184478Y-68990918D01*
X164251495Y-68955284D01*
X164312661Y-68921283D01*
X164365207Y-68890309D01*
X164371354Y-68886520D01*
X164507018Y-68798914D01*
X164632755Y-68710239D01*
X164751291Y-68618342D01*
X164865351Y-68521065D01*
X164977663Y-68416254D01*
X165023800Y-68370642D01*
X165168447Y-68216535D01*
X165302692Y-68055275D01*
X165426351Y-67887203D01*
X165539244Y-67712658D01*
X165641188Y-67531983D01*
X165732003Y-67345517D01*
X165811507Y-67153603D01*
X165879517Y-66956581D01*
X165935853Y-66754792D01*
X165972568Y-66589275D01*
X166005914Y-66387441D01*
X166027214Y-66182728D01*
X166036472Y-65976271D01*
X166033691Y-65769205D01*
X166018874Y-65562668D01*
X165992023Y-65357794D01*
X165968988Y-65230375D01*
X165921773Y-65026878D01*
X165862590Y-64827529D01*
X165791545Y-64632552D01*
X165708749Y-64442171D01*
X165614310Y-64256610D01*
X165508338Y-64076094D01*
X165390941Y-63900847D01*
X165262228Y-63731093D01*
X165207868Y-63665100D01*
X165171778Y-63623762D01*
X165128551Y-63576653D01*
X165080297Y-63525892D01*
X165029127Y-63473600D01*
X164977152Y-63421895D01*
X164926481Y-63372899D01*
X164879225Y-63328729D01*
X164837495Y-63291506D01*
X164826950Y-63282501D01*
X164666475Y-63154035D01*
X164502431Y-63036313D01*
X164335605Y-62929840D01*
X164166784Y-62835126D01*
X164025544Y-62765731D01*
X163831417Y-62683182D01*
X163634523Y-62612856D01*
X163434272Y-62554588D01*
X163230078Y-62508217D01*
X163021350Y-62473580D01*
X162921950Y-62461356D01*
X162878295Y-62457477D01*
X162824441Y-62454139D01*
X162762877Y-62451383D01*
X162696094Y-62449247D01*
X162626582Y-62447773D01*
X162556831Y-62446999D01*
X162489333Y-62446965D01*
X162426576Y-62447712D01*
X162371052Y-62449280D01*
X162325250Y-62451707D01*
X162324132Y-62451788D01*
X162111211Y-62473455D01*
X161902355Y-62507114D01*
X161697719Y-62552709D01*
X161497459Y-62610180D01*
X161301731Y-62679471D01*
X161110690Y-62760523D01*
X160924491Y-62853277D01*
X160743292Y-62957677D01*
X160567246Y-63073664D01*
X160474025Y-63141360D01*
X160347217Y-63242014D01*
X160221273Y-63352543D01*
X160098580Y-63470559D01*
X159981525Y-63593670D01*
X159872494Y-63719487D01*
X159782965Y-63833375D01*
X159666492Y-63999165D01*
X159559465Y-64171665D01*
X159462487Y-64349657D01*
X159376160Y-64531922D01*
X159301086Y-64717243D01*
X159237868Y-64904402D01*
X159216024Y-64979550D01*
X159165950Y-65183632D01*
X159128215Y-65389627D01*
X159102828Y-65596925D01*
X159089800Y-65804921D01*
X159089139Y-66013005D01*
X158871957Y-66013005D01*
X158871313Y-65941608D01*
X158872281Y-65843300D01*
X158875059Y-65745496D01*
X158879626Y-65650807D01*
X158885955Y-65561844D01*
X158893287Y-65487550D01*
X158923749Y-65276822D01*
X158966047Y-65069993D01*
X159019824Y-64867429D01*
X159084721Y-64669495D01*
X159160378Y-64476558D01*
X159246438Y-64288982D01*
X159342541Y-64107134D01*
X159448329Y-63931379D01*
X159563444Y-63762082D01*
X159687526Y-63599611D01*
X159820216Y-63444330D01*
X159961157Y-63296605D01*
X160109989Y-63156802D01*
X160266354Y-63025286D01*
X160429893Y-62902423D01*
X160600247Y-62788580D01*
X160777058Y-62684121D01*
X160959966Y-62589413D01*
X161148614Y-62504820D01*
X161342642Y-62430710D01*
X161541692Y-62367447D01*
X161745405Y-62315397D01*
X161953422Y-62274926D01*
X162059876Y-62259021D01*
X162131450Y-62249808D01*
X162196147Y-62242475D01*
X162256958Y-62236833D01*
X162316872Y-62232697D01*
X162378877Y-62229879D01*
X162445964Y-62228192D01*
X162521122Y-62227451D01*
X162566350Y-62227378D01*
X162707895Y-62229430D01*
X162707895Y-62229430D01*
G37*
X162707895Y-62229430D02*
X162840699Y-62235647D01*
X162968138Y-62246389D01*
X163093588Y-62262018D01*
X163220425Y-62282892D01*
X163352024Y-62309372D01*
X163368329Y-62312951D01*
X163575183Y-62365190D01*
X163778114Y-62429336D01*
X163976620Y-62505063D01*
X164170197Y-62592048D01*
X164358345Y-62689965D01*
X164540561Y-62798492D01*
X164716342Y-62917303D01*
X164885187Y-63046074D01*
X165046592Y-63184481D01*
X165200057Y-63332199D01*
X165345078Y-63488904D01*
X165481154Y-63654272D01*
X165516041Y-63700025D01*
X165642050Y-63878354D01*
X165756516Y-64061963D01*
X165859399Y-64250748D01*
X165950660Y-64444610D01*
X166030259Y-64643447D01*
X166098159Y-64847158D01*
X166154319Y-65055643D01*
X166198700Y-65268800D01*
X166231263Y-65486527D01*
X166240263Y-65567766D01*
X166244684Y-65621213D01*
X166248348Y-65684427D01*
X166251204Y-65754498D01*
X166253201Y-65828513D01*
X166254290Y-65903559D01*
X166254421Y-65976725D01*
X166253543Y-66045099D01*
X166251606Y-66105768D01*
X166250042Y-66135250D01*
X166230497Y-66353155D01*
X166199579Y-66565659D01*
X166157200Y-66773182D01*
X166103272Y-66976147D01*
X166037708Y-67174978D01*
X166029418Y-67197598D01*
X165949095Y-67396592D01*
X165858009Y-67589336D01*
X165756570Y-67775489D01*
X165645188Y-67954712D01*
X165524269Y-68126664D01*
X165394224Y-68291006D01*
X165255462Y-68447398D01*
X165108390Y-68595500D01*
X164953418Y-68734971D01*
X164790955Y-68865472D01*
X164621410Y-68986663D01*
X164445190Y-69098205D01*
X164262706Y-69199756D01*
X164074365Y-69290977D01*
X163880578Y-69371528D01*
X163681751Y-69441069D01*
X163478295Y-69499261D01*
X163270619Y-69545762D01*
X163187519Y-69560834D01*
X162995071Y-69588058D01*
X162798446Y-69605497D01*
X162601167Y-69612951D01*
X162406762Y-69610217D01*
X162361318Y-69608045D01*
X162146865Y-69590120D01*
X161935565Y-69560095D01*
X161727823Y-69518266D01*
X161524041Y-69464931D01*
X161324622Y-69400387D01*
X161129971Y-69324931D01*
X160940489Y-69238861D01*
X160756582Y-69142475D01*
X160578651Y-69036070D01*
X160407101Y-68919943D01*
X160242333Y-68794392D01*
X160084753Y-68659714D01*
X159934763Y-68516207D01*
X159792766Y-68364168D01*
X159659166Y-68203895D01*
X159534366Y-68035684D01*
X159418769Y-67859834D01*
X159312779Y-67676641D01*
X159216798Y-67486404D01*
X159131231Y-67289419D01*
X159096929Y-67200536D01*
X159038705Y-67031343D01*
X158989347Y-66860622D01*
X158948341Y-66686145D01*
X158915173Y-66505687D01*
X158889329Y-66317022D01*
X158886027Y-66287650D01*
X158879514Y-66213440D01*
X158874906Y-66129289D01*
X158872180Y-66037808D01*
X158871957Y-66013005D01*
X159089139Y-66013005D01*
X159100854Y-66220572D01*
X159124957Y-66427012D01*
X159161455Y-66631719D01*
X159188380Y-66749711D01*
X159244691Y-66952267D01*
X159312243Y-67149140D01*
X159391142Y-67340544D01*
X159481499Y-67526691D01*
X159583422Y-67707795D01*
X159697020Y-67884069D01*
X159822400Y-68055726D01*
X159909556Y-68164075D01*
X159945732Y-68205818D01*
X159989493Y-68253685D01*
X160038746Y-68305577D01*
X160091395Y-68359396D01*
X160145348Y-68413044D01*
X160198510Y-68464423D01*
X160248786Y-68511434D01*
X160294083Y-68551980D01*
X160312100Y-68567402D01*
X160479405Y-68700244D01*
X160651581Y-68821398D01*
X160828880Y-68931005D01*
X161011552Y-69029207D01*
X161199849Y-69116145D01*
X161394022Y-69191962D01*
X161461450Y-69215239D01*
X161576942Y-69251959D01*
X161689167Y-69283635D01*
X161800566Y-69310743D01*
X161913582Y-69333757D01*
X162030657Y-69353153D01*
X162154232Y-69369403D01*
X162286750Y-69382984D01*
X162353625Y-69388644D01*
X162378148Y-69389935D01*
X162413058Y-69390865D01*
X162456049Y-69391447D01*
X162504812Y-69391693D01*
X162557040Y-69391618D01*
X162610426Y-69391234D01*
X162662663Y-69390554D01*
X162711444Y-69389591D01*
X162754461Y-69388359D01*
X162789407Y-69386871D01*
X162802382Y-69386087D01*
X163010000Y-69365422D01*
X163216482Y-69332195D01*
X163421286Y-69286530D01*
X163623867Y-69228552D01*
X163823680Y-69158385D01*
X163858575Y-69144762D01*
X163913300Y-69121886D01*
X163976023Y-69093668D01*
X164043973Y-69061505D01*
X164114381Y-69026790D01*
X164184478Y-68990918D01*
X164251495Y-68955284D01*
X164312661Y-68921283D01*
X164365207Y-68890309D01*
X164371354Y-68886520D01*
X164507018Y-68798914D01*
X164632755Y-68710239D01*
X164751291Y-68618342D01*
X164865351Y-68521065D01*
X164977663Y-68416254D01*
X165023800Y-68370642D01*
X165168447Y-68216535D01*
X165302692Y-68055275D01*
X165426351Y-67887203D01*
X165539244Y-67712658D01*
X165641188Y-67531983D01*
X165732003Y-67345517D01*
X165811507Y-67153603D01*
X165879517Y-66956581D01*
X165935853Y-66754792D01*
X165972568Y-66589275D01*
X166005914Y-66387441D01*
X166027214Y-66182728D01*
X166036472Y-65976271D01*
X166033691Y-65769205D01*
X166018874Y-65562668D01*
X165992023Y-65357794D01*
X165968988Y-65230375D01*
X165921773Y-65026878D01*
X165862590Y-64827529D01*
X165791545Y-64632552D01*
X165708749Y-64442171D01*
X165614310Y-64256610D01*
X165508338Y-64076094D01*
X165390941Y-63900847D01*
X165262228Y-63731093D01*
X165207868Y-63665100D01*
X165171778Y-63623762D01*
X165128551Y-63576653D01*
X165080297Y-63525892D01*
X165029127Y-63473600D01*
X164977152Y-63421895D01*
X164926481Y-63372899D01*
X164879225Y-63328729D01*
X164837495Y-63291506D01*
X164826950Y-63282501D01*
X164666475Y-63154035D01*
X164502431Y-63036313D01*
X164335605Y-62929840D01*
X164166784Y-62835126D01*
X164025544Y-62765731D01*
X163831417Y-62683182D01*
X163634523Y-62612856D01*
X163434272Y-62554588D01*
X163230078Y-62508217D01*
X163021350Y-62473580D01*
X162921950Y-62461356D01*
X162878295Y-62457477D01*
X162824441Y-62454139D01*
X162762877Y-62451383D01*
X162696094Y-62449247D01*
X162626582Y-62447773D01*
X162556831Y-62446999D01*
X162489333Y-62446965D01*
X162426576Y-62447712D01*
X162371052Y-62449280D01*
X162325250Y-62451707D01*
X162324132Y-62451788D01*
X162111211Y-62473455D01*
X161902355Y-62507114D01*
X161697719Y-62552709D01*
X161497459Y-62610180D01*
X161301731Y-62679471D01*
X161110690Y-62760523D01*
X160924491Y-62853277D01*
X160743292Y-62957677D01*
X160567246Y-63073664D01*
X160474025Y-63141360D01*
X160347217Y-63242014D01*
X160221273Y-63352543D01*
X160098580Y-63470559D01*
X159981525Y-63593670D01*
X159872494Y-63719487D01*
X159782965Y-63833375D01*
X159666492Y-63999165D01*
X159559465Y-64171665D01*
X159462487Y-64349657D01*
X159376160Y-64531922D01*
X159301086Y-64717243D01*
X159237868Y-64904402D01*
X159216024Y-64979550D01*
X159165950Y-65183632D01*
X159128215Y-65389627D01*
X159102828Y-65596925D01*
X159089800Y-65804921D01*
X159089139Y-66013005D01*
X158871957Y-66013005D01*
X158871313Y-65941608D01*
X158872281Y-65843300D01*
X158875059Y-65745496D01*
X158879626Y-65650807D01*
X158885955Y-65561844D01*
X158893287Y-65487550D01*
X158923749Y-65276822D01*
X158966047Y-65069993D01*
X159019824Y-64867429D01*
X159084721Y-64669495D01*
X159160378Y-64476558D01*
X159246438Y-64288982D01*
X159342541Y-64107134D01*
X159448329Y-63931379D01*
X159563444Y-63762082D01*
X159687526Y-63599611D01*
X159820216Y-63444330D01*
X159961157Y-63296605D01*
X160109989Y-63156802D01*
X160266354Y-63025286D01*
X160429893Y-62902423D01*
X160600247Y-62788580D01*
X160777058Y-62684121D01*
X160959966Y-62589413D01*
X161148614Y-62504820D01*
X161342642Y-62430710D01*
X161541692Y-62367447D01*
X161745405Y-62315397D01*
X161953422Y-62274926D01*
X162059876Y-62259021D01*
X162131450Y-62249808D01*
X162196147Y-62242475D01*
X162256958Y-62236833D01*
X162316872Y-62232697D01*
X162378877Y-62229879D01*
X162445964Y-62228192D01*
X162521122Y-62227451D01*
X162566350Y-62227378D01*
X162707895Y-62229430D01*
G04 #@! TO.C,L2*
D15*
X160074428Y-88519000D02*
X160074428Y-89244714D01*
X158550428Y-89244714D01*
X158695571Y-88083571D02*
X158623000Y-88011000D01*
X158550428Y-87865857D01*
X158550428Y-87503000D01*
X158623000Y-87357857D01*
X158695571Y-87285285D01*
X158840714Y-87212714D01*
X158985857Y-87212714D01*
X159203571Y-87285285D01*
X160074428Y-88156142D01*
X160074428Y-87212714D01*
G04 #@! TO.C,L1*
X160074428Y-44069000D02*
X160074428Y-44794714D01*
X158550428Y-44794714D01*
X160074428Y-42762714D02*
X160074428Y-43633571D01*
X160074428Y-43198142D02*
X158550428Y-43198142D01*
X158768142Y-43343285D01*
X158913285Y-43488428D01*
X158985857Y-43633571D01*
G04 #@! TO.C,C1*
D12*
X137199642Y-62460166D02*
X137247261Y-62507785D01*
X137294880Y-62650642D01*
X137294880Y-62745880D01*
X137247261Y-62888738D01*
X137152023Y-62983976D01*
X137056785Y-63031595D01*
X136866309Y-63079214D01*
X136723452Y-63079214D01*
X136532976Y-63031595D01*
X136437738Y-62983976D01*
X136342500Y-62888738D01*
X136294880Y-62745880D01*
X136294880Y-62650642D01*
X136342500Y-62507785D01*
X136390119Y-62460166D01*
X137294880Y-61507785D02*
X137294880Y-62079214D01*
X137294880Y-61793500D02*
X136294880Y-61793500D01*
X136437738Y-61888738D01*
X136532976Y-61983976D01*
X136580595Y-62079214D01*
G04 #@! TO.C,C2*
X137009142Y-69889666D02*
X137056761Y-69937285D01*
X137104380Y-70080142D01*
X137104380Y-70175380D01*
X137056761Y-70318238D01*
X136961523Y-70413476D01*
X136866285Y-70461095D01*
X136675809Y-70508714D01*
X136532952Y-70508714D01*
X136342476Y-70461095D01*
X136247238Y-70413476D01*
X136152000Y-70318238D01*
X136104380Y-70175380D01*
X136104380Y-70080142D01*
X136152000Y-69937285D01*
X136199619Y-69889666D01*
X136199619Y-69508714D02*
X136152000Y-69461095D01*
X136104380Y-69365857D01*
X136104380Y-69127761D01*
X136152000Y-69032523D01*
X136199619Y-68984904D01*
X136294857Y-68937285D01*
X136390095Y-68937285D01*
X136532952Y-68984904D01*
X137104380Y-69556333D01*
X137104380Y-68937285D01*
G04 #@! TO.C,R1*
X163520380Y-60110666D02*
X163044190Y-60444000D01*
X163520380Y-60682095D02*
X162520380Y-60682095D01*
X162520380Y-60301142D01*
X162568000Y-60205904D01*
X162615619Y-60158285D01*
X162710857Y-60110666D01*
X162853714Y-60110666D01*
X162948952Y-60158285D01*
X162996571Y-60205904D01*
X163044190Y-60301142D01*
X163044190Y-60682095D01*
X163520380Y-59158285D02*
X163520380Y-59729714D01*
X163520380Y-59444000D02*
X162520380Y-59444000D01*
X162663238Y-59539238D01*
X162758476Y-59634476D01*
X162806095Y-59729714D01*
G04 #@! TO.C,R2*
X163520380Y-72175666D02*
X163044190Y-72509000D01*
X163520380Y-72747095D02*
X162520380Y-72747095D01*
X162520380Y-72366142D01*
X162568000Y-72270904D01*
X162615619Y-72223285D01*
X162710857Y-72175666D01*
X162853714Y-72175666D01*
X162948952Y-72223285D01*
X162996571Y-72270904D01*
X163044190Y-72366142D01*
X163044190Y-72747095D01*
X162615619Y-71794714D02*
X162568000Y-71747095D01*
X162520380Y-71651857D01*
X162520380Y-71413761D01*
X162568000Y-71318523D01*
X162615619Y-71270904D01*
X162710857Y-71223285D01*
X162806095Y-71223285D01*
X162948952Y-71270904D01*
X163520380Y-71842333D01*
X163520380Y-71223285D01*
G04 #@! TO.C,C3*
X159615142Y-49061666D02*
X159662761Y-49109285D01*
X159710380Y-49252142D01*
X159710380Y-49347380D01*
X159662761Y-49490238D01*
X159567523Y-49585476D01*
X159472285Y-49633095D01*
X159281809Y-49680714D01*
X159138952Y-49680714D01*
X158948476Y-49633095D01*
X158853238Y-49585476D01*
X158758000Y-49490238D01*
X158710380Y-49347380D01*
X158710380Y-49252142D01*
X158758000Y-49109285D01*
X158805619Y-49061666D01*
X158710380Y-48728333D02*
X158710380Y-48109285D01*
X159091333Y-48442619D01*
X159091333Y-48299761D01*
X159138952Y-48204523D01*
X159186571Y-48156904D01*
X159281809Y-48109285D01*
X159519904Y-48109285D01*
X159615142Y-48156904D01*
X159662761Y-48204523D01*
X159710380Y-48299761D01*
X159710380Y-48585476D01*
X159662761Y-48680714D01*
X159615142Y-48728333D01*
G04 #@! TO.C,C4*
X159488142Y-83224666D02*
X159535761Y-83272285D01*
X159583380Y-83415142D01*
X159583380Y-83510380D01*
X159535761Y-83653238D01*
X159440523Y-83748476D01*
X159345285Y-83796095D01*
X159154809Y-83843714D01*
X159011952Y-83843714D01*
X158821476Y-83796095D01*
X158726238Y-83748476D01*
X158631000Y-83653238D01*
X158583380Y-83510380D01*
X158583380Y-83415142D01*
X158631000Y-83272285D01*
X158678619Y-83224666D01*
X158916714Y-82367523D02*
X159583380Y-82367523D01*
X158535761Y-82605619D02*
X159250047Y-82843714D01*
X159250047Y-82224666D01*
G04 #@! TO.C,C5*
X163679142Y-48172666D02*
X163726761Y-48220285D01*
X163774380Y-48363142D01*
X163774380Y-48458380D01*
X163726761Y-48601238D01*
X163631523Y-48696476D01*
X163536285Y-48744095D01*
X163345809Y-48791714D01*
X163202952Y-48791714D01*
X163012476Y-48744095D01*
X162917238Y-48696476D01*
X162822000Y-48601238D01*
X162774380Y-48458380D01*
X162774380Y-48363142D01*
X162822000Y-48220285D01*
X162869619Y-48172666D01*
X162774380Y-47267904D02*
X162774380Y-47744095D01*
X163250571Y-47791714D01*
X163202952Y-47744095D01*
X163155333Y-47648857D01*
X163155333Y-47410761D01*
X163202952Y-47315523D01*
X163250571Y-47267904D01*
X163345809Y-47220285D01*
X163583904Y-47220285D01*
X163679142Y-47267904D01*
X163726761Y-47315523D01*
X163774380Y-47410761D01*
X163774380Y-47648857D01*
X163726761Y-47744095D01*
X163679142Y-47791714D01*
G04 #@! TO.C,C6*
X163679142Y-84240666D02*
X163726761Y-84288285D01*
X163774380Y-84431142D01*
X163774380Y-84526380D01*
X163726761Y-84669238D01*
X163631523Y-84764476D01*
X163536285Y-84812095D01*
X163345809Y-84859714D01*
X163202952Y-84859714D01*
X163012476Y-84812095D01*
X162917238Y-84764476D01*
X162822000Y-84669238D01*
X162774380Y-84526380D01*
X162774380Y-84431142D01*
X162822000Y-84288285D01*
X162869619Y-84240666D01*
X162774380Y-83383523D02*
X162774380Y-83574000D01*
X162822000Y-83669238D01*
X162869619Y-83716857D01*
X163012476Y-83812095D01*
X163202952Y-83859714D01*
X163583904Y-83859714D01*
X163679142Y-83812095D01*
X163726761Y-83764476D01*
X163774380Y-83669238D01*
X163774380Y-83478761D01*
X163726761Y-83383523D01*
X163679142Y-83335904D01*
X163583904Y-83288285D01*
X163345809Y-83288285D01*
X163250571Y-83335904D01*
X163202952Y-83383523D01*
X163155333Y-83478761D01*
X163155333Y-83669238D01*
X163202952Y-83764476D01*
X163250571Y-83812095D01*
X163345809Y-83859714D01*
G04 #@! TD*
M02*
