G04 #@! TF.GenerationSoftware,KiCad,Pcbnew,(5.0.0)*
G04 #@! TF.CreationDate,2018-08-28T13:44:09+03:00*
G04 #@! TF.ProjectId,LCF05,4C434630352E6B696361645F70636200,rev?*
G04 #@! TF.SameCoordinates,Original*
G04 #@! TF.FileFunction,Soldermask,Bot*
G04 #@! TF.FilePolarity,Negative*
%FSLAX46Y46*%
G04 Gerber Fmt 4.6, Leading zero omitted, Abs format (unit mm)*
G04 Created by KiCad (PCBNEW (5.0.0)) date 08/28/18 13:44:09*
%MOMM*%
%LPD*%
G01*
G04 APERTURE LIST*
%ADD10C,6.800000*%
%ADD11C,3.400000*%
%ADD12C,4.400000*%
%ADD13R,2.100000X2.100000*%
%ADD14C,2.100000*%
%ADD15C,0.254000*%
G04 APERTURE END LIST*
D10*
G04 #@! TO.C,REF\002A\002A*
X172720000Y-91440000D03*
G04 #@! TD*
G04 #@! TO.C,REF\002A\002A*
X121920000Y-91440000D03*
G04 #@! TD*
G04 #@! TO.C,REF\002A\002A*
X121920000Y-40640000D03*
G04 #@! TD*
D11*
G04 #@! TO.C,P7*
X170180000Y-78740000D03*
G04 #@! TD*
G04 #@! TO.C,P4*
X170180000Y-53340000D03*
G04 #@! TD*
G04 #@! TO.C,P5*
X170180000Y-61806666D03*
G04 #@! TD*
G04 #@! TO.C,P6*
X170180000Y-70273332D03*
G04 #@! TD*
D12*
G04 #@! TO.C,L2*
X137795000Y-88011000D03*
X145415000Y-79121000D03*
G04 #@! TD*
G04 #@! TO.C,L1*
X137795000Y-54356000D03*
X145415000Y-45466000D03*
G04 #@! TD*
D13*
G04 #@! TO.C,C1*
X154876500Y-62293500D03*
D14*
X139876500Y-62293500D03*
G04 #@! TD*
D13*
G04 #@! TO.C,C2*
X139827000Y-69850000D03*
D14*
X154827000Y-69850000D03*
G04 #@! TD*
D11*
G04 #@! TO.C,P1*
X124460000Y-53340000D03*
G04 #@! TD*
G04 #@! TO.C,P2*
X124460000Y-66040000D03*
G04 #@! TD*
G04 #@! TO.C,P3*
X124460000Y-78740000D03*
G04 #@! TD*
D10*
G04 #@! TO.C,REF\002A\002A*
X172783500Y-40703500D03*
G04 #@! TD*
D15*
G36*
X136172235Y-52859992D02*
X135951404Y-55591317D01*
X125257265Y-54772508D01*
X125478096Y-52041183D01*
X136172235Y-52859992D01*
X136172235Y-52859992D01*
G37*
X136172235Y-52859992D02*
X135951404Y-55591317D01*
X125257265Y-54772508D01*
X125478096Y-52041183D01*
X136172235Y-52859992D01*
G36*
X169716090Y-51746328D02*
X168890545Y-54374119D01*
X146629473Y-47288767D01*
X147477896Y-44685388D01*
X169716090Y-51746328D01*
X169716090Y-51746328D01*
G37*
X169716090Y-51746328D02*
X168890545Y-54374119D01*
X146629473Y-47288767D01*
X147477896Y-44685388D01*
X169716090Y-51746328D01*
G36*
X137161583Y-85896892D02*
X135603655Y-88164027D01*
X124433613Y-80397357D01*
X126003048Y-78142021D01*
X137161583Y-85896892D01*
X137161583Y-85896892D01*
G37*
X137161583Y-85896892D02*
X135603655Y-88164027D01*
X124433613Y-80397357D01*
X126003048Y-78142021D01*
X137161583Y-85896892D01*
G36*
X169275622Y-80126271D02*
X147140042Y-80465273D01*
X147093530Y-77709408D01*
X169217501Y-77382948D01*
X169275622Y-80126271D01*
X169275622Y-80126271D01*
G37*
X169275622Y-80126271D02*
X147140042Y-80465273D01*
X147093530Y-77709408D01*
X169217501Y-77382948D01*
X169275622Y-80126271D01*
G36*
X171027108Y-62892757D02*
X167981816Y-65950379D01*
X167954369Y-65991636D01*
X167944800Y-66040257D01*
X167954566Y-66088838D01*
X167981808Y-66129613D01*
X170893008Y-69053148D01*
X169032967Y-71064317D01*
X165392541Y-67461038D01*
X165351198Y-67433720D01*
X165303200Y-67424300D01*
X124725632Y-67424300D01*
X124702376Y-64668400D01*
X165341300Y-64668400D01*
X165389901Y-64658733D01*
X165431410Y-64630894D01*
X169039433Y-60998073D01*
X171027108Y-62892757D01*
X171027108Y-62892757D01*
G37*
X171027108Y-62892757D02*
X167981816Y-65950379D01*
X167954369Y-65991636D01*
X167944800Y-66040257D01*
X167954566Y-66088838D01*
X167981808Y-66129613D01*
X170893008Y-69053148D01*
X169032967Y-71064317D01*
X165392541Y-67461038D01*
X165351198Y-67433720D01*
X165303200Y-67424300D01*
X124725632Y-67424300D01*
X124702376Y-64668400D01*
X165341300Y-64668400D01*
X165389901Y-64658733D01*
X165431410Y-64630894D01*
X169039433Y-60998073D01*
X171027108Y-62892757D01*
M02*
