G04 #@! TF.GenerationSoftware,KiCad,Pcbnew,(5.0.0)*
G04 #@! TF.CreationDate,2018-08-28T13:44:09+03:00*
G04 #@! TF.ProjectId,LCF05,4C434630352E6B696361645F70636200,rev?*
G04 #@! TF.SameCoordinates,Original*
G04 #@! TF.FileFunction,Copper,L1,Top,Signal*
G04 #@! TF.FilePolarity,Positive*
%FSLAX46Y46*%
G04 Gerber Fmt 4.6, Leading zero omitted, Abs format (unit mm)*
G04 Created by KiCad (PCBNEW (5.0.0)) date 08/28/18 13:44:09*
%MOMM*%
%LPD*%
G01*
G04 APERTURE LIST*
G04 #@! TA.AperFunction,ComponentPad*
%ADD10C,6.400000*%
G04 #@! TD*
G04 #@! TA.AperFunction,ComponentPad*
%ADD11C,3.000000*%
G04 #@! TD*
G04 #@! TA.AperFunction,ComponentPad*
%ADD12C,4.000000*%
G04 #@! TD*
G04 #@! TA.AperFunction,ComponentPad*
%ADD13R,1.700000X1.700000*%
G04 #@! TD*
G04 #@! TA.AperFunction,ComponentPad*
%ADD14C,1.700000*%
G04 #@! TD*
G04 #@! TA.AperFunction,SMDPad,CuDef*
%ADD15R,1.300000X1.500000*%
G04 #@! TD*
G04 #@! TA.AperFunction,SMDPad,CuDef*
%ADD16R,1.600000X2.000000*%
G04 #@! TD*
G04 #@! TA.AperFunction,SMDPad,CuDef*
%ADD17R,1.250000X1.500000*%
G04 #@! TD*
G04 #@! TA.AperFunction,Conductor*
%ADD18C,1.000000*%
G04 #@! TD*
G04 #@! TA.AperFunction,Conductor*
%ADD19C,3.000000*%
G04 #@! TD*
G04 APERTURE END LIST*
D10*
G04 #@! TO.P,REF\002A\002A,*
G04 #@! TO.N,*
X172720000Y-91440000D03*
G04 #@! TD*
G04 #@! TO.P,REF\002A\002A,*
G04 #@! TO.N,*
X121920000Y-91440000D03*
G04 #@! TD*
G04 #@! TO.P,REF\002A\002A,*
G04 #@! TO.N,*
X121920000Y-40640000D03*
G04 #@! TD*
D11*
G04 #@! TO.P,P7,1*
G04 #@! TO.N,Net-(C2-Pad2)*
X170180000Y-78740000D03*
G04 #@! TD*
G04 #@! TO.P,P4,1*
G04 #@! TO.N,Net-(C1-Pad1)*
X170180000Y-53340000D03*
G04 #@! TD*
G04 #@! TO.P,P5,1*
G04 #@! TO.N,GND*
X170180000Y-61806666D03*
G04 #@! TD*
G04 #@! TO.P,P6,1*
G04 #@! TO.N,GND*
X170180000Y-70273332D03*
G04 #@! TD*
D12*
G04 #@! TO.P,L2,2*
G04 #@! TO.N,Net-(L2-Pad2)*
X137795000Y-88011000D03*
G04 #@! TO.P,L2,1*
G04 #@! TO.N,Net-(C2-Pad2)*
X145415000Y-79121000D03*
G04 #@! TD*
G04 #@! TO.P,L1,2*
G04 #@! TO.N,Net-(L1-Pad2)*
X137795000Y-54356000D03*
G04 #@! TO.P,L1,1*
G04 #@! TO.N,Net-(C1-Pad1)*
X145415000Y-45466000D03*
G04 #@! TD*
D13*
G04 #@! TO.P,C1,1*
G04 #@! TO.N,Net-(C1-Pad1)*
X154876500Y-62293500D03*
D14*
G04 #@! TO.P,C1,2*
G04 #@! TO.N,GND*
X139876500Y-62293500D03*
G04 #@! TD*
D13*
G04 #@! TO.P,C2,1*
G04 #@! TO.N,GND*
X139827000Y-69850000D03*
D14*
G04 #@! TO.P,C2,2*
G04 #@! TO.N,Net-(C2-Pad2)*
X154827000Y-69850000D03*
G04 #@! TD*
D15*
G04 #@! TO.P,R1,1*
G04 #@! TO.N,Net-(C5-Pad2)*
X165100000Y-58640000D03*
G04 #@! TO.P,R1,2*
G04 #@! TO.N,GND*
X165100000Y-61340000D03*
G04 #@! TD*
G04 #@! TO.P,R2,1*
G04 #@! TO.N,GND*
X165100000Y-70724000D03*
G04 #@! TO.P,R2,2*
G04 #@! TO.N,Net-(C6-Pad1)*
X165100000Y-73424000D03*
G04 #@! TD*
D16*
G04 #@! TO.P,C3,1*
G04 #@! TO.N,Net-(C1-Pad1)*
X161353500Y-46958500D03*
G04 #@! TO.P,C3,2*
G04 #@! TO.N,GND*
X161353500Y-50958500D03*
G04 #@! TD*
G04 #@! TO.P,C4,2*
G04 #@! TO.N,Net-(C2-Pad2)*
X161163000Y-85058000D03*
G04 #@! TO.P,C4,1*
G04 #@! TO.N,GND*
X161163000Y-81058000D03*
G04 #@! TD*
D17*
G04 #@! TO.P,C5,1*
G04 #@! TO.N,Net-(C1-Pad1)*
X165100000Y-46756000D03*
G04 #@! TO.P,C5,2*
G04 #@! TO.N,Net-(C5-Pad2)*
X165100000Y-49256000D03*
G04 #@! TD*
G04 #@! TO.P,C6,2*
G04 #@! TO.N,Net-(C2-Pad2)*
X165100000Y-85308000D03*
G04 #@! TO.P,C6,1*
G04 #@! TO.N,Net-(C6-Pad1)*
X165100000Y-82808000D03*
G04 #@! TD*
D11*
G04 #@! TO.P,P1,1*
G04 #@! TO.N,Net-(L1-Pad2)*
X124460000Y-53340000D03*
G04 #@! TD*
G04 #@! TO.P,P2,1*
G04 #@! TO.N,GND*
X124460000Y-66040000D03*
G04 #@! TD*
G04 #@! TO.P,P3,1*
G04 #@! TO.N,Net-(L2-Pad2)*
X124460000Y-78740000D03*
G04 #@! TD*
D10*
G04 #@! TO.P,REF\002A\002A,*
G04 #@! TO.N,*
X172783500Y-40703500D03*
G04 #@! TD*
D18*
G04 #@! TO.N,Net-(C1-Pad1)*
X161353500Y-46958500D02*
X165100000Y-46756000D01*
X161353500Y-46958500D02*
X145415000Y-45466000D01*
G04 #@! TO.N,GND*
X161163000Y-66040000D02*
X165100000Y-66040000D01*
X161163000Y-66040000D02*
X161163000Y-66040000D01*
X165100000Y-66040000D02*
X165100000Y-66040000D01*
D19*
X124460000Y-66040000D02*
X165925500Y-66040000D01*
X165925500Y-66040000D02*
X165946666Y-66040000D01*
X165946666Y-66040000D02*
X170180000Y-61806666D01*
X170180000Y-70273332D02*
X170158832Y-70273332D01*
X170158832Y-70273332D02*
X165925500Y-66040000D01*
D18*
X161353500Y-50958500D02*
X161163000Y-81058000D01*
X165100000Y-61340000D02*
X165100000Y-70724000D01*
G04 #@! TO.N,Net-(C2-Pad2)*
X161163000Y-85058000D02*
X165100000Y-85308000D01*
X161163000Y-85058000D02*
X145415000Y-79121000D01*
G04 #@! TO.N,Net-(C5-Pad2)*
X165100000Y-49256000D02*
X165100000Y-58640000D01*
G04 #@! TO.N,Net-(C6-Pad1)*
X165100000Y-73424000D02*
X165100000Y-82808000D01*
G04 #@! TD*
M02*
